<?xml version="1.0" encoding="utf-8"?>
<!-- Generator: Adobe Illustrator 16.0.0, SVG Export Plug-In . SVG Version: 6.00 Build 0)  -->
<!DOCTYPE svg PUBLIC "-//W3C//DTD SVG 1.1//EN" "http://www.w3.org/Graphics/SVG/1.1/DTD/svg11.dtd">
<svg version="1.1" id="Layer_1" xmlns="http://www.w3.org/2000/svg" xmlns:xlink="http://www.w3.org/1999/xlink" x="0px" y="0px"
	 width="63px" height="89px" viewBox="0 0 63 89" enable-background="new 0 0 63 89" xml:space="preserve">
<g>
	<path fill-rule="evenodd" clip-rule="evenodd" fill="#FDD414" d="M49.112,32.867c-1.136,2.422-2.324,4.719-3.83,6.831
		c-1.157,1.631-2.362,3.232-3.567,4.828c-0.23,0.302-0.23,0.503-0.013,0.826c1.882,2.784,4.083,5.252,6.929,7.08
		c0.088,0.054,0.161,0.134,0.272,0.23c-2.213,1.177-4.522,1.856-6.983,1.982c-3.105,0.159-6.063-0.57-9.002-1.462
		c-2.599-0.792-5.201-1.571-7.809-2.334c-0.545-0.159-1.114-0.23-1.749-0.357c0.068-6.601,0.14-13.206,0.211-19.92
		c1.161,0.273,2.289,0.478,3.379,0.797c2.707,0.796,5.385,1.693,8.097,2.468c3.745,1.069,7.516,1.408,11.293,0.13
		C47.252,33.654,48.128,33.252,49.112,32.867z"/>
	<g>
		<path fill="#FDD414" d="M20.533,67.084c-0.021,0-0.034,0-0.051,0c-0.629-0.004-1.127-0.503-1.132-1.128l0.059-34.949
			c0-0.621,0.508-1.132,1.128-1.124c0.624,0,1.125,0.503,1.127,1.127l-0.059,34.95C21.61,66.563,21.129,67.059,20.533,67.084z"/>
	</g>
</g>
</svg>
