<?xml version="1.0" encoding="utf-8"?>
<!-- Generator: Adobe Illustrator 18.0.0, SVG Export Plug-In . SVG Version: 6.00 Build 0)  -->
<!DOCTYPE svg PUBLIC "-//W3C//DTD SVG 1.1//EN" "http://www.w3.org/Graphics/SVG/1.1/DTD/svg11.dtd">
<svg version="1.1" id="Layer_1" xmlns="http://www.w3.org/2000/svg" xmlns:xlink="http://www.w3.org/1999/xlink" x="0px" y="0px"
	 viewBox="0 0 800 800" enable-background="new 0 0 800 800" xml:space="preserve">
<polygon fill="#FFFAF0" points="281.3,453.3 334.8,489 344.1,395.1 "/>
<polygon fill="#FFFAF0" points="334.8,489 370.5,436.8 344.1,395.1 "/>
<polygon fill="#FFFAF0" points="266.6,389 266.6,389 281.3,453.3 344.1,395.1 "/>
<polygon fill="#FFFAF0" points="266.6,389 266.6,389 266.6,389 266.6,389 "/>
<polygon fill="#FFFAF0" points="344.1,395.1 309.7,293.3 266.6,389 "/>
<polygon fill="#FFFAF0" points="508.7,366.7 524.6,294.7 453.2,309.2 "/>
<polygon fill="#FFFAF0" points="370.5,436.8 463.1,422.9 426.7,362.8 "/>
<polygon fill="#FFFAF0" points="524.6,294.7 413.5,243.1 453.2,309.2 "/>
<polygon fill="#FFFAF0" points="381.8,338.5 309.7,293.3 344.1,395.1 "/>
<polygon fill="#FFFAF0" points="537.9,428.5 584.7,406.8 508.7,366.7 "/>
<polygon fill="#FFFAF0" points="568.2,338.5 524.6,294.7 508.7,366.7 "/>
<polygon fill="#FFFAF0" points="270,557.8 298.5,566.4 327.6,539.2 287.9,522.1 "/>
<polygon fill="#FFFAF0" points="494.5,461.2 537.9,428.5 537.9,428.5 508.7,366.7 "/>
<polygon fill="#FFFAF0" points="584.7,406.8 568.2,338.5 508.7,366.7 "/>
<polygon fill="#FFFAF0" points="393.7,302.6 309.7,293.3 381.8,338.5 "/>
<polygon fill="#FFFAF0" points="453.2,309.2 393.7,302.6 381.8,338.5 "/>
<polygon fill="#FFFAF0" points="426.7,362.8 453.2,309.2 381.8,338.5 "/>
<polygon fill="#FFFAF0" points="264.8,393.2 225,444 281.3,453.3 266.6,389 "/>
<polygon fill="#FFFAF0" points="414.8,490.3 438,504 463.1,422.9 "/>
<polygon fill="#FFFAF0" points="382.1,496.9 414.8,490.3 370.5,436.8 "/>
<polygon fill="#FFFAF0" points="334.8,489 382.1,496.9 370.5,436.8 "/>
<polygon fill="#FFFAF0" points="281.3,453.3 270,504 287.9,522.1 334.8,489 "/>
<polygon fill="#FFFAF0" points="370.5,436.8 414.8,490.3 463.1,422.9 "/>
<polygon fill="#FFFAF0" points="453.2,309.2 413.5,243.1 393.7,302.6 "/>
<polygon fill="#FFFAF0" points="327.6,539.2 382.1,496.9 334.8,489 "/>
<polygon fill="#FFFAF0" points="508.7,366.7 463.1,422.9 438,504 494.5,461.2 "/>
<polygon fill="#FFFAF0" points="309.8,293.3 244.4,337.1 266.7,389 266.7,389 "/>
<polygon fill="#FFFAF0" points="426.8,362.8 463.2,422.9 508.8,366.7 453.3,309.2 "/>
<polygon fill="#FFFAF0" points="381.9,338.5 344.2,395.1 370.6,436.8 426.8,362.8 "/>
<polygon fill="#FFFAF0" points="538,428.5 494.6,461.2 490.3,490.3 559,473.1 538,428.5 "/>
<polygon fill="#FFFAF0" points="537.9,428.5 558.9,473.1 584.7,406.8 "/>
<polygon fill="#FFFAF0" points="438,504 490.2,490.3 494.5,461.2 "/>
<polygon fill="#FFFAF0" points="287.9,522.1 327.6,539.2 334.8,489 "/>
<polygon fill="#FFFAF0" points="322.9,238.9 227.7,298.4 309.7,293.3 "/>
<polygon fill="#FFFAF0" points="309.7,293.3 227.7,298.4 244.4,337.1 "/>
<polygon fill="#FFFAF0" points="412.2,243.7 309.7,293.3 393.7,302.6 413.5,243.1 322.9,238.9 309.7,293.3 "/>
<polygon fill="#FFFAF0" points="227.7,298.4 177.5,381.9 244.4,337.1 "/>
<polygon fill="#FFFAF0" points="225,444 196,481.1 270,504 281.3,453.3 "/>
<polygon fill="#FFFAF0" points="264.8,393.2 266.6,389 266.6,389 168.9,434.8 225,444 "/>
<polygon fill="#FFFAF0" points="168.9,434.8 196,481.1 225,444 "/>
<polygon fill="#FFFAF0" points="266.6,389 177.5,381.9 168.9,434.8 266.6,389 "/>
<polygon fill="#FFFAF0" points="244.4,337.1 177.5,381.9 266.6,389 "/>
</svg>
