<?xml version="1.0" encoding="utf-8"?>
<!-- Generator: Adobe Illustrator 16.0.0, SVG Export Plug-In . SVG Version: 6.00 Build 0)  -->
<!DOCTYPE svg PUBLIC "-//W3C//DTD SVG 1.1//EN" "http://www.w3.org/Graphics/SVG/1.1/DTD/svg11.dtd">
<svg version="1.1" id="Layer_1" xmlns="http://www.w3.org/2000/svg" xmlns:xlink="http://www.w3.org/1999/xlink" x="0px" y="0px"
	 width="48px" height="48px" viewBox="0 0 48 48" enable-background="new 0 0 48 48" xml:space="preserve">
<path fill="#010101" d="M15.627,4.432l22.599,13.003L15.624,29.403L15.627,4.432z"/>
<g>
	<path fill="#010101" d="M9.401,43.518l-0.077,0.869H5.155l0.077-2.123l-0.077-4.939h4.191l0.066,0.099l-0.088,0.869l-1.672-0.044
		L6.31,38.26l-0.033,2.057l1.276,0.022l1.166-0.033l0.077,0.088l-0.088,0.869l-1.243-0.033l-1.199,0.022l-0.011,0.913l0.033,1.298
		l1.342,0.011l1.705-0.055L9.401,43.518z"/>
	<path fill="#010101" d="M16.221,44.387H15l-3.311-5.291h-0.088l-0.011,2.926l0.055,2.365h-1.067l0.077-2.09L10.6,37.325h1.21
		l3.322,5.291h0.088l-0.033-5.236l1.067-0.077l-0.077,4.972L16.221,44.387z"/>
	<path fill="#010101" d="M22.381,38.282l-1.276-0.066h-0.594l-0.055,3.949l0.055,2.222h-1.144l0.066-2.123l-0.055-4.048h-0.594
		l-1.298,0.066l-0.077-0.099l0.088-0.858h4.884l0.066,0.099L22.381,38.282z"/>
	<path fill="#010101" d="M28.596,44.123l-0.012,0.132c-0.352,0.117-0.715,0.194-1.088,0.231l-0.133-0.088
		c-0.608-0.998-1.1-1.841-1.474-2.53H24.69v0.297l0.055,2.222H23.59l0.077-2.123l-0.077-4.939l2.398-0.011
		c0.711,0,1.262,0.178,1.65,0.534c0.389,0.356,0.583,0.864,0.583,1.523c0,0.47-0.123,0.893-0.368,1.271
		c-0.246,0.378-0.589,0.684-1.029,0.918C27.323,42.359,27.914,43.213,28.596,44.123z M25.922,40.977
		c0.741-0.227,1.111-0.733,1.111-1.518c0-0.799-0.451-1.217-1.353-1.254l-0.935,0.033l-0.033,2.706L25.922,40.977z"/>
	<path fill="#010101" d="M33.996,44.387l-0.164-0.792l-0.309-0.979l-1.496-0.033l-1.354,0.033l-0.329,0.924l-0.177,0.847h-1.133
		l2.52-7.062h1.331l2.276,7.062H33.996z M32.226,38.436h-0.077l-1.154,3.256l1.11,0.022l1.134-0.022L32.226,38.436z"/>
	<path fill="#010101" d="M41.322,44.123l-0.011,0.132c-0.353,0.117-0.715,0.194-1.089,0.231l-0.132-0.088
		c-0.608-0.998-1.101-1.841-1.474-2.53h-1.199v0.297l0.055,2.222h-1.155l0.077-2.123l-0.077-4.939l2.398-0.011
		c0.711,0,1.261,0.178,1.649,0.534c0.389,0.356,0.584,0.864,0.584,1.523c0,0.47-0.123,0.893-0.369,1.271
		c-0.246,0.378-0.588,0.684-1.028,0.918C40.051,42.359,40.641,43.213,41.322,44.123z M38.649,40.977
		c0.741-0.227,1.111-0.733,1.111-1.518c0-0.799-0.451-1.217-1.353-1.254l-0.936,0.033l-0.033,2.706L38.649,40.977z"/>
</g>
</svg>
