<?xml version="1.0" encoding="utf-8"?>
<!-- Generator: Adobe Illustrator 18.0.0, SVG Export Plug-In . SVG Version: 6.00 Build 0)  -->
<!DOCTYPE svg PUBLIC "-//W3C//DTD SVG 1.1//EN" "http://www.w3.org/Graphics/SVG/1.1/DTD/svg11.dtd">
<svg version="1.1" id="Layer_1" xmlns="http://www.w3.org/2000/svg" xmlns:xlink="http://www.w3.org/1999/xlink" x="0px" y="0px"
	 viewBox="0 0 800 800" enable-background="new 0 0 800 800" xml:space="preserve">
<polygon fill="#FFFFFF" points="646.6,340.1 599.5,340.1 599.5,292.9 570.9,292.9 570.9,340.1 523.8,340.1 523.8,368.6 570.9,368.6 
	570.9,415.7 599.5,415.7 599.5,368.6 646.6,368.6 "/>
<polygon fill="#FFFFFF" points="266.6,300.8 252.3,286.3 198.6,339.8 145.1,286.2 130.7,300.5 184.1,354.2 130.5,407.6 144.8,422 
	198.5,368.6 252,422.4 266.4,408 212.9,354.3 "/>
<g>
	<g>
		<polygon points="589.8,507.5 599,354.2 703.5,467.8 641.3,472.5 		"/>
		<path fill="#FFFFFF" d="M589.8,514.5c-1.2,0-2.4-0.3-3.5-0.9c-2.3-1.3-3.7-3.9-3.5-6.5l9.2-153.3c0.2-2.8,2-5.2,4.7-6.2
			c2.7-0.9,5.6-0.2,7.5,1.9l104.4,113.7c1.8,2,2.3,4.8,1.4,7.3c-1,2.5-3.3,4.2-6,4.4l-60.2,4.5l-50,34
			C592.6,514.1,591.2,514.5,589.8,514.5z M605.1,371.1l-7.4,122.6l39.7-27c1-0.7,2.2-1.1,3.4-1.2l47.7-3.5L605.1,371.1z"/>
	</g>
	<g>
		<line x1="663.8" y1="533.3" x2="641.3" y2="472.5"/>
		<path fill="#FFFFFF" d="M663.8,540.3c-2.9,0-5.5-1.8-6.6-4.6l-22.5-60.8c-1.3-3.6,0.5-7.7,4.2-9c3.6-1.3,7.7,0.5,9,4.1l22.5,60.8
			c1.3,3.6-0.5,7.7-4.2,9C665.4,540.1,664.6,540.3,663.8,540.3z"/>
	</g>
</g>
</svg>
