<?xml version="1.0" encoding="utf-8"?>
<!-- Generator: Adobe Illustrator 16.0.0, SVG Export Plug-In . SVG Version: 6.00 Build 0)  -->
<!DOCTYPE svg PUBLIC "-//W3C//DTD SVG 1.1//EN" "http://www.w3.org/Graphics/SVG/1.1/DTD/svg11.dtd">
<svg version="1.1" id="Layer_1" xmlns="http://www.w3.org/2000/svg" xmlns:xlink="http://www.w3.org/1999/xlink" x="0px" y="0px"
	 width="222.75px" height="136.25px" viewBox="0 0 222.75 136.25" enable-background="new 0 0 222.75 136.25" xml:space="preserve">
<g>
	<path fill="#010101" d="M29.166,67.2c0,8.585-4.578,13.268-12.071,13.268c-1.144,0-2.289-0.104-3.485-0.312l0.156,9.416H6.95
		l0.312-19.614L6.95,56.223l6.608-0.572l-0.052,3.538h0.364c1.978-1.873,3.642-2.914,5.827-3.746
		C25.889,55.442,29.166,59.865,29.166,67.2z M22.663,68.137c-0.052-4.579-1.561-7.128-4.63-7.128c-1.509,0-2.862,0.676-4.527,2.237
		l-0.052,6.036l0.104,5.879c1.249,0.521,2.498,0.78,3.59,0.78C20.529,75.941,22.714,73.652,22.663,68.137z"/>
	<path fill="#010101" d="M54.977,62.102c0,1.769-0.573,9.885-0.573,11.55c0,1.144,0.312,1.56,1.197,1.56
		c0.364,0,0.729-0.051,1.353-0.208l0.521,0.417l-0.624,3.641c-1.041,0.677-2.237,1.146-3.798,1.302
		c-2.081-0.208-3.538-1.51-4.006-3.799h-0.364c-1.612,1.718-3.381,3.07-5.358,3.851c-4.995-0.052-8.013-2.81-8.013-7.232
		c0-3.486,1.821-5.411,5.359-6.087l7.96-1.509v-2.133c0-2.29-1.093-3.381-3.33-3.381c-2.185,0-4.475,0.936-7.44,3.018l-0.521-0.312
		l-0.78-4.579c3.018-1.925,6.556-2.914,9.885-2.914C51.751,55.286,54.977,57.783,54.977,62.102z M43.062,70.27
		c-1.093,0.26-1.613,0.833-1.613,2.186c0,1.821,1.04,2.861,2.757,2.861c1.457,0,2.862-0.885,4.266-2.393l0.104-3.851L43.062,70.27z"
		/>
	<path fill="#010101" d="M79.643,55.807v6.399l-0.677,0.261c-0.676-0.261-1.353-0.365-1.925-0.365c-1.873,0-3.746,1.144-5.463,3.85
		v3.33l0.364,10.666h-6.919l0.364-9.989l-0.312-13.736l6.607-0.572l-0.052,4.734h0.364c1.821-3.33,4.11-4.683,6.399-4.683
		C78.758,55.702,79.227,55.754,79.643,55.807z"/>
	<path fill="#010101" d="M99.728,73.965l0.572,0.52l-0.676,4.11c-1.717,0.884-3.538,1.457-5.411,1.665
		c-4.683-0.467-7.024-2.757-7.024-6.868l0.261-4.318l-0.052-8.949h-3.226l-0.261-0.364l0.364-3.798h3.07v-4.006l6.295-2.029
		l0.468,0.416l-0.156,5.62h6.192l0.208,0.364l-0.312,3.797h-6.191l-0.312,11.654c0,2.29,0.832,3.069,2.705,3.069
		C97.283,74.848,98.427,74.588,99.728,73.965z"/>
	<path fill="#010101" d="M114.301,47.43c0,2.342-1.405,3.851-3.694,3.851c-2.29,0-3.538-1.302-3.538-3.59
		c0-2.29,1.457-3.798,3.798-3.798C113.052,43.892,114.301,45.192,114.301,47.43z M114.041,79.947h-6.919l0.364-9.989l-0.312-13.736
		l6.919-0.572l-0.416,13.631L114.041,79.947z"/>
	<path fill="#010101" d="M136.779,73.965l0.572,0.52l-0.676,4.11c-1.717,0.884-3.538,1.457-5.411,1.665
		c-4.682-0.467-7.024-2.757-7.024-6.868l0.26-4.318l-0.052-8.949h-3.226l-0.261-0.364l0.364-3.798h3.07v-4.006l6.295-2.029
		l0.468,0.416l-0.156,5.62h6.191l0.208,0.364l-0.312,3.797H130.9l-0.312,11.654c0,2.29,0.833,3.069,2.706,3.069
		C134.333,74.848,135.479,74.588,136.779,73.965z"/>
	<path fill="#010101" d="M164.307,73.652c0,1.144,0.312,1.56,1.196,1.56c0.364,0,0.729-0.051,1.353-0.208l0.521,0.417l-0.624,3.641
		c-1.041,0.677-2.29,1.146-3.799,1.302c-2.133-0.208-3.59-1.614-4.162-3.902h-0.521c-1.977,1.925-3.954,3.173-6.087,3.797
		c-5.254,0-8.064-2.497-8.064-6.971l0.156-6.139l-0.26-10.926l6.711-0.572l-0.208,15.348c0,2.393,0.989,3.694,3.122,3.694
		c1.561,0,3.018-0.728,4.526-2.03v-16.44l6.555-0.572L164.307,73.652z"/>
	<path fill="#010101" d="M189.077,55.807v6.399l-0.676,0.261c-0.676-0.261-1.352-0.365-1.925-0.365c-1.873,0-3.746,1.144-5.463,3.85
		v3.33l0.364,10.666h-6.919l0.364-9.989l-0.312-13.736l6.607-0.572l-0.052,4.734h0.364c1.82-3.33,4.11-4.683,6.399-4.683
		C188.193,55.702,188.661,55.754,189.077,55.807z"/>
	<path fill="#010101" d="M213.169,62.102c0,1.769-0.572,9.885-0.572,11.55c0,1.144,0.312,1.56,1.197,1.56
		c0.364,0,0.728-0.051,1.353-0.208l0.52,0.417l-0.624,3.641c-1.041,0.677-2.237,1.146-3.798,1.302
		c-2.082-0.208-3.538-1.51-4.006-3.799h-0.364c-1.613,1.718-3.382,3.07-5.359,3.851c-4.995-0.052-8.012-2.81-8.012-7.232
		c0-3.486,1.821-5.411,5.358-6.087l7.96-1.509v-2.133c0-2.29-1.092-3.381-3.33-3.381c-2.185,0-4.474,0.936-7.439,3.018l-0.521-0.312
		l-0.78-4.579c3.018-1.925,6.556-2.914,9.886-2.914C209.944,55.286,213.169,57.783,213.169,62.102z M201.255,70.27
		c-1.092,0.26-1.612,0.833-1.612,2.186c0,1.821,1.041,2.861,2.757,2.861c1.457,0,2.861-0.885,4.266-2.393l0.104-3.851L201.255,70.27
		z"/>
</g>
<g>
	<rect x="85.636" y="103.657" fill="#010101" width="33.483" height="4.957"/>
</g>
<g>
	<rect x="61.557" y="122.989" fill="#010101" width="55.885" height="4.957"/>
</g>
<g>
	<rect x="123.344" y="122.989" fill="#010101" width="13.339" height="4.957"/>
</g>
<g>
	<rect x="61.117" y="103.657" fill="#010101" width="17.055" height="4.957"/>
</g>
<g>
	<rect x="151.004" y="122.989" fill="#010101" width="13.605" height="4.957"/>
</g>
<g>
	<rect x="185.99" y="122.989" fill="#010101" width="11.758" height="4.957"/>
</g>
<g>
	<rect x="156.338" y="103.61" fill="#010101" width="11.954" height="4.957"/>
</g>
<g>
	<rect x="183.187" y="103.61" fill="#010101" width="6.826" height="4.957"/>
</g>
<g>
	<rect x="211.893" y="103.61" fill="#010101" width="6.827" height="4.957"/>
</g>
<g>
	<rect x="39.867" y="122.989" fill="#010101" width="12.799" height="4.957"/>
</g>
<g>
	
		<rect x="40.956" y="103.675" transform="matrix(0.9998 0.0213 -0.0213 0.9998 2.2721 -0.9664)" fill="#010101" width="11.07" height="4.956"/>
</g>
<g>
	<rect x="128.329" y="103.741" fill="#010101" width="17.3" height="4.956"/>
</g>
<g>
	<rect x="23.676" y="122.989" fill="#010101" width="6.171" height="4.957"/>
</g>
<g>
	<rect x="26.08" y="103.61" fill="#010101" width="6.172" height="4.957"/>
</g>
<g>
	<rect x="6.712" y="103.61" fill="#010101" width="6.172" height="4.957"/>
</g>
<g>
	<rect x="84.718" y="27.369" fill="#010101" width="31.269" height="4.956"/>
</g>
<g>
	<rect x="52.666" y="8.044" fill="#010101" width="20.018" height="4.956"/>
</g>
<g>
	<rect x="56.039" y="27.374" fill="#010101" width="13.605" height="4.956"/>
</g>
<g>
	<rect x="37.794" y="27.374" fill="#010101" width="6.825" height="4.956"/>
</g>
<g>
	<rect x="6.384" y="27.374" fill="#010101" width="6.827" height="4.956"/>
</g>
<g>
	<rect x="125.845" y="27.369" fill="#010101" width="39.568" height="4.956"/>
</g>
<g>
	<rect x="132.569" y="8.044" fill="#010101" width="17.3" height="4.956"/>
</g>
<g>
	<rect x="79.704" y="8.044" fill="#010101" width="13.297" height="4.956"/>
</g>
<g>
	<rect x="156.31" y="8.044" fill="#010101" width="11.127" height="4.956"/>
</g>
<g>
	<rect x="173.291" y="27.374" fill="#010101" width="7.521" height="4.956"/>
</g>
<g>
	<rect x="173.291" y="8.044" fill="#010101" width="7.521" height="4.956"/>
</g>
<g>
	<rect x="197.441" y="8.044" fill="#010101" width="6.171" height="4.956"/>
</g>
<g>
	<rect x="186.928" y="27.374" fill="#010101" width="6.171" height="4.956"/>
</g>
<g>
	<rect x="207.821" y="27.374" fill="#010101" width="6.17" height="4.956"/>
</g>
<g>
	<rect x="101.548" y="8.044" fill="#010101" width="27.413" height="4.956"/>
</g>
<g>
	<rect x="26.63" y="8.044" fill="#010101" width="6.827" height="4.956"/>
</g>
</svg>
