<?xml version="1.0" encoding="utf-8"?>
<!-- Generator: Adobe Illustrator 16.0.0, SVG Export Plug-In . SVG Version: 6.00 Build 0)  -->
<!DOCTYPE svg PUBLIC "-//W3C//DTD SVG 1.1//EN" "http://www.w3.org/Graphics/SVG/1.1/DTD/svg11.dtd">
<svg version="1.1" id="Layer_1" xmlns="http://www.w3.org/2000/svg" xmlns:xlink="http://www.w3.org/1999/xlink" x="0px" y="0px"
	 width="108.5px" height="38.25px" viewBox="0 0 108.5 38.25" enable-background="new 0 0 108.5 38.25" xml:space="preserve">
<g>
	<path fill="#3D3D4C" d="M48.321,18.87c0,2.623-1.398,4.054-3.688,4.054c-0.35,0-0.699-0.032-1.064-0.095l0.047,2.876h-2.082
		l0.095-5.992l-0.095-4.197l2.019-0.174l-0.017,1.081h0.112c0.604-0.572,1.112-0.89,1.78-1.145
		C47.32,15.277,48.321,16.628,48.321,18.87z M46.334,19.156c-0.016-1.399-0.478-2.178-1.415-2.178c-0.462,0-0.874,0.207-1.384,0.683
		l-0.016,1.844l0.032,1.796c0.382,0.159,0.763,0.239,1.097,0.239C45.682,21.541,46.35,20.841,46.334,19.156z"/>
	<path fill="#3D3D4C" d="M56.208,17.312c0,0.54-0.176,3.02-0.176,3.528c0,0.35,0.096,0.477,0.366,0.477
		c0.111,0,0.222-0.016,0.413-0.063l0.158,0.127l-0.189,1.112c-0.318,0.208-0.684,0.35-1.16,0.398
		c-0.637-0.063-1.082-0.461-1.225-1.161h-0.111c-0.492,0.525-1.033,0.938-1.637,1.176c-1.527-0.016-2.448-0.858-2.448-2.209
		c0-1.065,0.556-1.653,1.637-1.86l2.433-0.461v-0.651c0-0.7-0.334-1.033-1.018-1.033c-0.668,0-1.367,0.286-2.273,0.922l-0.158-0.096
		L50.58,16.12c0.922-0.588,2.003-0.891,3.021-0.891C55.221,15.229,56.208,15.993,56.208,17.312z M52.567,19.808
		c-0.334,0.079-0.492,0.254-0.492,0.667c0,0.556,0.316,0.875,0.842,0.875c0.445,0,0.875-0.271,1.303-0.731l0.032-1.176
		L52.567,19.808z"/>
	<path fill="#3D3D4C" d="M63.743,15.389v1.955l-0.206,0.08c-0.207-0.08-0.413-0.111-0.589-0.111c-0.572,0-1.145,0.349-1.669,1.176
		v1.017l0.111,3.259h-2.114l0.111-3.052l-0.096-4.197l2.02-0.174l-0.016,1.446h0.111c0.556-1.018,1.256-1.431,1.954-1.431
		C63.473,15.357,63.616,15.373,63.743,15.389z"/>
	<path fill="#3D3D4C" d="M69.879,20.937l0.175,0.159l-0.206,1.255c-0.525,0.271-1.081,0.445-1.653,0.509
		c-1.431-0.143-2.146-0.842-2.146-2.099l0.08-1.318l-0.017-2.734h-0.985l-0.079-0.111l0.111-1.161h0.938v-1.224l1.924-0.62
		l0.143,0.127l-0.047,1.717h1.891l0.063,0.111l-0.095,1.161h-1.893l-0.094,3.561c0,0.699,0.254,0.938,0.826,0.938
		C69.132,21.207,69.482,21.127,69.879,20.937z"/>
	<path fill="#3D3D4C" d="M74.332,12.829c0,0.716-0.429,1.177-1.128,1.177c-0.7,0-1.082-0.398-1.082-1.097
		c0-0.7,0.445-1.161,1.161-1.161C73.95,11.748,74.332,12.146,74.332,12.829z M74.252,22.764h-2.114l0.111-3.052l-0.095-4.197
		l2.113-0.174l-0.127,4.164L74.252,22.764z"/>
	<path fill="#3D3D4C" d="M81.2,20.937l0.175,0.159l-0.206,1.255c-0.525,0.271-1.082,0.445-1.654,0.509
		c-1.43-0.143-2.146-0.842-2.146-2.099l0.079-1.318l-0.016-2.734h-0.985l-0.079-0.111l0.111-1.161h0.938v-1.224l1.924-0.62
		l0.143,0.127l-0.047,1.717h1.891l0.063,0.111l-0.095,1.161h-1.893l-0.095,3.561c0,0.699,0.255,0.938,0.826,0.938
		C80.453,21.207,80.802,21.127,81.2,20.937z"/>
	<path fill="#3D3D4C" d="M89.61,20.841c0,0.35,0.096,0.477,0.365,0.477c0.111,0,0.223-0.016,0.414-0.063l0.158,0.127l-0.19,1.112
		c-0.317,0.208-0.699,0.35-1.16,0.398c-0.651-0.063-1.097-0.493-1.271-1.192h-0.159c-0.604,0.588-1.208,0.97-1.859,1.161
		c-1.606,0-2.465-0.763-2.465-2.13l0.049-1.876l-0.08-3.338l2.051-0.174l-0.063,4.689c0,0.73,0.302,1.128,0.953,1.128
		c0.478,0,0.923-0.222,1.384-0.62v-5.023l2.002-0.174L89.61,20.841z"/>
	<path fill="#3D3D4C" d="M97.178,15.389v1.955l-0.207,0.08c-0.207-0.08-0.413-0.111-0.588-0.111c-0.572,0-1.145,0.349-1.67,1.176
		v1.017l0.112,3.259h-2.114l0.111-3.052l-0.096-4.197l2.02-0.174l-0.017,1.446h0.111c0.557-1.018,1.255-1.431,1.955-1.431
		C96.908,15.357,97.051,15.373,97.178,15.389z"/>
	<path fill="#3D3D4C" d="M104.539,17.312c0,0.54-0.175,3.02-0.175,3.528c0,0.35,0.096,0.477,0.365,0.477
		c0.111,0,0.223-0.016,0.414-0.063l0.158,0.127l-0.19,1.112c-0.317,0.208-0.684,0.35-1.16,0.398
		c-0.636-0.063-1.081-0.461-1.224-1.161h-0.111c-0.493,0.525-1.033,0.938-1.638,1.176c-1.526-0.016-2.448-0.858-2.448-2.209
		c0-1.065,0.557-1.653,1.639-1.86l2.432-0.461v-0.651c0-0.7-0.334-1.033-1.018-1.033c-0.668,0-1.367,0.286-2.273,0.922l-0.159-0.096
		l-0.238-1.398c0.922-0.588,2.003-0.891,3.021-0.891C103.553,15.229,104.539,15.993,104.539,17.312z M100.899,19.808
		c-0.334,0.079-0.493,0.254-0.493,0.667c0,0.556,0.317,0.875,0.843,0.875c0.445,0,0.874-0.271,1.304-0.731l0.031-1.176
		L100.899,19.808z"/>
</g>
<g>
	
		<rect x="57.979" y="31.674" fill="#3D3D4C" stroke="#3D3D4C" stroke-width="0.25" stroke-miterlimit="10" width="12.021" height="1.779"/>
</g>
<g>
	
		<rect x="49.176" y="31.674" fill="#3D3D4C" stroke="#3D3D4C" stroke-width="0.25" stroke-miterlimit="10" width="6.123" height="1.779"/>
</g>
<g>
	
		<rect x="83.365" y="31.657" fill="#3D3D4C" stroke="#3D3D4C" stroke-width="0.25" stroke-miterlimit="10" width="4.292" height="1.779"/>
</g>
<g>
	
		<rect x="93.004" y="31.657" fill="#3D3D4C" stroke="#3D3D4C" stroke-width="0.25" stroke-miterlimit="10" width="2.451" height="1.779"/>
</g>
<g>
	
		<rect x="99.822" y="31.657" fill="#3D3D4C" stroke="#3D3D4C" stroke-width="0.25" stroke-miterlimit="10" width="4.648" height="1.779"/>
</g>
<g>
	
		<rect x="41.937" y="31.68" transform="matrix(0.9998 0.0214 -0.0214 0.9998 0.7061 -0.9313)" fill="#3D3D4C" stroke="#3D3D4C" stroke-width="0.25" stroke-miterlimit="10" width="3.976" height="1.779"/>
</g>
<g>
	
		<rect x="73.307" y="31.704" fill="#3D3D4C" stroke="#3D3D4C" stroke-width="0.25" stroke-miterlimit="10" width="6.212" height="1.779"/>
</g>
<g>
	
		<rect x="34.196" y="31.657" fill="#3D3D4C" stroke="#3D3D4C" stroke-width="0.25" stroke-miterlimit="10" width="3.171" height="1.779"/>
</g>
<g>
	
		<rect x="7.081" y="31.657" fill="#3D3D4C" stroke="#3D3D4C" stroke-width="0.25" stroke-miterlimit="10" width="12.5" height="1.779"/>
</g>
<g>
	
		<rect x="22.259" y="31.657" fill="#3D3D4C" stroke="#3D3D4C" stroke-width="0.25" stroke-miterlimit="10" width="7.571" height="1.779"/>
</g>
<g>
	
		<rect x="65.047" y="5.155" fill="#3D3D4C" stroke="#3D3D4C" stroke-width="0.25" stroke-miterlimit="10" width="4.477" height="1.779"/>
</g>
<g>
	
		<rect x="38.472" y="5.155" fill="#3D3D4C" stroke="#3D3D4C" stroke-width="0.25" stroke-miterlimit="10" width="8.362" height="1.779"/>
</g>
<g>
	
		<rect x="77.373" y="5.155" fill="#3D3D4C" stroke="#3D3D4C" stroke-width="0.25" stroke-miterlimit="10" width="4.292" height="1.779"/>
</g>
<g>
	
		<rect x="83.736" y="5.155" fill="#3D3D4C" stroke="#3D3D4C" stroke-width="0.25" stroke-miterlimit="10" width="10.874" height="1.779"/>
</g>
<g>
	
		<rect x="96.5" y="5.155" fill="#3D3D4C" stroke="#3D3D4C" stroke-width="0.25" stroke-miterlimit="10" width="7.494" height="1.779"/>
</g>
<g>
	
		<rect x="72.831" y="5.155" fill="#3D3D4C" stroke="#3D3D4C" stroke-width="0.25" stroke-miterlimit="10" width="3.106" height="1.779"/>
</g>
<g>
	
		<rect x="25.333" y="5.155" fill="#3D3D4C" stroke="#3D3D4C" stroke-width="0.25" stroke-miterlimit="10" width="11.558" height="1.779"/>
</g>
<g>
	
		<rect x="6.604" y="5.155" fill="#3D3D4C" stroke="#3D3D4C" stroke-width="0.25" stroke-miterlimit="10" width="12.5" height="1.779"/>
</g>
<g>
	
		<rect x="21.783" y="5.155" fill="#3D3D4C" stroke="#3D3D4C" stroke-width="0.25" stroke-miterlimit="10" width="2.384" height="1.779"/>
</g>
<g>
	
		<rect x="49.176" y="5.155" fill="#3D3D4C" stroke="#3D3D4C" stroke-width="0.25" stroke-miterlimit="10" width="7.015" height="1.779"/>
</g>
<g>
	
		<rect x="59.276" y="5.155" fill="#3D3D4C" stroke="#3D3D4C" stroke-width="0.25" stroke-miterlimit="10" width="3.106" height="1.779"/>
</g>
</svg>
