<?xml version="1.0" encoding="utf-8"?>
<!-- Generator: Adobe Illustrator 18.0.0, SVG Export Plug-In . SVG Version: 6.00 Build 0)  -->
<!DOCTYPE svg PUBLIC "-//W3C//DTD SVG 1.1//EN" "http://www.w3.org/Graphics/SVG/1.1/DTD/svg11.dtd">
<svg version="1.1" id="Layer_1" xmlns="http://www.w3.org/2000/svg" xmlns:xlink="http://www.w3.org/1999/xlink" x="0px" y="0px"
	 viewBox="0 0 384.1 126" enable-background="new 0 0 384.1 126" xml:space="preserve">
<g>
	<path fill="#FFFFFF" d="M79.7,65c-4.3,0-4.6-0.8-4.6-4.5V33.3c0-2.9,1.1-3.6,4.7-3.6v-1.8l-5.8,0.1h-3.8l-5.5-0.1v1.8
		c4.1,0,4.8,1.1,4.8,4v26.9c0,3.4-0.4,4.4-4.8,4.4v1.8l5.5-0.2h3.8l5.7,0.2V65z"/>
	<path fill="#FFFFFF" d="M102.3,43.7c-5.5-3-9.8-5.9-7.5-11.1c1.1-2.4,4.2-3.7,7.3-3.4c3.6,0.4,5.6,1.2,6.5,5.8h2l-0.5-7.1
		c-15.6-3.3-21.3,3.1-20.9,9.8c0.3,5.4,4,8.6,9.8,11.5c4.4,2.2,6.6,3.9,7.5,7.3c1,3.6-2.1,9.5-7.7,9.3c-5-0.2-7.6-2.2-8.2-8h-2
		l0.3,8c13.2,6,23.5-2,23.7-8.9C112.7,52.6,111.4,48.7,102.3,43.7z"/>
	<path fill="#FFFFFF" d="M234.2,26.8c-11.3,0-20.4,9.1-20.4,20.4c0,11.3,9.1,20.5,20.4,20.5c11.4,0,20.5-9.2,20.5-20.5
		C254.7,35.9,245.6,26.8,234.2,26.8z M236.6,65.1c-7.7,1-14.9-6.2-16.1-16.1c-1.3-9.9,3.7-18.6,11.3-19.6c7.7-1,14.9,6.2,16.1,16
		C249.3,55.3,244.2,64.1,236.6,65.1z"/>
	<path fill="#FFFFFF" d="M180.4,17.1c2.5,0,4.3,3.2,7.1,3.2c3,0,4.4-1.8,4.4-5v-1.4h-2.3c0,0.9-0.2,2.6-2.3,2.6
		c-2,0-4.2-3.2-7.2-3.2c-2.6,0-4.3,1.8-4.3,5.3v1.1h2.3C178.1,18.9,178.7,17.1,180.4,17.1z"/>
	<rect x="270.7" y="10.9" fill="#FFFFFF" width="3.6" height="70.8"/>
	<path fill="#FFFFFF" d="M153.9,63.4l-0.7-1.9c-21.7,8.8-26-6.6-26.1-14.5c7.1-0.1,17.7-0.2,24.4-0.1c1.3,0,2,0.4,2.1-2.4
		c0.3-8.9-5.8-17.1-15.8-16.9c-9.2,0.1-17.2,8-17.2,20.9C120.7,59.5,130,74.8,153.9,63.4z M137.5,30.1c6.1-0.2,10.3,6,10.1,10.7
		c-0.1,2.8-1.6,3.3-7.9,3.3h-12.6C127.1,36.2,131.9,30.3,137.5,30.1z"/>
	<path fill="#FFFFFF" d="M332.4,27.8c-2,0-5.3,0.2-5.9,0.2c-0.1,0-3.3-0.2-6-0.2c-0.7,0-1.1,0.1-1.1,0.5c0,0.4,0.3,0.5,0.9,0.5
		c0.6,0,1.5,0.1,1.9,0.2c1.7,0.4,2.1,1.2,2.2,3c0.1,1.7,0.1,3.1,0.1,11v6.5c0,5.4-0.2,10-3,12.9c-2.1,2.1-4.9,2.8-7.2,2.8
		c-1.8,0-4.2-0.2-6.5-2.1c-2.5-2.1-4.1-5.2-4.1-12.8v-7.3c0-7.9,0-9.4,0.1-11c0.1-1.8,0.5-2.7,1.9-3c0.6-0.1,0.9-0.2,1.5-0.2
		c0.5,0,0.8-0.1,0.8-0.5c0-0.4-0.4-0.5-1.1-0.5c-1.9,0-5.1,0.2-6.4,0.2c-1.6,0-4.8-0.2-7.6-0.2c-0.8,0-1.1,0.1-1.1,0.5
		c0,0.4,0.3,0.5,0.9,0.5c0.7,0,1.6,0.1,2,0.2c1.7,0.4,2.1,1.2,2.2,3c0.1,1.7,0.1,3.1,0.1,11v7.6c0,7.5,2,11.4,4.6,13.8
		c3.8,3.4,8.8,3.6,11.5,3.6c3.4,0,7.1-0.6,10.8-3.7c4.4-3.7,4.9-9.9,4.9-15.6v-5.6c0-7.9,0-9.4,0.1-11c0.1-1.8,0.5-2.7,1.9-3
		c0.6-0.1,0.9-0.2,1.5-0.2c0.6,0,0.9-0.1,0.9-0.5C333.5,27.9,333.1,27.8,332.4,27.8z"/>
	<path fill="#FFFFFF" d="M162.7,65v1.8l5.3-0.2h3.8l5.3,0.2V65c-4.9,0-5.7-1-5.7-7.9V36.3c2.1,3.4,24.2,27,27.3,30.7h2.7V35.2
		c0-4.4,0.5-5.6,4.8-5.6v-1.8l-4.9,0.1h-3.9l-5-0.1v1.8c4,0,5.4,1.2,5.4,5.4v22.5c-2-3.2-23.7-26.2-26.4-29.6h-4.8l-5.1-0.1v1.8
		c5.2,0,6.3,1.1,6.3,6.6v20.6C167.9,63.8,167.2,65,162.7,65z"/>
	<path fill="#FFFFFF" d="M373.6,57.4c-0.4,0-0.5,0.2-0.7,1c-0.2,0.9-0.9,2.4-1.8,3.4c-2.1,2.4-4.9,2.9-9.5,2.9
		c-7,0-16.4-6.1-16.4-18.5c0-5,1-10,4.8-13.5c2.3-2.1,5.2-3.2,9.8-3.2c4.8,0,8.8,1.4,10.5,3.2c1.3,1.4,2,3.2,2,4.8
		c0,0.7,0.1,1.1,0.5,1.1c0.5,0,0.6-0.4,0.6-1.2c0.1-1,0.1-3.9,0.2-5.6c0.1-1.8,0.3-2.4,0.3-2.9c0-0.3-0.2-0.6-0.8-0.6
		c-1.6-0.2-3.2-0.6-5.2-0.9c-2.4-0.3-4.3-0.5-7.5-0.5c-7.7,0-12.7,2.1-16.4,5.5c-5,4.6-6.1,10.7-6.1,14.2c0,5,1.4,10.9,6.4,15.3
		c4.7,4.1,10.7,5.7,17.8,5.7c3.3,0,7.3-0.4,9.4-1.2c0.9-0.4,1.1-0.6,1.4-1.5c0.5-1.8,1.1-6.3,1.1-6.9
		C374.1,57.8,374,57.4,373.6,57.4z"/>
	<path fill="#FFFFFF" d="M34.4,27.8l-9,0.1l-7.9-0.1v1.8c3.5,0,4.7,0.2,4.7,3.5v27.1c0,3.6-0.4,4.8-4.7,4.8v1.8l8.8-0.2l9.4,0.2
		c11.4,0.2,22.4-7.9,20.9-21C55.1,32.1,44.5,27.7,34.4,27.8z M35.2,64.6c-5.2,0-7.4-0.7-7.4-5.3v-29c2.9-0.2,4.1-0.2,6.4-0.2
		c9.6,0,16.2,7.2,16.3,17.7C50.7,58.6,42.3,64.6,35.2,64.6z"/>
	<path fill="#FFFFFF" d="M133.2,87c-0.1-0.2-0.2-0.4-0.4-0.6c-0.1-0.1-0.3-0.3-0.6-0.4c-0.2-0.1-0.5-0.2-0.9-0.2
		c-0.4,0-0.8,0.1-1.1,0.3c-0.4,0.2-0.7,0.4-0.9,0.7c-0.3,0.3-0.5,0.7-0.6,1.1c-0.2,0.4-0.2,0.9-0.2,1.4c0,0.5,0.1,1,0.2,1.5
		c0.1,0.5,0.3,0.8,0.6,1.2c0.2,0.3,0.5,0.6,0.9,0.8c0.4,0.2,0.8,0.3,1.2,0.3c0.5,0,0.8-0.1,1.2-0.3c0.3-0.2,0.6-0.5,0.8-0.8l0.6,1
		h0.5V82.4h-1.2V87z M133.2,89.7c0,0.3,0,0.7-0.1,1c-0.1,0.3-0.2,0.6-0.3,0.8c-0.2,0.2-0.3,0.4-0.6,0.6c-0.2,0.1-0.5,0.2-0.8,0.2
		c-0.3,0-0.6-0.1-0.8-0.3c-0.2-0.2-0.4-0.4-0.5-0.7c-0.1-0.3-0.2-0.6-0.3-1c-0.1-0.4-0.1-0.7-0.1-1.1c0-0.3,0-0.7,0.1-1
		c0.1-0.3,0.2-0.7,0.3-0.9c0.2-0.3,0.4-0.5,0.6-0.7c0.2-0.2,0.5-0.3,0.9-0.3c0.2,0,0.4,0.1,0.6,0.2c0.2,0.1,0.4,0.3,0.5,0.6
		c0.1,0.2,0.2,0.5,0.3,0.8c0.1,0.3,0.1,0.6,0.1,1V89.7z"/>
	<path fill="#FFFFFF" d="M111.5,86.4c-0.2-0.1-0.4-0.3-0.8-0.4c-0.3-0.1-0.7-0.2-1.1-0.2c-0.5,0-0.9,0.1-1.3,0.3
		c-0.4,0.2-0.7,0.5-1,0.8c-0.3,0.3-0.5,0.7-0.6,1.2c-0.1,0.4-0.2,0.9-0.2,1.4c0,0.4,0.1,0.9,0.2,1.3c0.1,0.4,0.3,0.8,0.6,1.1
		c0.2,0.3,0.6,0.6,0.9,0.8c0.4,0.2,0.8,0.3,1.3,0.3c0.4,0,0.8-0.1,1.1-0.2c0.3-0.1,0.5-0.3,0.7-0.4c0.2-0.2,0.4-0.4,0.5-0.7
		l-0.3-0.3c-0.1,0.2-0.3,0.3-0.5,0.5c-0.2,0.1-0.4,0.2-0.6,0.3c-0.3,0.1-0.6,0.1-0.9,0.1c-0.4,0-0.6-0.1-0.9-0.3
		c-0.2-0.2-0.4-0.5-0.5-0.8c-0.1-0.3-0.2-0.6-0.3-1c0-0.4-0.1-0.7-0.1-1h4.1l0.1-2.3C112,86.7,111.8,86.5,111.5,86.4z M111,88.2
		c0,0.1,0,0.2,0,0.2c0,0.1,0,0.2,0,0.2h-3c0-0.3,0.1-0.6,0.2-0.8c0.1-0.3,0.2-0.5,0.3-0.7c0.1-0.2,0.3-0.4,0.5-0.5
		c0.2-0.1,0.4-0.2,0.7-0.2c0.3,0,0.5,0,0.7,0.1c0.2,0.1,0.3,0.2,0.4,0.3c0.1,0.1,0.2,0.3,0.2,0.5c0,0.2,0,0.4,0,0.5V88.2z"/>
	<path fill="#FFFFFF" d="M141.4,92.4c0-0.1,0-0.2,0-0.3v-4.2c0-0.4,0-0.7-0.1-1c-0.1-0.3-0.2-0.5-0.3-0.6c-0.2-0.1-0.3-0.2-0.6-0.3
		c-0.2-0.1-0.5-0.1-0.8-0.1c-0.4,0-0.7,0-1.1,0.1c-0.4,0.1-0.7,0.1-1,0.2c-0.3,0.1-0.6,0.2-0.9,0.3l0.2,0.8c0.3-0.1,0.6-0.2,0.8-0.3
		c0.2-0.1,0.5-0.1,0.8-0.2c0.3-0.1,0.5-0.1,0.8-0.1c0.2,0,0.4,0,0.5,0.1c0.1,0.1,0.2,0.2,0.3,0.3c0.1,0.1,0.1,0.3,0.1,0.4
		c0,0.2,0,0.3,0,0.5v1.1l-1.2,0.2c-0.4,0.1-0.7,0.1-1.1,0.2c-0.3,0.1-0.6,0.2-0.9,0.4c-0.3,0.2-0.5,0.4-0.6,0.6
		c-0.2,0.3-0.2,0.6-0.2,1c0,0.6,0.1,1,0.4,1.3c0.3,0.3,0.6,0.4,1,0.4c0.3,0,0.6-0.1,0.9-0.2c0.3-0.1,0.6-0.2,0.8-0.4
		c0.3-0.2,0.6-0.3,0.9-0.5c0,0.2,0,0.3,0,0.5c0,0.1,0,0.2,0.1,0.3c0,0.1,0.1,0.2,0.1,0.2h1c0,0,0-0.1-0.1-0.2
		C141.4,92.6,141.4,92.5,141.4,92.4z M140.2,91.4c-0.3,0.2-0.5,0.3-0.8,0.4c-0.2,0.1-0.4,0.2-0.7,0.3c-0.2,0.1-0.5,0.1-0.6,0.1
		c-0.2,0-0.3-0.1-0.5-0.2c-0.1-0.1-0.2-0.4-0.2-0.7c0-0.3,0-0.5,0.1-0.7c0.1-0.2,0.2-0.3,0.4-0.4c0.2-0.1,0.3-0.2,0.6-0.3
		c0.2-0.1,0.4-0.1,0.7-0.2l1-0.2V91.4z"/>
	<path fill="#FFFFFF" d="M126,81.8c-0.2,0-0.4,0.1-0.6,0.2c-0.2,0.2-0.2,0.3-0.2,0.6c0,0.2,0.1,0.4,0.2,0.6c0.2,0.2,0.3,0.2,0.6,0.2
		c0.2,0,0.4-0.1,0.6-0.2c0.2-0.2,0.2-0.3,0.2-0.6c0-0.2-0.1-0.4-0.2-0.6C126.4,81.9,126.2,81.8,126,81.8z"/>
	<path fill="#FFFFFF" d="M121.9,88.9c-0.2-0.1-0.4-0.1-0.6-0.2c-0.2-0.1-0.5-0.1-0.7-0.2c-0.2-0.1-0.4-0.2-0.5-0.4
		c-0.1-0.1-0.2-0.3-0.2-0.6c0-0.4,0.1-0.6,0.4-0.8c0.3-0.2,0.6-0.3,1-0.3c0.2,0,0.4,0,0.6,0.1c0.2,0.1,0.3,0.1,0.4,0.2
		c0.1,0.1,0.3,0.2,0.4,0.3l0.4-0.5c-0.1-0.1-0.3-0.2-0.4-0.3c-0.2-0.1-0.3-0.1-0.6-0.2c-0.2-0.1-0.5-0.1-0.8-0.1
		c-0.3,0-0.6,0-0.9,0.1c-0.3,0.1-0.5,0.2-0.7,0.4c-0.2,0.2-0.4,0.4-0.5,0.6c-0.1,0.3-0.2,0.6-0.2,0.9c0,0.3,0.1,0.5,0.2,0.8
		c0.1,0.2,0.2,0.4,0.4,0.5c0.2,0.2,0.4,0.3,0.6,0.4c0.2,0.1,0.4,0.2,0.7,0.3c0.2,0.1,0.4,0.1,0.6,0.2c0.2,0.1,0.4,0.2,0.5,0.3
		c0.2,0.1,0.3,0.2,0.4,0.4c0.1,0.1,0.1,0.3,0.1,0.5c0,0.2,0,0.4-0.1,0.6c-0.1,0.2-0.2,0.3-0.4,0.4c-0.1,0.1-0.3,0.2-0.5,0.2
		c-0.2,0-0.4,0.1-0.6,0.1c-0.2,0-0.4,0-0.6-0.1c-0.2-0.1-0.3-0.1-0.4-0.2c-0.1-0.1-0.2-0.2-0.3-0.3l-0.6,0.4
		c0.1,0.2,0.2,0.3,0.4,0.5c0.2,0.1,0.4,0.2,0.6,0.3c0.2,0.1,0.6,0.1,0.9,0.1c0.3,0,0.6,0,0.9-0.1c0.3-0.1,0.6-0.2,0.8-0.4
		c0.2-0.2,0.4-0.4,0.5-0.7c0.1-0.3,0.2-0.6,0.2-1c0-0.5-0.1-0.9-0.4-1.2C122.8,89.3,122.4,89.1,121.9,88.9z"/>
	<path fill="#FFFFFF" d="M116.2,86.6c-0.2,0.2-0.4,0.5-0.6,0.7c-0.2,0.3-0.3,0.6-0.5,0.8v-2.4l-1.1,0.6v6.5h1.1v-3.5
		c0.2-0.5,0.5-0.9,0.7-1.3c0.2-0.3,0.5-0.6,0.8-0.9c0.3-0.3,0.6-0.4,0.9-0.4h0.4v-1c-0.3,0-0.7,0.1-0.9,0.2
		C116.7,86.2,116.4,86.3,116.2,86.6z"/>
	<rect x="125.4" y="86" fill="#FFFFFF" width="1.1" height="6.8"/>
	<polygon fill="#FFFFFF" points="103.4,90.4 103,91.6 102.6,90.2 101.1,86 99.8,86 102.6,92.9 103.2,92.9 105.8,86 105,86 	"/>
	<path fill="#FFFFFF" d="M85.7,88c0,0.5,0,1-0.1,1.5c-0.1,0.5-0.2,1-0.4,1.4c-0.2,0.4-0.5,0.8-0.8,1c-0.4,0.3-0.9,0.4-1.5,0.4
		c-0.4,0-0.8-0.1-1-0.2c-0.3-0.1-0.5-0.3-0.7-0.6c-0.2-0.2-0.3-0.5-0.4-0.8c-0.1-0.3-0.1-0.6-0.2-0.9c0-0.3,0-0.6,0-1V88v-4.9h-1.3
		v5.2c0,0.9,0.1,1.6,0.2,2.2c0.1,0.6,0.3,1.1,0.6,1.4c0.3,0.4,0.7,0.6,1.1,0.8c0.5,0.2,1,0.2,1.7,0.2c0.7,0,1.3-0.1,1.8-0.4
		c0.5-0.3,0.8-0.6,1.1-1.1c0.3-0.4,0.4-0.9,0.5-1.5c0.1-0.6,0.1-1.1,0.1-1.7v-5.2h-0.8V88z"/>
	<path fill="#FFFFFF" d="M30.9,86.8c-0.3-0.3-0.6-0.5-0.9-0.7c-0.4-0.2-0.8-0.2-1.2-0.2c-0.4,0-0.8,0.1-1.2,0.3
		c-0.4,0.2-0.7,0.4-1,0.7c-0.3,0.3-0.5,0.7-0.7,1.1c-0.2,0.4-0.2,0.9-0.2,1.5c0,0.5,0.1,1,0.2,1.5c0.2,0.4,0.4,0.8,0.6,1.1
		c0.3,0.3,0.6,0.5,1,0.7c0.4,0.2,0.8,0.3,1.2,0.3c0.5,0,0.9-0.1,1.3-0.3c0.4-0.2,0.7-0.4,1-0.8c0.3-0.3,0.5-0.7,0.6-1.2
		c0.2-0.5,0.2-0.9,0.2-1.5c0-0.5-0.1-1-0.2-1.4C31.3,87.4,31.1,87.1,30.9,86.8z M30.4,90.4c-0.1,0.3-0.2,0.7-0.3,1
		c-0.1,0.3-0.3,0.5-0.5,0.7c-0.2,0.2-0.5,0.3-0.8,0.3c-0.3,0-0.6-0.1-0.8-0.3c-0.2-0.2-0.4-0.4-0.6-0.7c-0.1-0.3-0.3-0.6-0.3-1
		c-0.1-0.4-0.1-0.7-0.1-1.1c0-0.4,0-0.8,0.1-1.1c0.1-0.4,0.2-0.7,0.4-0.9c0.2-0.3,0.3-0.5,0.6-0.6c0.2-0.2,0.4-0.2,0.7-0.2
		c0.3,0,0.6,0.1,0.9,0.3c0.2,0.2,0.4,0.4,0.6,0.7c0.1,0.3,0.2,0.6,0.3,0.9c0.1,0.3,0.1,0.7,0.1,1C30.5,89.7,30.4,90,30.4,90.4z"/>
	<path fill="#FFFFFF" d="M38.4,85.9c-0.2-0.1-0.4-0.1-0.7-0.1c-0.5,0-0.9,0.1-1.3,0.3c-0.4,0.2-0.7,0.5-0.9,0.7
		c-0.3,0.3-0.5,0.7-0.8,1.1v-2.2l-1.1,0.6v6.5h1.1v-3.7c0.2-0.5,0.5-0.9,0.7-1.2c0.2-0.3,0.5-0.6,0.8-0.9c0.3-0.3,0.6-0.4,1-0.4
		c0.4,0,0.6,0.1,0.7,0.3c0.1,0.2,0.2,0.5,0.2,0.8v5.1h1.1v-6.4c-0.1-0.1-0.2-0.2-0.4-0.3C38.7,86.1,38.6,86,38.4,85.9z"/>
	<path fill="#FFFFFF" d="M62.3,91.8c-0.2,0.1-0.4,0.2-0.6,0.3c-0.2,0.1-0.5,0.2-0.9,0.2c-0.4,0-0.7-0.1-0.9-0.3
		c-0.2-0.2-0.4-0.4-0.5-0.7c-0.1-0.3-0.2-0.6-0.3-0.9c-0.1-0.3-0.1-0.7-0.1-1c0-0.4,0-0.7,0.1-1.1c0.1-0.4,0.2-0.7,0.3-1
		c0.2-0.3,0.4-0.5,0.6-0.7c0.3-0.2,0.6-0.3,1-0.3c0.2,0,0.4,0,0.5,0.1c0.2,0.1,0.3,0.1,0.4,0.2c0.1,0.1,0.3,0.2,0.4,0.3l0.6-0.4
		c-0.1-0.1-0.3-0.3-0.5-0.4c-0.2-0.1-0.4-0.2-0.7-0.3c-0.3-0.1-0.6-0.1-1-0.1c-0.5,0-0.9,0.1-1.3,0.3c-0.4,0.2-0.7,0.5-1,0.8
		c-0.3,0.3-0.5,0.7-0.6,1.2c-0.1,0.4-0.2,0.9-0.2,1.4c0,0.4,0.1,0.9,0.2,1.3c0.1,0.4,0.3,0.8,0.6,1.1c0.3,0.3,0.6,0.6,1,0.8
		c0.4,0.2,0.9,0.3,1.4,0.3c0.4,0,0.7-0.1,1-0.2c0.3-0.1,0.5-0.3,0.7-0.5c0.2-0.2,0.4-0.4,0.6-0.7l-0.3-0.3
		C62.7,91.5,62.5,91.7,62.3,91.8z"/>
	<path fill="#FFFFFF" d="M55.4,82.1c-0.2-0.1-0.5-0.3-0.8-0.4c-0.3-0.1-0.7-0.2-1.2-0.2c-1,0-1.8,0.3-2.4,0.9
		c-0.6,0.6-0.8,1.4-0.8,2.5V86H49v0.6h1.3v6.3h1.1v-6.3h2.1V86h-2v-0.8c0-0.4,0-0.8,0.1-1.2c0.1-0.4,0.2-0.7,0.3-1
		c0.1-0.3,0.3-0.5,0.6-0.7c0.2-0.2,0.6-0.3,0.9-0.3c0.4,0,0.7,0.1,0.9,0.2c0.2,0.2,0.3,0.3,0.4,0.5c0.1,0.2,0.1,0.5,0.1,0.8h1.2
		l0.1-1C55.9,82.4,55.7,82.2,55.4,82.1z"/>
	<path fill="#FFFFFF" d="M97.8,81.8c-0.2,0-0.4,0.1-0.6,0.2c-0.2,0.2-0.2,0.3-0.2,0.6c0,0.2,0.1,0.4,0.2,0.6
		c0.2,0.2,0.3,0.2,0.6,0.2c0.2,0,0.4-0.1,0.6-0.2c0.2-0.2,0.2-0.3,0.2-0.6c0-0.2-0.1-0.4-0.2-0.6C98.2,81.9,98,81.8,97.8,81.8z"/>
	<rect x="64.8" y="86" fill="#FFFFFF" width="1.1" height="6.8"/>
	<rect x="54.7" y="86" fill="#FFFFFF" width="1" height="6.8"/>
	<path fill="#FFFFFF" d="M46.8,81.8c-0.2,0-0.4,0.1-0.6,0.2C46,82.2,46,82.4,46,82.6c0,0.2,0.1,0.4,0.2,0.6c0.2,0.2,0.3,0.2,0.6,0.2
		c0.2,0,0.4-0.1,0.6-0.2c0.2-0.2,0.2-0.3,0.2-0.6c0-0.2-0.1-0.4-0.2-0.6C47.2,81.9,47,81.8,46.8,81.8z"/>
	<rect x="46.2" y="86" fill="#FFFFFF" width="1.1" height="6.8"/>
	<path fill="#FFFFFF" d="M23.7,84c-0.3-0.2-0.6-0.4-1-0.6c-0.4-0.2-0.8-0.2-1.3-0.2h-3.1v9.7h1.3v-9.1h1.4c0.4,0,0.6,0.1,0.9,0.2
		c0.2,0.1,0.5,0.3,0.6,0.4c0.2,0.2,0.3,0.4,0.4,0.6c0.1,0.2,0.1,0.5,0.1,0.7c0,0.6-0.2,1.1-0.5,1.5c-0.4,0.4-0.9,0.6-1.6,0.6v0.5
		c1.2,0,2-0.2,2.6-0.7c0.6-0.5,0.9-1.1,0.9-1.8c0-0.3-0.1-0.6-0.2-0.9C24.2,84.5,24,84.2,23.7,84z"/>
	<rect x="97.2" y="86" fill="#FFFFFF" width="1.1" height="6.8"/>
	<path fill="#FFFFFF" d="M93.9,85.9c-0.2-0.1-0.4-0.1-0.7-0.1c-0.5,0-0.9,0.1-1.3,0.3c-0.4,0.2-0.7,0.5-0.9,0.7
		c-0.3,0.3-0.5,0.7-0.8,1.1v-2.2l-1.1,0.6v6.5h1.1v-3.7c0.2-0.5,0.5-0.9,0.7-1.2c0.2-0.3,0.5-0.6,0.8-0.9c0.3-0.3,0.6-0.4,1-0.4
		c0.4,0,0.6,0.1,0.7,0.3c0.1,0.2,0.2,0.5,0.2,0.8v5.1h1.1v-6.4c-0.1-0.1-0.2-0.2-0.4-0.3C94.3,86.1,94.1,86,93.9,85.9z"/>
	<path fill="#FFFFFF" d="M73,92.4c0-0.1,0-0.2,0-0.3v-4.2c0-0.4,0-0.7-0.1-1c-0.1-0.3-0.2-0.5-0.3-0.6c-0.2-0.1-0.3-0.2-0.6-0.3
		c-0.2-0.1-0.5-0.1-0.8-0.1c-0.4,0-0.7,0-1.1,0.1c-0.4,0.1-0.7,0.1-1,0.2c-0.3,0.1-0.6,0.2-0.9,0.3l0.2,0.8c0.3-0.1,0.6-0.2,0.8-0.3
		c0.2-0.1,0.5-0.1,0.8-0.2c0.3-0.1,0.5-0.1,0.8-0.1c0.2,0,0.4,0,0.5,0.1c0.1,0.1,0.2,0.2,0.3,0.3c0.1,0.1,0.1,0.3,0.1,0.4
		c0,0.2,0,0.3,0,0.5v1.1l-1.2,0.2c-0.4,0.1-0.7,0.1-1.1,0.2c-0.3,0.1-0.6,0.2-0.9,0.4c-0.3,0.2-0.5,0.4-0.6,0.6
		c-0.2,0.3-0.2,0.6-0.2,1c0,0.6,0.1,1,0.4,1.3c0.3,0.3,0.6,0.4,1,0.4c0.3,0,0.6-0.1,0.9-0.2c0.3-0.1,0.6-0.2,0.9-0.4
		c0.3-0.2,0.6-0.3,0.9-0.5c0,0.2,0,0.3,0,0.5c0,0.1,0.1,0.2,0.1,0.3c0,0.1,0.1,0.2,0.1,0.2h1c0,0,0-0.1-0.1-0.2
		C73,92.6,73,92.5,73,92.4z M71.7,91.4c-0.3,0.2-0.5,0.3-0.8,0.4c-0.2,0.1-0.4,0.2-0.7,0.3c-0.2,0.1-0.5,0.1-0.6,0.1
		c-0.2,0-0.3-0.1-0.5-0.2c-0.1-0.1-0.2-0.4-0.2-0.7c0-0.3,0-0.5,0.1-0.7c0.1-0.2,0.2-0.3,0.4-0.4c0.2-0.1,0.3-0.2,0.6-0.3
		c0.2-0.1,0.4-0.1,0.7-0.2l1-0.2V91.4z"/>
	<path fill="#FFFFFF" d="M65.3,81.8c-0.2,0-0.4,0.1-0.6,0.2c-0.2,0.2-0.2,0.3-0.2,0.6c0,0.2,0.1,0.4,0.2,0.6
		c0.2,0.2,0.3,0.2,0.6,0.2c0.2,0,0.4-0.1,0.6-0.2c0.2-0.2,0.2-0.3,0.2-0.6c0-0.2-0.1-0.4-0.2-0.6C65.7,81.9,65.6,81.8,65.3,81.8z"/>
	<path fill="#FFFFFF" d="M43.1,83.7l-0.4,0.2L41.9,86h-1.1v0.6h1.1v5.5c0,0.2,0,0.3,0.1,0.5c0.1,0.1,0.1,0.2,0.2,0.3
		c0.1,0.1,0.2,0.1,0.3,0.1c0.1,0,0.3,0,0.4,0c0.1,0,0.3,0,0.4,0c0.2,0,0.3,0,0.4-0.1c0.2,0,0.3-0.1,0.5-0.1v-0.5c-0.1,0-0.1,0-0.2,0
		c-0.1,0-0.3,0-0.5,0c-0.1,0-0.3,0-0.4,0c-0.1,0-0.2-0.1-0.2-0.2v-5.6h1.2V86h-1.2V83.7z"/>
	<path fill="#FFFFFF" d="M201,92.4c0-0.1,0-0.2,0-0.3v-4.2c0-0.4,0-0.7-0.1-1c-0.1-0.3-0.2-0.5-0.3-0.6c-0.2-0.1-0.3-0.2-0.6-0.3
		c-0.2-0.1-0.5-0.1-0.8-0.1c-0.4,0-0.7,0-1.1,0.1c-0.4,0.1-0.7,0.1-1,0.2c-0.3,0.1-0.6,0.2-0.9,0.3l0.2,0.8c0.3-0.1,0.6-0.2,0.8-0.3
		c0.2-0.1,0.5-0.1,0.8-0.2c0.3-0.1,0.5-0.1,0.8-0.1c0.2,0,0.4,0,0.5,0.1c0.1,0.1,0.2,0.2,0.3,0.3c0.1,0.1,0.1,0.3,0.1,0.4
		c0,0.2,0,0.3,0,0.5v1.1l-1.2,0.2c-0.4,0.1-0.7,0.1-1.1,0.2c-0.3,0.1-0.6,0.2-0.9,0.4c-0.3,0.2-0.5,0.4-0.6,0.6
		c-0.2,0.3-0.2,0.6-0.2,1c0,0.6,0.1,1,0.4,1.3c0.3,0.3,0.6,0.4,1,0.4c0.3,0,0.6-0.1,0.9-0.2c0.3-0.1,0.6-0.2,0.8-0.4
		c0.3-0.2,0.6-0.3,0.9-0.5c0,0.2,0,0.3,0,0.5c0,0.1,0.1,0.2,0.1,0.3c0,0.1,0.1,0.2,0.1,0.2h1c0,0,0-0.1-0.1-0.2
		C201,92.6,201,92.5,201,92.4z M199.8,91.4c-0.3,0.2-0.5,0.3-0.8,0.4c-0.2,0.1-0.4,0.2-0.7,0.3c-0.2,0.1-0.5,0.1-0.6,0.1
		c-0.2,0-0.3-0.1-0.5-0.2c-0.1-0.1-0.2-0.4-0.2-0.7c0-0.3,0-0.5,0.1-0.7c0.1-0.2,0.2-0.3,0.4-0.4c0.2-0.1,0.3-0.2,0.6-0.3
		c0.2-0.1,0.4-0.1,0.7-0.2l1-0.2V91.4z"/>
	<rect x="223.1" y="105.2" fill="#FFFFFF" width="1.2" height="7"/>
	<path fill="#FFFFFF" d="M229.5,108.2c-0.2-0.1-0.4-0.1-0.6-0.2c-0.2-0.1-0.5-0.2-0.7-0.2c-0.2-0.1-0.4-0.2-0.5-0.4
		c-0.2-0.2-0.2-0.3-0.2-0.6c0-0.4,0.1-0.6,0.4-0.8c0.3-0.2,0.6-0.3,1-0.3c0.2,0,0.4,0,0.6,0.1c0.2,0.1,0.3,0.1,0.5,0.2
		c0.1,0.1,0.3,0.2,0.4,0.3l0.5-0.5c-0.1-0.1-0.3-0.2-0.5-0.3c-0.2-0.1-0.3-0.1-0.6-0.2c-0.2-0.1-0.5-0.1-0.8-0.1
		c-0.3,0-0.6,0-0.9,0.1c-0.3,0.1-0.5,0.2-0.7,0.4c-0.2,0.2-0.4,0.4-0.5,0.6c-0.1,0.3-0.2,0.6-0.2,0.9c0,0.3,0.1,0.6,0.2,0.8
		c0.1,0.2,0.2,0.4,0.4,0.6c0.2,0.2,0.4,0.3,0.6,0.4c0.2,0.1,0.5,0.2,0.7,0.3c0.2,0.1,0.4,0.1,0.6,0.2c0.2,0.1,0.4,0.2,0.5,0.3
		c0.2,0.1,0.3,0.2,0.4,0.4c0.1,0.1,0.2,0.3,0.2,0.5c0,0.2,0,0.4-0.1,0.6c-0.1,0.2-0.2,0.3-0.4,0.4c-0.2,0.1-0.3,0.2-0.5,0.2
		c-0.2,0-0.4,0.1-0.6,0.1c-0.2,0-0.5,0-0.6-0.1c-0.2-0.1-0.3-0.1-0.5-0.2c-0.1-0.1-0.3-0.2-0.4-0.3l-0.6,0.4
		c0.1,0.2,0.3,0.3,0.4,0.5c0.2,0.1,0.4,0.2,0.6,0.3c0.3,0.1,0.6,0.1,1,0.1c0.3,0,0.7,0,1-0.1c0.3-0.1,0.6-0.2,0.8-0.4
		c0.2-0.2,0.4-0.4,0.6-0.7c0.1-0.3,0.2-0.6,0.2-1c0-0.5-0.1-1-0.4-1.3C230.3,108.6,230,108.4,229.5,108.2z"/>
	<path fill="#FFFFFF" d="M237.5,105.6c-0.2-0.1-0.5-0.3-0.8-0.4c-0.3-0.1-0.7-0.2-1.2-0.2c-0.5,0-0.9,0.1-1.3,0.3
		c-0.4,0.2-0.7,0.5-1,0.8c-0.3,0.3-0.5,0.7-0.6,1.2c-0.1,0.5-0.2,1-0.2,1.5c0,0.4,0.1,0.9,0.2,1.3c0.1,0.4,0.3,0.8,0.6,1.2
		c0.3,0.3,0.6,0.6,1,0.8c0.4,0.2,0.9,0.3,1.4,0.3c0.4,0,0.8-0.1,1.1-0.2c0.3-0.1,0.6-0.3,0.8-0.5c0.2-0.2,0.4-0.4,0.6-0.7l-0.3-0.3
		c-0.1,0.2-0.3,0.3-0.5,0.5c-0.2,0.1-0.4,0.2-0.6,0.3c-0.3,0.1-0.6,0.2-0.9,0.2c-0.4,0-0.7-0.1-0.9-0.3c-0.2-0.2-0.4-0.5-0.5-0.8
		c-0.1-0.3-0.2-0.7-0.3-1c0-0.4-0.1-0.7-0.1-1.1h4.2l0.1-2.4C238,105.9,237.8,105.7,237.5,105.6z M237,107.4c0,0.1,0,0.2,0,0.2
		c0,0.1,0,0.2,0,0.2h-3.1c0-0.3,0.1-0.6,0.2-0.8c0.1-0.3,0.2-0.5,0.3-0.7c0.1-0.2,0.3-0.4,0.5-0.5c0.2-0.1,0.4-0.2,0.7-0.2
		c0.3,0,0.6,0,0.8,0.1c0.2,0.1,0.3,0.2,0.4,0.4c0.1,0.1,0.2,0.3,0.2,0.5c0,0.2,0,0.4,0,0.6V107.4z"/>
	<path fill="#FFFFFF" d="M227.4,85.1c0.2-0.4,0.5-0.8,0.9-1.1c0.4-0.3,0.9-0.4,1.5-0.4c0.4,0,0.7,0,0.9,0.1c0.3,0.1,0.5,0.1,0.6,0.2
		c0.2,0.1,0.4,0.2,0.5,0.3l0.3-0.7c-0.2-0.1-0.4-0.2-0.6-0.2c-0.2-0.1-0.5-0.1-0.8-0.2c-0.3,0-0.7-0.1-1.2-0.1
		c-0.7,0-1.4,0.1-1.9,0.4c-0.5,0.3-1,0.6-1.3,1.1c-0.4,0.5-0.6,1-0.8,1.6c-0.2,0.6-0.3,1.3-0.3,1.9s0.1,1.3,0.2,1.9
		c0.2,0.6,0.4,1.1,0.8,1.6c0.3,0.5,0.8,0.8,1.3,1.1c0.5,0.3,1.2,0.4,1.9,0.4c0.4,0,0.8,0,1.1-0.1c0.3,0,0.6-0.1,0.8-0.2
		c0.3-0.1,0.5-0.1,0.7-0.2l0.1-0.7c-0.3,0.1-0.5,0.2-0.8,0.3c-0.2,0.1-0.5,0.1-0.8,0.2c-0.3,0.1-0.6,0.1-0.9,0.1
		c-0.6,0-1.1-0.1-1.5-0.4c-0.4-0.3-0.7-0.6-0.9-1c-0.2-0.4-0.4-0.9-0.5-1.4c-0.1-0.5-0.1-1-0.1-1.5c0-0.5,0-1,0.1-1.6
		C227,86,227.2,85.5,227.4,85.1z"/>
	<path fill="#FFFFFF" d="M206.4,105.6c-0.2-0.1-0.5-0.3-0.8-0.4c-0.3-0.1-0.7-0.2-1.2-0.2c-0.5,0-0.9,0.1-1.3,0.3
		c-0.4,0.2-0.7,0.5-1,0.8c-0.3,0.3-0.5,0.7-0.6,1.2c-0.1,0.5-0.2,1-0.2,1.5c0,0.4,0.1,0.9,0.2,1.3c0.1,0.4,0.3,0.8,0.6,1.2
		c0.3,0.3,0.6,0.6,1,0.8c0.4,0.2,0.9,0.3,1.4,0.3c0.4,0,0.8-0.1,1.1-0.2c0.3-0.1,0.6-0.3,0.8-0.5c0.2-0.2,0.4-0.4,0.6-0.7l-0.3-0.3
		c-0.1,0.2-0.3,0.3-0.5,0.5c-0.2,0.1-0.4,0.2-0.7,0.3c-0.3,0.1-0.6,0.2-0.9,0.2c-0.4,0-0.7-0.1-0.9-0.3c-0.2-0.2-0.4-0.5-0.5-0.8
		c-0.1-0.3-0.2-0.7-0.3-1c0-0.4-0.1-0.7-0.1-1.1h4.2l0.1-2.4C206.8,105.9,206.6,105.7,206.4,105.6z M205.8,107.4c0,0.1,0,0.2,0,0.2
		c0,0.1,0,0.2,0,0.2h-3.1c0-0.3,0.1-0.6,0.2-0.8c0.1-0.3,0.2-0.5,0.3-0.7c0.1-0.2,0.3-0.4,0.5-0.5c0.2-0.1,0.4-0.2,0.7-0.2
		c0.3,0,0.6,0,0.8,0.1c0.2,0.1,0.3,0.2,0.4,0.4c0.1,0.1,0.2,0.3,0.2,0.5c0,0.2,0,0.4,0,0.6V107.4z"/>
	<path fill="#FFFFFF" d="M211.4,87c-0.1-0.2-0.2-0.4-0.4-0.6c-0.1-0.1-0.3-0.3-0.6-0.4c-0.2-0.1-0.5-0.2-0.9-0.2
		c-0.4,0-0.8,0.1-1.1,0.3c-0.4,0.2-0.7,0.4-0.9,0.7c-0.3,0.3-0.5,0.7-0.6,1.1c-0.2,0.4-0.2,0.9-0.2,1.4c0,0.5,0.1,1,0.2,1.5
		c0.1,0.5,0.3,0.8,0.6,1.2c0.2,0.3,0.5,0.6,0.9,0.8c0.4,0.2,0.8,0.3,1.2,0.3c0.5,0,0.8-0.1,1.2-0.3c0.3-0.2,0.6-0.5,0.8-0.8l0.6,1
		h0.5V82.4h-1.2V87z M211.4,89.7c0,0.3,0,0.7-0.1,1c-0.1,0.3-0.2,0.6-0.3,0.8c-0.2,0.2-0.3,0.4-0.6,0.6c-0.2,0.1-0.5,0.2-0.8,0.2
		c-0.3,0-0.6-0.1-0.8-0.3c-0.2-0.2-0.4-0.4-0.5-0.7c-0.1-0.3-0.2-0.6-0.3-1c-0.1-0.4-0.1-0.7-0.1-1.1c0-0.3,0-0.7,0.1-1
		c0.1-0.3,0.2-0.7,0.3-0.9c0.2-0.3,0.4-0.5,0.6-0.7c0.3-0.2,0.5-0.3,0.9-0.3c0.2,0,0.4,0.1,0.6,0.2c0.2,0.1,0.4,0.3,0.5,0.6
		c0.1,0.2,0.2,0.5,0.3,0.8c0.1,0.3,0.1,0.6,0.1,1V89.7z"/>
	<path fill="#FFFFFF" d="M219.9,86.9c-0.1-0.2-0.3-0.4-0.6-0.5c-0.2-0.1-0.4-0.3-0.8-0.4c-0.3-0.1-0.7-0.2-1.1-0.2
		c-0.5,0-0.9,0.1-1.3,0.3c-0.4,0.2-0.7,0.5-1,0.8c-0.3,0.3-0.5,0.7-0.6,1.2c-0.1,0.4-0.2,0.9-0.2,1.4c0,0.4,0.1,0.9,0.2,1.3
		c0.1,0.4,0.3,0.8,0.6,1.1c0.2,0.3,0.6,0.6,0.9,0.8c0.4,0.2,0.8,0.3,1.3,0.3c0.4,0,0.8-0.1,1.1-0.2c0.3-0.1,0.5-0.3,0.7-0.4
		c0.2-0.2,0.4-0.4,0.5-0.7l-0.3-0.3c-0.1,0.2-0.3,0.3-0.5,0.5c-0.2,0.1-0.4,0.2-0.6,0.3c-0.2,0.1-0.5,0.1-0.9,0.1
		c-0.4,0-0.7-0.1-0.9-0.3c-0.2-0.2-0.4-0.5-0.5-0.8c-0.1-0.3-0.2-0.6-0.3-1c0-0.4-0.1-0.7-0.1-1h4.1L219.9,86.9z M218.8,88.2
		c0,0.1,0,0.2,0,0.2c0,0.1,0,0.2,0,0.2h-3c0-0.3,0.1-0.6,0.2-0.8c0.1-0.3,0.2-0.5,0.3-0.7c0.1-0.2,0.3-0.4,0.5-0.5
		c0.2-0.1,0.4-0.2,0.7-0.2c0.3,0,0.5,0,0.7,0.1c0.2,0.1,0.3,0.2,0.4,0.3c0.1,0.1,0.2,0.3,0.2,0.5c0,0.2,0,0.4,0,0.5V88.2z"/>
	<path fill="#FFFFFF" d="M219.8,103.6c-0.4-0.4-0.9-0.8-1.5-1c-0.6-0.2-1.3-0.3-2-0.3h-2.9v10h3.3c0.7,0,1.4-0.1,1.9-0.4
		c0.5-0.3,1-0.6,1.3-1.1c0.4-0.5,0.6-1,0.8-1.6c0.2-0.6,0.3-1.3,0.3-1.9c0-0.7-0.1-1.4-0.3-2C220.5,104.6,220.2,104.1,219.8,103.6z
		 M219.3,108.9c-0.1,0.5-0.2,1-0.4,1.4c-0.2,0.4-0.5,0.7-0.9,0.9c-0.4,0.2-1,0.3-1.8,0.3h-1.5v-8.6h1.4c0.7,0,1.3,0.1,1.7,0.3
		c0.4,0.2,0.7,0.5,1,0.8c0.2,0.4,0.4,0.8,0.4,1.3c0.1,0.5,0.1,1.1,0.1,1.7C219.4,107.8,219.4,108.3,219.3,108.9z"/>
	<path fill="#FFFFFF" d="M223.7,100.9c-0.2,0-0.4,0.1-0.6,0.2c-0.2,0.2-0.2,0.4-0.2,0.6c0,0.2,0.1,0.4,0.2,0.6
		c0.2,0.2,0.4,0.2,0.6,0.2c0.2,0,0.4-0.1,0.6-0.2c0.2-0.2,0.2-0.4,0.2-0.6c0-0.2-0.1-0.4-0.2-0.6C224.1,101,223.9,100.9,223.7,100.9
		z"/>
	<rect x="242.1" y="86" fill="#FFFFFF" width="1.1" height="6.8"/>
	<polygon fill="#FFFFFF" points="245.6,92.9 246.8,92.9 246.8,81.7 245.6,82.4 	"/>
	<path fill="#FFFFFF" d="M253.2,106c-0.3-0.3-0.6-0.6-1-0.7c-0.4-0.2-0.8-0.3-1.2-0.3c-0.4,0-0.9,0.1-1.3,0.3
		c-0.4,0.2-0.7,0.4-1,0.8c-0.3,0.3-0.5,0.7-0.7,1.2c-0.2,0.5-0.3,1-0.3,1.5c0,0.6,0.1,1.1,0.2,1.5c0.2,0.4,0.4,0.8,0.7,1.1
		c0.3,0.3,0.6,0.6,1,0.7c0.4,0.2,0.8,0.3,1.2,0.3c0.5,0,0.9-0.1,1.3-0.3c0.4-0.2,0.7-0.5,1-0.8c0.3-0.3,0.5-0.7,0.7-1.2
		c0.2-0.5,0.2-1,0.2-1.5c0-0.5-0.1-1-0.2-1.5C253.7,106.7,253.5,106.3,253.2,106z M252.7,109.7c-0.1,0.4-0.2,0.7-0.3,1
		c-0.1,0.3-0.3,0.5-0.5,0.7c-0.2,0.2-0.5,0.3-0.8,0.3c-0.3,0-0.6-0.1-0.9-0.3c-0.2-0.2-0.4-0.4-0.6-0.7c-0.2-0.3-0.3-0.6-0.3-1
		c-0.1-0.4-0.1-0.7-0.1-1.1c0-0.4,0-0.8,0.1-1.1c0.1-0.4,0.2-0.7,0.4-1c0.2-0.3,0.4-0.5,0.6-0.6c0.2-0.2,0.4-0.2,0.7-0.2
		c0.4,0,0.6,0.1,0.9,0.3c0.2,0.2,0.4,0.4,0.6,0.7c0.1,0.3,0.2,0.6,0.3,1c0.1,0.4,0.1,0.7,0.1,1.1C252.8,109,252.8,109.4,252.7,109.7
		z"/>
	<path fill="#FFFFFF" d="M253.6,86.4c-0.2-0.1-0.4-0.3-0.8-0.4c-0.3-0.1-0.7-0.2-1.1-0.2c-0.5,0-0.9,0.1-1.3,0.3
		c-0.4,0.2-0.7,0.5-1,0.8c-0.3,0.3-0.5,0.7-0.6,1.2c-0.1,0.4-0.2,0.9-0.2,1.4c0,0.4,0.1,0.9,0.2,1.3c0.1,0.4,0.3,0.8,0.6,1.1
		c0.2,0.3,0.6,0.6,0.9,0.8c0.4,0.2,0.8,0.3,1.3,0.3c0.4,0,0.8-0.1,1.1-0.2c0.3-0.1,0.5-0.3,0.7-0.4c0.2-0.2,0.4-0.4,0.5-0.7
		l-0.3-0.3c-0.1,0.2-0.3,0.3-0.5,0.5c-0.2,0.1-0.4,0.2-0.6,0.3c-0.2,0.1-0.5,0.1-0.9,0.1c-0.4,0-0.7-0.1-0.9-0.3
		c-0.2-0.2-0.4-0.5-0.5-0.8c-0.1-0.3-0.2-0.6-0.3-1c0-0.4-0.1-0.7-0.1-1h4.1l0.1-2.3C254,86.7,253.8,86.5,253.6,86.4z M253,88.2
		c0,0.1,0,0.2,0,0.2c0,0.1,0,0.2,0,0.2h-3c0-0.3,0.1-0.6,0.2-0.8c0.1-0.3,0.2-0.5,0.3-0.7c0.1-0.2,0.3-0.4,0.5-0.5
		c0.2-0.1,0.4-0.2,0.7-0.2c0.3,0,0.5,0,0.7,0.1c0.2,0.1,0.3,0.2,0.4,0.3c0.1,0.1,0.2,0.3,0.2,0.5c0,0.2,0,0.4,0,0.5V88.2z"/>
	<path fill="#FFFFFF" d="M243.2,82.1c-0.2-0.2-0.3-0.2-0.6-0.2c-0.2,0-0.4,0.1-0.6,0.2c-0.2,0.2-0.2,0.3-0.2,0.6
		c0,0.2,0.1,0.4,0.2,0.6c0.2,0.2,0.3,0.2,0.6,0.2c0.2,0,0.4-0.1,0.6-0.2c0.2-0.2,0.2-0.3,0.2-0.6C243.4,82.4,243.3,82.2,243.2,82.1z
		"/>
	<path fill="#FFFFFF" d="M238.7,85.9c-0.2-0.1-0.4-0.1-0.7-0.1c-0.5,0-0.9,0.1-1.3,0.3c-0.4,0.2-0.7,0.5-0.9,0.7
		c-0.3,0.3-0.5,0.7-0.8,1.1v-6.2l-1.1,0.6v10.5h1.1v-3.7c0.2-0.5,0.5-0.9,0.7-1.2c0.2-0.3,0.5-0.6,0.8-0.9c0.3-0.3,0.6-0.4,1-0.4
		c0.4,0,0.6,0.1,0.7,0.3c0.1,0.2,0.2,0.5,0.2,0.8v5.1h1.1v-6.4c-0.1-0.1-0.2-0.2-0.4-0.3C239.1,86.1,238.9,86,238.7,85.9z"/>
	<path fill="#FFFFFF" d="M245,105.1c-0.2-0.1-0.4-0.1-0.7-0.1c-0.5,0-0.9,0.1-1.3,0.3c-0.4,0.2-0.7,0.5-0.9,0.8
		c-0.3,0.3-0.6,0.7-0.8,1.1V105l-1.1,0.6v6.7h1.1v-3.8c0.2-0.5,0.5-0.9,0.8-1.3c0.2-0.3,0.5-0.6,0.8-0.9c0.3-0.3,0.6-0.4,1-0.4
		c0.4,0,0.6,0.1,0.7,0.3c0.1,0.2,0.2,0.5,0.2,0.9v5.2h1.2v-6.6c-0.1-0.1-0.2-0.2-0.4-0.3C245.3,105.3,245.2,105.2,245,105.1z"/>
	<polygon fill="#FFFFFF" points="244.3,103 241.7,102 240,103.2 240.2,103.6 241.7,102.9 244.2,103.9 245.9,102.7 245.6,102.3 	"/>
	<path fill="#FFFFFF" d="M144.9,92.7c0.4,0.2,0.8,0.3,1.2,0.3c0.5,0,0.8-0.1,1.2-0.3c0.3-0.2,0.6-0.5,0.8-0.8l0.6,1h0.5V82.4H148V87
		c-0.1-0.2-0.2-0.4-0.4-0.6c-0.1-0.1-0.3-0.3-0.6-0.4c-0.2-0.1-0.5-0.2-0.9-0.2c-0.4,0-0.8,0.1-1.1,0.3c-0.4,0.2-0.7,0.4-0.9,0.7
		c-0.3,0.3-0.5,0.7-0.6,1.1c-0.2,0.4-0.2,0.9-0.2,1.4c0,0.5,0.1,1,0.2,1.5c0.1,0.5,0.3,0.8,0.6,1.2
		C144.2,92.3,144.5,92.5,144.9,92.7z M144.6,88.3c0.1-0.3,0.2-0.7,0.3-0.9c0.2-0.3,0.4-0.5,0.6-0.7c0.2-0.2,0.5-0.3,0.9-0.3
		c0.2,0,0.4,0.1,0.6,0.2c0.2,0.1,0.4,0.3,0.5,0.6c0.1,0.2,0.2,0.5,0.3,0.8c0.1,0.3,0.1,0.6,0.1,1v0.7c0,0.3,0,0.7-0.1,1
		c-0.1,0.3-0.2,0.6-0.3,0.8c-0.2,0.2-0.3,0.4-0.6,0.6c-0.2,0.1-0.5,0.2-0.8,0.2c-0.3,0-0.6-0.1-0.8-0.3c-0.2-0.2-0.4-0.4-0.5-0.7
		c-0.1-0.3-0.2-0.6-0.3-1c-0.1-0.4-0.1-0.7-0.1-1.1C144.5,89,144.5,88.7,144.6,88.3z"/>
	<polygon fill="#FFFFFF" points="178.3,84.8 180.5,82.6 179.2,82.5 177.5,84.6 	"/>
	<path fill="#FFFFFF" d="M161.9,111.2c-0.2,0.1-0.4,0.2-0.6,0.4c-0.3,0.1-0.6,0.2-0.9,0.2c-0.4,0-0.7-0.1-0.9-0.3
		c-0.2-0.2-0.4-0.4-0.6-0.7c-0.1-0.3-0.2-0.6-0.3-1c-0.1-0.4-0.1-0.7-0.1-1.1c0-0.4,0-0.8,0.1-1.1c0.1-0.4,0.2-0.7,0.3-1
		c0.2-0.3,0.4-0.5,0.6-0.7c0.3-0.2,0.6-0.3,1-0.3c0.2,0,0.4,0,0.6,0.1c0.2,0.1,0.3,0.1,0.4,0.2c0.1,0.1,0.3,0.2,0.4,0.3l0.7-0.4
		c-0.1-0.1-0.3-0.3-0.5-0.4c-0.2-0.1-0.4-0.2-0.7-0.3c-0.3-0.1-0.6-0.1-1-0.1c-0.5,0-0.9,0.1-1.3,0.3c-0.4,0.2-0.7,0.5-1,0.8
		c-0.3,0.3-0.5,0.7-0.6,1.2c-0.1,0.5-0.2,0.9-0.2,1.5c0,0.5,0.1,0.9,0.2,1.3c0.1,0.4,0.3,0.8,0.6,1.2c0.3,0.3,0.6,0.6,1,0.8
		c0.4,0.2,0.9,0.3,1.4,0.3c0.4,0,0.7-0.1,1-0.2c0.3-0.1,0.5-0.3,0.7-0.5c0.2-0.2,0.4-0.4,0.6-0.7l-0.3-0.3
		C162.2,110.9,162.1,111.1,161.9,111.2z"/>
	<polygon fill="#FFFFFF" points="183.9,92.9 183.9,81.7 182.7,82.4 182.7,92.9 	"/>
	<path fill="#FFFFFF" d="M165.4,92.8c0.3-0.1,0.6-0.2,0.8-0.4c0.3-0.2,0.6-0.3,0.9-0.5c0,0.2,0,0.3,0,0.5c0,0.1,0,0.2,0.1,0.3
		c0,0.1,0.1,0.2,0.1,0.2h1c0,0,0-0.1-0.1-0.2c0-0.1,0-0.2,0-0.3c0-0.1,0-0.2,0-0.3v-4.2c0-0.4,0-0.7-0.1-1c-0.1-0.3-0.2-0.5-0.3-0.6
		c-0.2-0.1-0.3-0.2-0.6-0.3c-0.2-0.1-0.5-0.1-0.8-0.1c-0.4,0-0.7,0-1.1,0.1c-0.4,0.1-0.7,0.1-1,0.2c-0.3,0.1-0.6,0.2-0.9,0.3
		l0.2,0.8c0.3-0.1,0.6-0.2,0.8-0.3c0.2-0.1,0.5-0.1,0.8-0.2c0.3-0.1,0.5-0.1,0.8-0.1c0.2,0,0.4,0,0.5,0.1c0.1,0.1,0.2,0.2,0.3,0.3
		c0.1,0.1,0.1,0.3,0.1,0.4c0,0.2,0,0.3,0,0.5v1.1l-1.2,0.2c-0.4,0.1-0.7,0.1-1.1,0.2c-0.3,0.1-0.6,0.2-0.9,0.4
		c-0.3,0.2-0.5,0.4-0.6,0.6c-0.2,0.3-0.2,0.6-0.2,1c0,0.6,0.1,1,0.4,1.3c0.3,0.3,0.6,0.4,1,0.4C164.8,93,165.1,92.9,165.4,92.8z
		 M164.5,90.6c0.1-0.2,0.2-0.3,0.4-0.4c0.2-0.1,0.3-0.2,0.6-0.3c0.2-0.1,0.4-0.1,0.7-0.2l1-0.2v1.9c-0.3,0.2-0.5,0.3-0.8,0.4
		c-0.2,0.1-0.4,0.2-0.7,0.3c-0.2,0.1-0.5,0.1-0.6,0.1c-0.2,0-0.3-0.1-0.5-0.2c-0.1-0.1-0.2-0.4-0.2-0.7
		C164.4,91,164.4,90.8,164.5,90.6z"/>
	<polygon fill="#FFFFFF" points="144,112.3 149.4,112.3 149.4,111.5 145.4,111.5 145.4,107.4 148.9,107.4 148.9,106.7 145.4,106.7 
		145.4,103 149.4,103 149.4,102.3 144,102.3 	"/>
	<path fill="#FFFFFF" d="M159.2,93c0.4,0,0.8,0,1.1-0.1c0.3,0,0.6-0.1,0.8-0.2c0.3-0.1,0.5-0.1,0.7-0.2l0.1-0.7
		c-0.3,0.1-0.5,0.2-0.8,0.3c-0.2,0.1-0.5,0.1-0.8,0.2c-0.3,0.1-0.6,0.1-0.9,0.1c-0.6,0-1.1-0.1-1.5-0.4c-0.4-0.3-0.7-0.6-0.9-1
		c-0.2-0.4-0.4-0.9-0.5-1.4c-0.1-0.5-0.1-1-0.1-1.5c0-0.5,0-1,0.1-1.6c0.1-0.5,0.2-1,0.5-1.4c0.2-0.4,0.5-0.8,0.9-1.1
		c0.4-0.3,0.9-0.4,1.5-0.4c0.4,0,0.7,0,0.9,0.1c0.3,0.1,0.5,0.1,0.6,0.2c0.2,0.1,0.4,0.2,0.5,0.3l0.3-0.7c-0.2-0.1-0.4-0.2-0.6-0.2
		c-0.2-0.1-0.5-0.1-0.8-0.2c-0.3,0-0.7-0.1-1.2-0.1c-0.7,0-1.4,0.1-1.9,0.4c-0.5,0.3-1,0.6-1.3,1.1c-0.4,0.5-0.6,1-0.8,1.6
		c-0.2,0.6-0.3,1.3-0.3,1.9s0.1,1.3,0.2,1.9c0.2,0.6,0.4,1.1,0.8,1.6c0.3,0.5,0.8,0.8,1.3,1.1C157.8,92.9,158.5,93,159.2,93z"/>
	<path fill="#FFFFFF" d="M169.6,111.8c0-0.1,0-0.2,0-0.3V105l-1.2,0.6v5.2c-0.3,0.2-0.5,0.3-0.8,0.4c-0.2,0.1-0.5,0.2-0.7,0.3
		c-0.2,0.1-0.5,0.1-0.6,0.1c-0.3,0-0.5-0.1-0.6-0.3c-0.2-0.2-0.2-0.5-0.2-0.9v-5.2h-1.2v5.4c0,0.2,0,0.5,0.1,0.7
		c0.1,0.2,0.2,0.4,0.3,0.6c0.1,0.2,0.3,0.3,0.5,0.4c0.2,0.1,0.4,0.2,0.7,0.2c0.3,0,0.6-0.1,0.9-0.2c0.3-0.1,0.6-0.3,0.9-0.4
		c0.3-0.2,0.6-0.3,0.9-0.6c0,0.2,0,0.4,0,0.5c0,0.1,0.1,0.2,0.1,0.3c0,0.1,0.1,0.1,0.1,0.2h1c0-0.1,0-0.1-0.1-0.2
		C169.6,112,169.6,111.9,169.6,111.8z"/>
	<path fill="#FFFFFF" d="M154.2,108.2c-0.2-0.1-0.4-0.1-0.6-0.2c-0.2-0.1-0.5-0.2-0.7-0.2c-0.2-0.1-0.4-0.2-0.5-0.4
		c-0.2-0.2-0.2-0.3-0.2-0.6c0-0.4,0.1-0.6,0.4-0.8c0.3-0.2,0.6-0.3,1-0.3c0.2,0,0.4,0,0.6,0.1c0.2,0.1,0.3,0.1,0.5,0.2
		c0.1,0.1,0.3,0.2,0.4,0.3l0.5-0.5c-0.1-0.1-0.3-0.2-0.5-0.3c-0.2-0.1-0.3-0.1-0.6-0.2c-0.2-0.1-0.5-0.1-0.8-0.1
		c-0.3,0-0.6,0-0.9,0.1c-0.3,0.1-0.5,0.2-0.7,0.4c-0.2,0.2-0.4,0.4-0.5,0.6c-0.1,0.3-0.2,0.6-0.2,0.9c0,0.3,0.1,0.6,0.2,0.8
		c0.1,0.2,0.2,0.4,0.4,0.6c0.2,0.2,0.4,0.3,0.6,0.4c0.2,0.1,0.5,0.2,0.7,0.3c0.2,0.1,0.4,0.1,0.6,0.2c0.2,0.1,0.4,0.2,0.5,0.3
		c0.2,0.1,0.3,0.2,0.4,0.4c0.1,0.1,0.2,0.3,0.2,0.5c0,0.2,0,0.4-0.1,0.6c-0.1,0.2-0.2,0.3-0.4,0.4c-0.2,0.1-0.3,0.2-0.5,0.2
		c-0.2,0-0.4,0.1-0.6,0.1c-0.2,0-0.5,0-0.6-0.1c-0.2-0.1-0.3-0.1-0.5-0.2c-0.1-0.1-0.3-0.2-0.4-0.3l-0.6,0.4
		c0.1,0.2,0.3,0.3,0.4,0.5c0.2,0.1,0.4,0.2,0.6,0.3c0.3,0.1,0.6,0.1,1,0.1c0.3,0,0.7,0,1-0.1c0.3-0.1,0.6-0.2,0.8-0.4
		c0.2-0.2,0.4-0.4,0.6-0.7c0.1-0.3,0.2-0.6,0.2-1c0-0.5-0.1-1-0.4-1.3C155,108.6,154.6,108.4,154.2,108.2z"/>
	<path fill="#FFFFFF" d="M198.1,106.2c-0.1-0.2-0.2-0.4-0.4-0.6c-0.1-0.1-0.3-0.3-0.6-0.4c-0.2-0.1-0.5-0.2-0.9-0.2
		c-0.4,0-0.8,0.1-1.2,0.3c-0.4,0.2-0.7,0.4-1,0.7c-0.3,0.3-0.5,0.7-0.6,1.1c-0.2,0.4-0.2,0.9-0.2,1.5c0,0.5,0.1,1,0.2,1.5
		c0.1,0.5,0.3,0.9,0.6,1.2c0.2,0.3,0.6,0.6,0.9,0.8c0.4,0.2,0.8,0.3,1.3,0.3c0.5,0,0.9-0.1,1.2-0.3c0.3-0.2,0.6-0.5,0.8-0.9l0.7,1
		h0.5v-10.8h-1.2V106.2z M198.1,109.1c0,0.4,0,0.7-0.1,1c-0.1,0.3-0.2,0.6-0.4,0.9c-0.2,0.2-0.4,0.4-0.6,0.6
		c-0.2,0.1-0.5,0.2-0.8,0.2c-0.3,0-0.6-0.1-0.8-0.3c-0.2-0.2-0.4-0.4-0.5-0.7c-0.1-0.3-0.2-0.6-0.3-1c-0.1-0.4-0.1-0.7-0.1-1.1
		c0-0.3,0-0.7,0.1-1.1c0.1-0.4,0.2-0.7,0.4-0.9c0.2-0.3,0.4-0.5,0.6-0.7c0.3-0.2,0.6-0.3,0.9-0.3c0.2,0,0.4,0.1,0.6,0.2
		c0.2,0.1,0.4,0.3,0.5,0.6c0.1,0.2,0.3,0.5,0.3,0.8c0.1,0.3,0.1,0.7,0.1,1V109.1z"/>
	<rect x="186.4" y="86" fill="#FFFFFF" width="1.1" height="6.8"/>
	<path fill="#FFFFFF" d="M186.9,81.8c-0.2,0-0.4,0.1-0.6,0.2c-0.2,0.2-0.2,0.3-0.2,0.6c0,0.2,0.1,0.4,0.2,0.6
		c0.2,0.2,0.3,0.2,0.6,0.2c0.2,0,0.4-0.1,0.6-0.2c0.2-0.2,0.2-0.3,0.2-0.6c0-0.2-0.1-0.4-0.2-0.6C187.3,81.9,187.1,81.8,186.9,81.8z
		"/>
	<path fill="#FFFFFF" d="M172.1,93c0.1,0,0.3,0,0.4,0c0.2,0,0.3,0,0.4-0.1c0.2,0,0.3-0.1,0.5-0.1v-0.5c-0.1,0-0.1,0-0.2,0
		c-0.1,0-0.3,0-0.5,0c-0.1,0-0.3,0-0.4,0c-0.1,0-0.2-0.1-0.2-0.2v-5.6h1.2V86h-1.2v-2.3l-0.4,0.2L171,86h-1.1v0.6h1.1v5.5
		c0,0.2,0,0.3,0.1,0.5c0.1,0.1,0.1,0.2,0.2,0.3c0.1,0.1,0.2,0.1,0.3,0.1C171.8,93,171.9,93,172.1,93z"/>
	<path fill="#FFFFFF" d="M187.5,111.8c0-0.1,0-0.2,0-0.4v-4.4c0-0.4,0-0.8-0.1-1c-0.1-0.3-0.2-0.5-0.3-0.6c-0.2-0.2-0.3-0.3-0.6-0.3
		c-0.2-0.1-0.5-0.1-0.8-0.1c-0.4,0-0.7,0-1.1,0.1c-0.4,0.1-0.7,0.1-1,0.2c-0.3,0.1-0.7,0.2-1,0.3l0.2,0.8c0.3-0.1,0.6-0.2,0.9-0.3
		c0.3-0.1,0.5-0.1,0.8-0.2c0.3-0.1,0.5-0.1,0.8-0.1c0.2,0,0.4,0,0.5,0.1c0.1,0.1,0.2,0.2,0.3,0.3c0.1,0.1,0.1,0.3,0.1,0.4
		c0,0.2,0,0.4,0,0.6v1.1l-1.2,0.2c-0.4,0.1-0.8,0.1-1.1,0.2c-0.3,0.1-0.6,0.2-0.9,0.4c-0.3,0.2-0.5,0.4-0.6,0.6
		c-0.2,0.3-0.2,0.6-0.2,1c0,0.6,0.1,1,0.4,1.3c0.3,0.3,0.6,0.4,1.1,0.4c0.3,0,0.6-0.1,0.9-0.2c0.3-0.1,0.6-0.3,0.9-0.4
		c0.3-0.2,0.6-0.3,0.9-0.6c0,0.2,0,0.4,0,0.5c0,0.1,0.1,0.2,0.1,0.3c0,0.1,0.1,0.2,0.1,0.2h1.1c0,0,0-0.1-0.1-0.2
		C187.5,112,187.5,111.9,187.5,111.8z M186.2,110.7c-0.3,0.2-0.5,0.3-0.8,0.4c-0.2,0.1-0.5,0.2-0.7,0.3c-0.2,0.1-0.5,0.1-0.7,0.1
		c-0.2,0-0.4-0.1-0.5-0.2c-0.1-0.1-0.2-0.4-0.2-0.7c0-0.3,0-0.5,0.1-0.7c0.1-0.2,0.2-0.3,0.4-0.5c0.2-0.1,0.4-0.2,0.6-0.3
		c0.2-0.1,0.5-0.1,0.7-0.2l1-0.2V110.7z"/>
	<path fill="#FFFFFF" d="M194.3,92.3c0.2-0.2,0.4-0.4,0.6-0.7l-0.3-0.3c-0.1,0.2-0.3,0.3-0.5,0.5c-0.2,0.1-0.4,0.2-0.6,0.3
		c-0.2,0.1-0.5,0.2-0.9,0.2c-0.4,0-0.7-0.1-0.9-0.3c-0.2-0.2-0.4-0.4-0.5-0.7c-0.1-0.3-0.2-0.6-0.3-0.9c-0.1-0.3-0.1-0.7-0.1-1
		c0-0.4,0-0.7,0.1-1.1c0.1-0.4,0.2-0.7,0.3-1c0.2-0.3,0.4-0.5,0.6-0.7c0.3-0.2,0.6-0.3,1-0.3c0.2,0,0.4,0,0.5,0.1
		c0.2,0.1,0.3,0.1,0.4,0.2c0.1,0.1,0.3,0.2,0.4,0.3l0.6-0.4c-0.1-0.1-0.3-0.3-0.5-0.4c-0.2-0.1-0.4-0.2-0.7-0.3
		c-0.3-0.1-0.6-0.1-1-0.1c-0.5,0-0.9,0.1-1.3,0.3c-0.4,0.2-0.7,0.5-1,0.8c-0.3,0.3-0.5,0.7-0.6,1.2c-0.1,0.4-0.2,0.9-0.2,1.4
		c0,0.4,0.1,0.9,0.2,1.3c0.1,0.4,0.3,0.8,0.6,1.1c0.3,0.3,0.6,0.6,1,0.8c0.4,0.2,0.9,0.3,1.4,0.3c0.4,0,0.7-0.1,1-0.2
		C193.8,92.7,194.1,92.5,194.3,92.3z"/>
	<path fill="#FFFFFF" d="M176.5,105.6c-0.2-0.1-0.5-0.3-0.8-0.4c-0.3-0.1-0.7-0.2-1.2-0.2c-0.5,0-0.9,0.1-1.3,0.3
		c-0.4,0.2-0.7,0.5-1,0.8c-0.3,0.3-0.5,0.7-0.6,1.2c-0.1,0.5-0.2,1-0.2,1.5c0,0.4,0.1,0.9,0.2,1.3c0.1,0.4,0.3,0.8,0.6,1.2
		c0.3,0.3,0.6,0.6,1,0.8c0.4,0.2,0.9,0.3,1.4,0.3c0.4,0,0.8-0.1,1.1-0.2c0.3-0.1,0.6-0.3,0.8-0.5c0.2-0.2,0.4-0.4,0.6-0.7l-0.3-0.3
		c-0.1,0.2-0.3,0.3-0.5,0.5c-0.2,0.1-0.4,0.2-0.6,0.3c-0.3,0.1-0.6,0.2-0.9,0.2c-0.4,0-0.7-0.1-0.9-0.3c-0.2-0.2-0.4-0.5-0.5-0.8
		c-0.1-0.3-0.2-0.7-0.3-1c0-0.4-0.1-0.7-0.1-1.1h4.2l0.1-2.4C177,105.9,176.8,105.7,176.5,105.6z M176,107.4c0,0.1,0,0.2,0,0.2
		c0,0.1,0,0.2,0,0.2h-3.1c0-0.3,0.1-0.6,0.2-0.8c0.1-0.3,0.2-0.5,0.3-0.7c0.1-0.2,0.3-0.4,0.5-0.5c0.2-0.1,0.4-0.2,0.7-0.2
		c0.3,0,0.6,0,0.8,0.1c0.2,0.1,0.3,0.2,0.4,0.4c0.1,0.1,0.2,0.3,0.2,0.5c0,0.2,0,0.4,0,0.6V107.4z"/>
	<polygon fill="#FFFFFF" points="179.1,112.3 180.3,112.3 180.3,100.8 179.1,101.5 	"/>
	<path fill="#FFFFFF" d="M180,86.8c-0.3-0.3-0.6-0.5-0.9-0.7c-0.4-0.2-0.8-0.2-1.2-0.2c-0.4,0-0.8,0.1-1.2,0.3
		c-0.4,0.2-0.7,0.4-1,0.7c-0.3,0.3-0.5,0.7-0.7,1.1c-0.2,0.4-0.2,0.9-0.2,1.5c0,0.5,0.1,1,0.2,1.5c0.2,0.4,0.4,0.8,0.6,1.1
		c0.3,0.3,0.6,0.5,1,0.7c0.4,0.2,0.8,0.3,1.2,0.3c0.5,0,0.9-0.1,1.3-0.3c0.4-0.2,0.7-0.4,1-0.8c0.3-0.3,0.5-0.7,0.6-1.2
		c0.2-0.5,0.2-0.9,0.2-1.5c0-0.5-0.1-1-0.2-1.4C180.5,87.4,180.2,87.1,180,86.8z M179.5,90.4c-0.1,0.3-0.2,0.7-0.3,1
		c-0.1,0.3-0.3,0.5-0.5,0.7c-0.2,0.2-0.5,0.3-0.8,0.3c-0.3,0-0.6-0.1-0.8-0.3c-0.2-0.2-0.4-0.4-0.6-0.7c-0.2-0.3-0.3-0.6-0.3-1
		c-0.1-0.4-0.1-0.7-0.1-1.1c0-0.4,0-0.8,0.1-1.1c0.1-0.4,0.2-0.7,0.4-0.9c0.2-0.3,0.3-0.5,0.6-0.6c0.2-0.2,0.4-0.2,0.7-0.2
		c0.3,0,0.6,0.1,0.9,0.3c0.2,0.2,0.4,0.4,0.6,0.7c0.1,0.3,0.2,0.6,0.3,0.9c0.1,0.3,0.1,0.7,0.1,1C179.6,89.7,179.5,90,179.5,90.4z"
		/>
</g>
</svg>
