<?xml version="1.0" encoding="utf-8"?>
<!-- Generator: Adobe Illustrator 16.0.0, SVG Export Plug-In . SVG Version: 6.00 Build 0)  -->
<!DOCTYPE svg PUBLIC "-//W3C//DTD SVG 1.1//EN" "http://www.w3.org/Graphics/SVG/1.1/DTD/svg11.dtd">
<svg version="1.1" id="Layer_1" xmlns="http://www.w3.org/2000/svg" xmlns:xlink="http://www.w3.org/1999/xlink" x="0px" y="0px"
	 width="63px" height="89px" viewBox="0 0 63 89" enable-background="new 0 0 63 89" xml:space="preserve">
<g>
	<path fill-rule="evenodd" clip-rule="evenodd" fill="#FDD414" d="M50.066,51.821c-0.778-0.431-1.538-0.861-2.309-1.274
		c-3.866-2.06-7.887-3.741-12.12-4.898c-1.81-0.494-3.64-0.89-5.503-1.122c-0.705-0.086-1.414-0.122-2.122-0.181
		c-0.062-0.006-0.125-0.008-0.195-0.012c0-3.906,0-7.801,0-11.706c0.022-0.006,0.046-0.015,0.07-0.016
		c2.261-0.087,4.472-0.49,6.661-1.031c4.085-1.008,7.979-2.526,11.729-4.419c1.237-0.625,2.441-1.314,3.663-1.973
		c0.036-0.02,0.074-0.038,0.126-0.065C50.066,34.03,50.066,42.919,50.066,51.821z"/>
	<path fill-rule="evenodd" clip-rule="evenodd" fill="#FDD414" d="M34.271,61.107c-2.756,0-3.979,0-6.727,0c0-5.754,0-9.362,0-15.13
		c0.049,0,0.096,0,0.142,0c2.707-0.068,3.842,0.348,6.46,0.989c0.106,0.025,0.129,0.075,0.128,0.175
		c-0.004,0.642-0.002,1.283-0.002,1.923c0,4.65,0,2.863,0,7.511C34.271,56.649,34.271,61.014,34.271,61.107z"/>
	<path fill-rule="evenodd" clip-rule="evenodd" fill="#FDD414" d="M25.278,32.545c0,3.887,0,7.765,0,11.672
		c-2.018-0.066-3.656-0.86-4.782-2.528c-1.367-2.021-1.438-4.158-0.232-6.28C21.427,33.361,23.568,32.505,25.278,32.545z"/>
</g>
</svg>
