<?xml version="1.0" encoding="utf-8"?>
<!-- Generator: Adobe Illustrator 18.0.0, SVG Export Plug-In . SVG Version: 6.00 Build 0)  -->
<!DOCTYPE svg PUBLIC "-//W3C//DTD SVG 1.1//EN" "http://www.w3.org/Graphics/SVG/1.1/DTD/svg11.dtd">
<svg version="1.1" xmlns="http://www.w3.org/2000/svg" xmlns:xlink="http://www.w3.org/1999/xlink" x="0px" y="0px"
	 viewBox="0 0 398.5 171.2" enable-background="new 0 0 398.5 171.2" xml:space="preserve">
<g id="Layer_1">
</g>
<g id="Layer_5">
</g>
<g id="ondas">
</g>
<g id="red">
</g>
<g id="textos">
</g>
<g id="puntosinfo">
</g>
<g id="Layer_8">
</g>
<g id="Layer_7">
	<g>
		<circle fill="#FFFFFF" cx="90.3" cy="77.7" r="1"/>
		<circle fill="#FFFFFF" cx="57.1" cy="119.8" r="0.3"/>
		<circle fill="#FFFFFF" cx="70.1" cy="119.8" r="0.3"/>
		<path fill="#FFFFFF" d="M38.8,110.2l2.5,1.4c-0.1,0.3-0.1,0.7-0.1,1c0,3.3,1.9,5.9,5.7,6.7c0.3,0.1,0.5,0.1,0.6,0.2l-0.6,6.2v0.1
			c0,1.3,1.2,2.3,2.6,2.3c1.5,0,2.6-1.1,2.6-2.3v-0.1l-0.7-6.5h-0.2v-0.4c0-0.6-0.2-1.2-0.8-1.8c0.5,0,1.1-0.1,1.7-0.4
			c1.1-0.6,1.5-1.9,1.5-2.1l0.2-0.7l1.8-1v0.4c0,1,0.4,2,1.1,2.7v1.5v0.3c-1,0.2-1.9,0.9-2.2,1.2l-0.5,0.4l0.1,0.9
			c0,0,0.1,0.2,0.1,0.3c0.3,0.8,1.5,1.5,2.8,1.5c0.5,0,0.9-0.1,1.2-0.2c0,0,0,0,0,0c0.2,0.2,0.5,0.6,0.7,1.1c0.2,0.5,0.6,0.9,1,1.2
			c-0.6,0.6-0.9,1.4-0.9,2.2c0,1.1,0.6,1.9,1.3,2.5c-0.3,0.4-0.5,1-0.5,1.7c0,1,0.4,1.9,1.2,2.5c-0.1,0.3-0.2,0.6-0.2,0.9
			c0,0.8,0.4,1.6,1.1,2.1c0,0.8,0.7,1.5,1.6,1.5c0.8,0,1.5-0.7,1.6-1.5c0.7-0.5,1.1-1.2,1.1-2.1c0-0.3-0.1-0.6-0.2-0.9
			c0.8-0.7,1.2-1.5,1.2-2.5c0-0.7-0.2-1.2-0.5-1.7c0.7-0.6,1.3-1.4,1.3-2.5c0-0.8-0.3-1.6-0.9-2.2c0.4-0.3,0.7-0.7,1-1.2
			c0.2-0.5,0.5-0.9,0.7-1.1l0,0c0.3,0.1,0.7,0.2,1.2,0.2c1.3,0,2.5-0.7,2.8-1.5c0-0.1,0.1-0.3,0.1-0.3l0.2-0.8l-0.5-0.5
			c-0.3-0.3-1-0.8-1.8-1.1v-1.6c0.9-0.7,1.4-1.8,1.4-2.9v-1.1H71h-2.7c-1.1-1.2-2.7-2-4.5-2c-1.8,0-3.3,0.8-4.5,2H57l3.4-2
			c0.1-0.1,0.2-0.3,0.1-0.4c-0.1-0.1-0.3-0.2-0.4-0.1l-6.4,3.7l-0.5-0.1c0.3-0.6,0.4-1.2,0.4-1.3l0.1-0.7l4.6-3.9
			c0.1-0.1,0.1-0.3,0-0.4c-0.1-0.1-0.3-0.1-0.4,0l-4.7,3.9l-0.2,0c0-0.1,0.1-0.3,0.1-0.4l1.5-1.8l-0.5-0.5c-0.1-0.1-0.2-0.2-0.3-0.3
			l2.1-2.4c0.1-0.1,0.1-0.3,0-0.4c-0.1-0.1-0.3-0.1-0.4,0l-2.1,2.5c-1.4-1-3-1.5-4.8-1.5c-1.2,0-2.3,0.3-3.3,0.7l-1.4-1.7
			c-0.1-0.1-0.3-0.1-0.4,0c-0.1,0.1-0.1,0.3,0,0.4l1.3,1.6c-0.7,0.4-1.2,0.8-1.7,1.4l-1.6-1.4c-0.1-0.1-0.3-0.1-0.4,0
			c-0.1,0.1-0.1,0.3,0,0.4l1.6,1.4c-0.5,0.7-0.9,1.5-1.1,2.4l-2.3-1.3c-0.1-0.1-0.3,0-0.4,0.1C38.6,110,38.7,110.1,38.8,110.2z
			 M60.1,122.4c-0.4-0.7-0.8-1.3-1.1-1.6c-0.4-0.4-0.9,0-1.8,0c-1,0-1.6-0.5-1.7-0.6c0,0-0.1-0.3-0.1-0.3c0.2-0.2,1.2-1,2.1-1
			c1,0,2.4,0.5,3.7,3c0.2,0.4,0.6,0.8,1.2,1c-0.4,0.2-0.9,0.4-1.3,0.6C60.7,123.2,60.4,122.8,60.1,122.4z M60.8,119.1h0.7
			c0,0.3,0.1,1.2,0.1,1.2S61,119.4,60.8,119.1z M64.7,132.5c-0.4,0.2-0.7,0.3-1,0.6c-0.2,0.2-0.2,0.5,0,0.7c0.2,0.2,0.5,0.2,0.7,0
			c0.2-0.2,0.4-0.3,0.7-0.4c0,0.1,0.1,0.3,0.1,0.4c0,0.6-0.5,1.1-1.1,1.3l0,0.7c0,0.2-0.2,0.4-0.4,0.4c-0.2,0-0.4-0.2-0.4-0.4l0-0.7
			c-0.6-0.2-1.1-0.7-1.1-1.3c0-0.3,0.1-0.5,0.2-0.8c0.5-0.8,1-1.1,2.1-1.8c0,0,0.1-0.1,0.1-0.1c0,0,0,0,0,0c0,0,0,0,0,0c0,0,0,0,0,0
			c0,0,0,0,0.1,0c0.2-0.1,0.2-0.3,0.2-0.6c0-0.2-0.1-0.4-0.3-0.6c0.1,0,0.2-0.1,0.3-0.1c0.3-0.1,0.6-0.3,0.9-0.4
			c0.3,0.3,0.4,0.7,0.4,1.2C66.1,131.6,65.4,132.2,64.7,132.5z M64.9,128.7C64.9,128.7,64.9,128.7,64.9,128.7
			c-0.2,0.1-0.3,0.2-0.5,0.2c-0.6,0.3-1,0.5-1.5,0.9c0,0-0.1,0.1-0.1,0.1c0,0,0,0,0,0c0,0,0,0,0,0c-0.2,0.2-0.4,0.4-0.4,0.6
			c0,0.4,0.2,0.6,0.5,0.8c-0.3,0.3-0.6,0.5-0.9,0.8c-0.5-0.3-0.8-0.7-0.8-1.6c0-0.7,0.4-1.2,0.9-1.6c0,0,0,0,0,0
			c0.5-0.4,1.2-0.7,1.8-1c0.2-0.1,0.4-0.2,0.6-0.3c0.7-0.4,1.3-0.7,1.3-1.2c0-0.5-0.3-0.8-0.8-1.1c0.4-0.2,0.9-0.4,1.3-0.6
			c0.5,0.4,0.8,1,0.8,1.7C66.9,127.5,65.9,128.1,64.9,128.7z M63.1,126.3c0-0.3,0.2-0.5,0.5-0.5c0.3,0,0.5,0.2,0.5,0.5
			c0,0.3-0.2,0.5-0.5,0.5C63.3,126.8,63.1,126.6,63.1,126.3z M71.7,119.8c0,0-0.1,0.3-0.1,0.3c0,0.1-0.7,0.6-1.7,0.6
			c-0.9,0-1.4-0.4-1.8,0c-0.3,0.3-0.7,0.9-1.1,1.6c-0.3,0.6-0.7,1-1.3,1.3c-0.5,0.3-1.2,0.6-1.8,0.8c-0.4,0.2-0.8,0.3-1.2,0.5v0
			c-0.7,0.3-1.3,0.7-1.3,1.3c0,0.4,0.4,0.8,1,1.1c-0.4,0.2-0.8,0.4-1.1,0.7c-0.6-0.5-1.1-1-1.1-1.8c0-1,0.6-1.6,1.3-2
			c0.6-0.3,1.3-0.6,1.9-0.9c0.7-0.3,1.2-0.5,1.7-0.8c0,0,0,0,0,0c0.3-0.2,0.6-0.5,0.8-0.8c1.2-2.5,2.6-3,3.7-3
			C70.6,118.9,71.5,119.6,71.7,119.8z M62.6,119.1h2l-0.1,2.8c-0.3,0.2-0.8,0.4-1.3,0.6c-0.1,0.1-0.3,0.1-0.4,0.2L62.6,119.1z
			 M65.6,120.4c0,0,0.1-1,0.1-1.3h0.7C66.2,119.4,65.6,120.4,65.6,120.4z M56.8,113.2h3.7c0.4,0,0.7,0.3,0.7,0.7c0,0,0,0.7,0,0.9
			c0.2,0,0.6,0,0.8,0c0-0.2,0-0.9,0-0.9c0-0.6-0.4-1.2-1-1.4l-0.3-0.1l0.2-0.2c0.9-0.6,1.9-0.9,2.9-0.9c1.1,0,2.1,0.3,3,1l0.2,0.1
			l-0.2,0.1c-0.5,0.3-0.8,0.8-0.8,1.3c0,0,0,0.7,0,0.9c0.2,0,0.6,0,0.8,0c0-0.2,0-0.9,0-0.9c0-0.4,0.3-0.7,0.7-0.7h3.7v0.2
			c0,0.3,0,0.6-0.1,0.9h-2.5v0.4h2.3c-0.3,0.7-0.9,1.2-1.9,1.2c0,0-0.7,0-0.9,0c0,0.2,0,0.6,0,0.8c0.2,0,1,0,1,0s0.4,0,0.4,0h0.4
			v1.4H58v-1.4h0.7l0.4,0c0,0,0.7,0,1,0c0-0.2,0-0.6,0-0.8c-0.2,0-0.9,0-0.9,0c-1,0-1.6-0.6-1.9-1.2h2.3v-0.4H57
			c-0.1-0.3-0.1-0.6-0.1-0.9V113.2z M51.1,125.8c0,0.7-0.7,1.2-1.5,1.2c-0.8,0-1.5-0.5-1.5-1.2l0.5-5.4h1.9L51.1,125.8z M51.8,115.8
			c-0.9,0.5-2,0.2-2,0.2s0.3-1.1,1.2-1.6c0.9-0.5,2-0.2,2-0.2S52.7,115.3,51.8,115.8z M50.7,112.2c0.8-0.7,2-0.6,2-0.6
			s-0.1,1.2-0.9,1.8c-0.8,0.7-1.9,0.6-1.9,0.6S49.9,112.9,50.7,112.2z M50.5,110.1c0.6-0.7,1.7-0.8,1.7-0.8s0.1,1.1-0.5,1.8
			c-0.6,0.7-1.7,0.8-1.7,0.8S49.9,110.8,50.5,110.1z M48.6,107c1.9,0,3.6,0.7,4.8,1.8l-0.2,0.3c-0.9-0.5-2-0.8-3.2-0.8
			c-3,0-5,2.1-5,4.6c0,2.1,1.3,3.9,3.6,4.4c1.5,0.3,1.7,1.1,1.7,1.6c0,0.2,0,0.3,0,0.4H49c-0.1-0.5-0.5-0.8-1.7-1
			c-3.1-0.6-4.8-2.7-4.8-5.6C42.4,109.5,44.9,107,48.6,107z M48.5,112.2c0.8,0.7,0.9,1.8,0.9,1.8s-1.2,0.1-2-0.6
			c-0.8-0.7-0.9-1.8-0.9-1.8S47.7,111.6,48.5,112.2z M47.1,109.3c0,0,1.1,0.1,1.7,0.8c0.6,0.7,0.5,1.8,0.5,1.8s-1.1-0.1-1.7-0.8
			C47,110.3,47.1,109.3,47.1,109.3z M48.2,114.4c0.9,0.5,1.2,1.6,1.2,1.6s-1.1,0.3-2-0.2c-0.9-0.5-1.2-1.6-1.2-1.6
			S47.4,113.8,48.2,114.4z"/>
		<path fill="#FFFFFF" d="M103.7,117.3l-2.1-4.7c1.1-0.1,2-1.1,2-2.2c0-1.2-1-2.2-2.2-2.2c-0.9,0-1.6,0.5-2,1.2
			c-2.8,0.1-5-0.3-6.7-1.2c0.1-0.2,0.1-0.4,0.1-0.7c0-1.5-1.2-2.7-2.7-2.7c-1.5,0-2.7,1.2-2.7,2.7c0,0.2,0,0.5,0.1,0.7
			c-1.6,0.9-3.9,1.3-6.7,1.2c-0.4-0.7-1.1-1.2-2-1.2c-1.2,0-2.2,1-2.2,2.2c0,1.1,0.9,2.1,1.9,2.2l-2.1,4.7h-1v1.1
			c0,2.1,1.7,3.9,3.9,3.9c0.8,0,1.5-0.2,2.1-0.6l-2.3,3.4h0l0,0l0,0l0,0l-0.3,1.7l7.3,1.5c-0.1,0.4,0.6,0.8,1.1,1
			c0.3,0.1,0.8,0.1,1.1-0.1l0.2,2.8l0-0.1c0,0.8,0.7,1.5,1.5,1.5c0.8,0,1.5-0.7,1.5-1.5l0,0c0,0,0,0,0,0l0.1-2l4.1,1.3l3.6-8.8
			l0-0.5c0.4,0.2,0.9,0.3,1.4,0.3c2.1,0,3.9-1.7,3.9-3.9v-1.1H103.7z M102.7,117.3h-3.9l1.9-4.3L102.7,117.3z M97.6,120.6
			c-0.3,0-0.6-0.1-1-0.2c-0.7-0.2-1.2-0.5-1.7-0.9c-0.5-0.4-1-0.7-1.8-0.9c-0.2,0-0.4-0.1-0.6-0.1l0.4-6l7.1,0l-2.1,4.7h-1v1.1
			C96.9,119.2,97.2,120,97.6,120.6z M79.3,113l1.9,4.3h-3.9L79.3,113z M82.2,117.3l-2.1-4.7h7.1l0.4,5.5c-0.4,0-0.8,0-1.3-0.1
			c-0.9-0.2-1.4-0.6-1.5-0.6l-0.4-0.3l-0.3,0.4l-1,1.5c0-0.2,0.1-0.4,0.1-0.7v-1.1H82.2z M79.3,121.1c-1.5,0-2.8-1.2-2.8-2.8h5.5
			C82.1,119.9,80.9,121.1,79.3,121.1z M87.6,127.6c-0.3-0.7-0.7-1.2-1.4-1.5c-0.6-0.2-1.3-0.1-2.1,0c-0.9,0.1-1.8,0.2-2.6-0.1
			c-0.5-0.2-1-0.4-1.2-0.5c0.5-0.7,4-6.3,4.4-7c0.3,0.2,0.8,0.4,1.4,0.5c0.5,0.1,1.1,0.1,1.6,0.1l0.6,8.1
			C88,127.2,87.6,127.6,87.6,127.6z M90.5,131.9c0,0.2-0.2,0.4-0.4,0.4c-0.2,0-0.4-0.2-0.4-0.4l-1.5-20.4h-9.3c0,0,0,0,0,0
			c-0.6,0-1.1-0.5-1.1-1.1c0-0.6,0.5-1.1,1.1-1.1s1.1,0.5,1.1,1.1c0,0,0,0.1,0,0.1c2,0.1,6.1,0.3,8.9-1.8c-0.3-0.3-0.4-0.7-0.4-1.1
			c0-0.9,0.7-1.6,1.6-1.6c0.9,0,1.6,0.7,1.6,1.6c0,0.4-0.2,0.8-0.4,1.1c2.8,2.1,6.9,2,9,1.8c0,0,0-0.1,0-0.1c0-0.6,0.5-1.1,1.1-1.1
			c0.6,0,1.1,0.5,1.1,1.1c0,0.6-0.5,1.1-1.1,1.1c0,0,0,0,0,0h-9.4L90.5,131.9z M94.9,129.4c0,0-0.5,0-1-0.1c-0.5-0.1-1.2-0.8-2-1.2
			l0.6-8.5c0.1,0,0.3,0,0.5,0.1c0.6,0.1,1,0.4,1.4,0.7c0.5,0.4,1.1,0.8,2.1,1c0.6,0.1,1.4,0.3,1.8,0.3
			C97.8,122.9,94.9,129.4,94.9,129.4z M100.8,121.1c-1.5,0-2.8-1.2-2.8-2.8h5.5C103.5,119.9,102.3,121.1,100.8,121.1z"/>
		<path fill="#FFFFFF" d="M43.6,88.2c0,4.2,3.3,6.1,6,7.1c0,0.4,0.4,0.8,0.7,1c-0.2,0.1-0.3,0.3-0.4,0.5c-0.2,0.4-0.2,0.8-0.1,1.2
			c0.1,0.3,0.3,0.6,0.6,0.8c-0.7,0.5-1.7,1.2-1.7,2.4v0.9h8.7v-0.9c0-1.4-1.4-2.1-2.1-2.6c-0.1-0.1-0.3-0.2-0.4-0.3c0,0,0-0.1,0-0.1
			c0,0,1.5-0.4,1.5-1.6c0-0.6-0.4-1.1-0.7-1.3c0.2-0.1,0.3-0.3,0.4-0.5c0.2-0.4,0.2-0.8,0.1-1.2c-0.1-0.2-0.2-0.4-0.3-0.6
			c0.3-0.2,0.5-0.3,0.7-0.5c1.2-0.9,2.9-2.1,2.9-4.4v-2.4h-2.7l0.1-0.8c0.3-0.1,0.7-0.3,1-0.3c0.4,0,0.8,0.3,1.2,0.3
			c0.4,0,0.5-0.2,0.5-0.3c0-0.2-0.2-0.1-0.5-0.1c-0.3,0-0.7-0.5-1.3-0.5c-0.2,0-0.6,0.1-0.9,0.2c-0.2-0.2-1-0.9-1.4-1.2h5.3v19h5.6
			c0,0,0-17.1,0-19c1.5,0,5.9,0,5.9,0v-5.7c0,0-4.3,0-5.9,0c0-1.6,0-6.8,0-6.8h-5.6v6.8h-5.9v5.3c-0.5-0.2-1.1-0.3-1.4-0.3
			c-0.9,0-1.8,0.2-1.8,0.2s-1.4-0.3-2.6-0.3C46.5,82.4,43.6,84.6,43.6,88.2z M56.1,78.6H62v-6.8h3.3v6.8h5.9v3.3h-5.9v19.2H62V81.9
			h-5.9V78.6z M56.1,101v0.2h-6.3V101c0-0.6,1.5-1.4,2.2-2.1l1.7-0.5C53.7,99.2,56.1,100.2,56.1,101z M50.9,94.5l3.6-1
			c0.3-0.1,0.7,0.1,0.7,0.4c0.1,0.3-0.1,0.7-0.4,0.7l-3.6,1c-0.3,0.1-0.7-0.1-0.8-0.4C50.4,94.9,50.6,94.6,50.9,94.5z M55,97.2
			l-3.6,1c-0.3,0.1-0.7-0.1-0.7-0.4c-0.1-0.3,0.1-0.7,0.4-0.8l3.6-1c0.3-0.1,0.7,0.1,0.7,0.4C55.5,96.7,55.3,97.1,55,97.2z M58.3,87
			v1.2c0,1.7-1.3,2.6-2.4,3.4c-0.5,0.3-1.4,1-1.4,1l-2.4,0.6c-0.4-0.6-1.3-1.1-2.1-1.6c-1.1-0.8-2.4-1.7-2.4-3.4V87H58.3z
			 M49.1,83.6c0.9,0,1.6,0.1,2.4,0.3c0,0,1-0.2,2-0.2c1.1,0,2.2,1.1,2.2,1.1l-0.1,0.6c0,0-0.5,0.6-2,0.6c-0.9,0-1.6-0.6-2.3-0.8
			c-0.6-0.2-1.5-0.3-2.2-0.3c-1.3,0-3,1.2-3,3.4c0,1.9,1.1,2.8,2.2,3.7c1.3,1,2.2,1.4,2.5,1.7l-0.2,0c-0.3,0.1-0.6,0.3-0.8,0.6
			c-2.3-0.9-5.1-2.5-5.1-5.9C44.8,85.2,47.2,83.6,49.1,83.6z"/>
		<path fill="#FFFFFF" d="M104.9,88.9c0-2.9-2-4.8-5-4.8H96l-1.9-4.8c0.2-0.5,0.3-1,0.3-1.6c0-2.3-1.9-4.2-4.2-4.2
			c-2.3,0-4.2,1.9-4.2,4.2c0,0.6,0.1,1.1,0.3,1.6l-1.9,4.8h-3.8c-3,0-5,1.9-5,4.8c0,2.3,1.9,4.1,4.2,4.1c0.5,0,0.9-0.1,1.3-0.3
			l-1.7,4.3l-1.5,3.7c-0.4,1,0.3,1.2,0.3,1.2l0.9,0.4c0.5,0.3,1-0.1,1.2-0.6l1-1.7v0.4h1.2h15.5h1.2v-0.5l1,1.7
			c0.3,0.5,0.7,0.9,1.2,0.6l0.9-0.4c0,0,0.6-0.3,0.3-1.2l-1.5-3.7l-1.7-4.3c0.4,0.2,0.8,0.2,1.3,0.2C103,93,104.9,91.2,104.9,88.9z
			 M90.3,74.8c1.6,0,3,1.3,3,3c0,1.6-1.3,3-3,3c-1.6,0-3-1.3-3-3C87.3,76.1,88.7,74.8,90.3,74.8z M79.8,91.8c-1.6,0-2.9-1.3-2.9-2.9
			c0-2.2,1.5-3.6,3.8-3.6h3.4l-1.2,3c-0.4-1-1.4-1.7-2.6-1.7c-1.3,0-2.2,0.9-2.2,2.1c0,1.1,0.8,1.9,1.9,1.9c0.3,0,0.6-0.3,0.6-0.6
			c0-0.3-0.3-0.6-0.6-0.6c-0.3,0-0.7-0.1-0.7-0.7c0-0.6,0.5-0.9,1-0.9c1,0,1.6,0.7,1.6,1.9C82,90.9,81.1,91.8,79.8,91.8z
			 M79.4,101.4l-0.3-0.2c0,0,5.6-14.4,8.1-20.7c0.4,0.4,0.9,0.8,1.4,1l1.1,1.9L79.4,101.4z M89.9,85.3h0.9l2.1,3.6h-5L89.9,85.3z
			 M84.6,99.6h-2.1v-1.5l2.1-3.6V99.6z M94.7,99.6h-2.1V92c0-0.4-0.3-0.7-0.7-0.7c-0.4,0-0.7,0.3-0.7,0.7v7.6h-2.1V92
			c0-0.4-0.3-0.7-0.7-0.7c-0.4,0-0.7,0.3-0.7,0.7v7.6h-2.1v-7.4l1.2-2.1h6.4l1.2,2.1V99.6z M98.1,99.6H96v-5.1l2.1,3.6V99.6z
			 M101.5,101.2l-0.3,0.2L90.1,81.9c0.1,0,0.2,0,0.2,0c1.2,0,2.3-0.5,3.1-1.4C95.9,86.9,101.5,101.2,101.5,101.2z M98.6,89.7
			c0-1.2,0.6-1.9,1.6-1.9c0.5,0,1,0.3,1,0.9c0,0.6-0.4,0.7-0.7,0.7c-0.3,0-0.6,0.3-0.6,0.6c0,0.3,0.3,0.6,0.6,0.6
			c1.1,0,1.9-0.8,1.9-1.9c0-1.2-1-2.1-2.2-2.1c-1.2,0-2.1,0.6-2.6,1.7l-1.2-3h3.4c2.4,0,3.8,1.4,3.8,3.6c0,1.6-1.3,2.9-2.9,2.9
			C99.5,91.8,98.6,90.9,98.6,89.7z"/>
		<circle fill="#FFFFFF" cx="53.7" cy="84.6" r="0.3"/>
		<path fill="#FFFFFF" d="M89.2,48.9c0,0.4,0.4,1,0.6,1.2c0.4,0.3,1.1,0.5,1.2,0.5c0,0,0,0,0,0c0-0.2-0.1-0.4-0.1-0.6
			c0-2.2,2.1-3.6,2.1-3.6s0.1-0.2,0.1-0.4l-0.3-1.5c0-0.2,0-0.3-0.3-0.2l-1.2,0.2c-1.3,1.5-2.3,2.2-2.5,2.4
			C89.2,47.8,89.2,48.4,89.2,48.9z M89.9,47.3c0.9-0.7,1.5-1.4,1.9-1.8l0.2-0.1l0.3-0.1l0,0.1c0,0.2,0.1,0.4,0.1,0.5l0,0.1l0,0
			c-0.8,0.7-1.7,1.5-2.1,3l-0.1,0.3L90,49.1l0-0.1c0-0.1,0-0.5,0-0.5c0-0.1,0-0.1,0-0.2c0-0.3,0-0.6-0.1-0.9L89.9,47.3L89.9,47.3z"
			/>
		<path fill="#FFFFFF" d="M93.7,43.7c0.1,0.4,0.1,2.2,0.1,2.2c0.2-0.2,0.7-0.7,0.7-1.3c0-0.9-0.3-2-0.3-2c-0.1-0.1-0.8-1-1.2-1
			c-0.2,0-0.4,0.2-0.5,0.7c-0.1,0.4-0.6,1-0.7,1.1l0,0.1C92.5,43.4,93.6,43.4,93.7,43.7z"/>
		<path fill="#FFFFFF" d="M46.1,53.5l1,1.2c0.5-0.4,1.1-0.8,1.7-1.1c0-0.1,0-0.2,0-0.2c0-0.2,0-0.4,0.1-0.6c0.2-0.4,0.4-0.7,0.8-0.9
			c0.2-0.1,0.4-0.2,0.7-0.2c0.5,0,0.9,0.2,1.2,0.6c0.6-0.2,1.2-0.4,1.8-0.5l-0.3-1.5c-1.2,0.2-2.5,0.6-3.7,1.2
			C48.2,52,47.1,52.7,46.1,53.5z"/>
		<path fill="#FFFFFF" d="M43.8,50.5l0.9,1.2c0.7-0.6,1.6-1.2,2.4-1.6c0-0.1,0-0.1,0-0.2c0-0.6,0.4-1.2,0.9-1.5
			c0.2-0.1,0.4-0.2,0.7-0.2c0.5,0,0.9,0.2,1.2,0.5c0.9-0.3,1.8-0.6,2.7-0.7c0-0.2-0.3-1.5-0.3-1.5c-1.5,0.3-3.1,0.8-4.5,1.4
			C46.4,48.7,45,49.6,43.8,50.5z"/>
		<path fill="#FFFFFF" d="M45.6,46.7c0,0,0-0.1,0-0.2c0-0.6,0.4-1.2,0.9-1.5c0.2-0.1,0.5-0.2,0.7-0.2c0.4,0,0.9,0.2,1.2,0.5
			c1.1-0.4,2.3-0.8,3.4-1c-0.2-0.6-0.3-1-0.3-1.2c-0.1,0-0.2,0-0.3,0c-0.4,0-0.9,0.1-1.6,0.2l-0.2,0.1c-0.4,0.1-1,0.3-1.6,0.3
			c-0.8,0-1.5-0.3-2-0.8c-0.2-0.3-0.3-0.3-0.3-0.3c0,0-0.1,0-0.2,0.1c-0.2,0.1-0.2,0.1-0.2,0.2c0,0.1,0,0.2,0,0.3c0,0.1,0,0.3,0,0.4
			c0,1.4-1.3,2.3-1.9,2.7l-0.2,0.1c-0.9,0.7-1.2,1.1-1.4,1.3c0.1,0.2,0.3,0.5,0.7,1C43.4,48,44.5,47.3,45.6,46.7z"/>
		<path fill="#FFFFFF" d="M79.9,47.6c0.7,0.2,1.9,0.5,1.9,0.5c0.4-1.6,1.5-2.5,2-2.9c-0.4-0.4-1.2-1.4-1.9-2.5
			c-0.8,0.4-1.7,0.7-2.1,0.8c0.1,0.4,0.3,1.4,0.3,2.7C80.1,46.9,80,47.4,79.9,47.6z M81.6,43.6c0.4,0.6,0.8,1.1,1.2,1.5
			c0,0-0.8,0.6-1.4,2.1c-0.3-0.1-0.4-0.1-0.7-0.2c0-0.3,0.1-0.6,0.1-0.8c0-0.8-0.1-1.5-0.2-2.2C80.9,43.9,81.2,43.8,81.6,43.6z"/>
		<path fill="#FFFFFF" d="M63.7,45.2c0.5,0.3,1.6,1.3,2,2.9c0.4-0.1,1.2-0.3,1.9-0.5c-0.1-0.3-0.2-0.7-0.2-1.4
			c0-1.3,0.2-2.3,0.3-2.7c-0.4-0.1-1.2-0.4-2.1-0.8C64.9,43.8,64,44.8,63.7,45.2z M66.9,44c-0.1,0.7-0.2,1.5-0.2,2.2
			c0,0.3,0,0.6,0.1,0.8c-0.3,0.1-0.4,0.1-0.7,0.2c-0.6-1.5-1.4-2.1-1.4-2.1c0.4-0.4,0.8-1,1.2-1.5C66.2,43.8,66.5,43.9,66.9,44z"/>
		<path fill="#FFFFFF" d="M64.7,53c2.6-0.5,4.4-1.3,5.1-1.6c-0.4-0.4-1.2-1.3-1.8-2.5c-0.3,0.1-1,0.3-2.2,0.6
			C65.8,51.2,65.2,52.4,64.7,53z M66.5,50c0.3-0.1,0.8-0.2,1.1-0.3c0.3,0.5,0.6,1,1,1.4c-0.7,0.3-1.4,0.5-2.6,0.8
			C66.3,51.4,66.4,50.7,66.5,50z"/>
		<path fill="#FFFFFF" d="M72.1,51.5c0.3,0.2,1,0.7,1.6,1c0.7-0.3,1.3-0.8,1.7-1c-0.4-0.3-1.1-1-1.7-1.9
			C73.2,50.6,72.5,51.2,72.1,51.5z M73.7,50.8c0.2,0.2,0.3,0.4,0.5,0.6c-0.2,0.1-0.4,0.2-0.5,0.3c-0.1-0.1-0.3-0.2-0.5-0.3
			C73.4,51.2,73.6,51,73.7,50.8z"/>
		<path fill="#FFFFFF" d="M65.1,41c0.3-0.5,1-1.8,1-2.8c0-0.5-0.4-1.4-1.1-1.4c-0.7,0-1.3,1-1.3,2C63.7,40,64.7,40.8,65.1,41z
			 M65,37.5c0.2,0,0.4,0.5,0.4,0.7c0,0.3-0.1,0.9-0.5,1.8c-0.4-0.4-0.5-0.8-0.5-1.1C64.4,38.1,64.8,37.5,65,37.5z"/>
		<path fill="#FFFFFF" d="M82.7,53c-0.5-0.6-1.1-1.8-1.1-3.5c-1.2-0.3-1.8-0.5-2.2-0.6c-0.6,1.2-1.4,2.1-1.8,2.5
			C78.3,51.7,80.1,52.5,82.7,53z M79.8,49.7c0.4,0.1,0.8,0.2,1.1,0.3c0,0.7,0.2,1.3,0.4,1.9c-1.1-0.3-1.9-0.5-2.6-0.8
			C79.2,50.7,79.5,50.2,79.8,49.7z"/>
		<path fill="#FFFFFF" d="M70.2,46.9c0.1,0,0.2-0.1,0.2-0.1c0,0,0,0,0-0.1c0-0.3,0.2-0.6,0.5-0.6c0.1,0,0.1,0,0.2,0
			c0.3,0,0.6,0.2,0.6,0.5c0.2,0.6-0.3,1.3-1.1,1.6l-1.3,0.4c0.4,0.7,0.9,1.5,1.7,2.1c1.3-1,2-2.1,2-3.3c0-1.8-1.9-2.6-4-3.3
			c-0.1,0.7-0.2,1.5-0.2,2.3c0,0.3,0,0.7,0.1,1L70.2,46.9z M72.3,47.3c0,0,0.1,1.2-1.3,2.4c-0.2-0.2-0.5-0.5-0.6-0.8
			C72.2,48.5,72.3,47.3,72.3,47.3z M69.5,45c0.8,0.3,1.6,0.6,1.6,0.6s-0.8-0.1-1.3,0.7c-0.1,0-0.2,0.1-0.3,0.1c0,0,0-0.1,0-0.1
			C69.4,45.8,69.5,45.4,69.5,45z"/>
		<path fill="#FFFFFF" d="M83.8,38.8c0-1-0.7-2-1.3-2c-0.7,0-1.1,0.9-1.1,1.4c0,1,0.7,2.4,1,2.8C82.8,40.8,83.8,40,83.8,38.8z
			 M82.4,37.5c0.3,0,0.6,0.6,0.6,1.3c0,0.3-0.1,0.7-0.5,1.1c-0.4-0.9-0.5-1.4-0.5-1.8C82,38,82.2,37.5,82.4,37.5z"/>
		<path fill="#FFFFFF" d="M76.4,50.6c0.7-0.7,1.3-1.4,1.7-2.1l-1.3-0.4c-0.8-0.3-1.2-1-1.1-1.6c0.1-0.3,0.3-0.5,0.6-0.5
			c0.1,0,0.1,0,0.2,0c0.3,0.1,0.5,0.3,0.5,0.6c0,0,0,0,0,0.1c0,0,0.1,0.1,0.2,0.1l1.4,0.4c0.1-0.3,0.1-0.7,0.1-1
			c0-0.8-0.1-1.5-0.2-2.3c-2.1,0.7-4,1.6-4,3.3C74.5,48.6,75.1,49.7,76.4,50.6z M77.9,45c0,0.4,0.1,0.9,0.1,1.3c0,0,0,0.1,0,0.1
			c-0.1,0-0.2-0.1-0.3-0.1c-0.5-0.8-1.3-0.7-1.3-0.7S77.1,45.2,77.9,45z M75.1,47.3c0,0,0.2,1.2,2,1.7c-0.2,0.3-0.4,0.5-0.6,0.8
			C75,48.4,75.1,47.3,75.1,47.3z"/>
		<polygon fill="#FFFFFF" points="99.6,52.3 99.9,50.2 102,49.8 100.1,48.9 100.4,46.7 98.9,48.3 96.9,47.4 96.9,47.4 97.9,49.3 
			96.4,50.8 98.6,50.4 		"/>
		<path fill="#FFFFFF" d="M92.9,49c-0.2,0.3-0.2,0.7-0.2,1.1c0,0.9,0.4,1.7,1.1,2.2c0,0,1,0.7,1,0.7c0.7,0.5,1.3,0.9,1.6,1.4
			l0.1,0.2l0.4,0c0.6,0,1.3,0.2,1.9,0.4l1.1,0.3c0.2,0,0.5,0.1,0.7,0.1c0.7,0,1.3-0.2,1.8-0.7c0.3-0.3,0.5-0.6,0.7-0.9
			c0.2-0.4,0.3-0.9,0.3-1.5l0-0.8c0-0.4,0-0.8,0.1-1.4c0-0.1,0-0.2,0.1-0.3l0,0l0.1-0.3c0.3-0.7,1-1.1,1.5-1.4l0.3-0.2l-0.2-1.1
			l-0.3-0.1c-0.5-0.1-1-0.3-1.2-0.4c-0.3-0.2-1.6-0.9-1.6-2c0-0.1,0-0.1,0-0.2c0-0.1,0-0.3,0-0.3c0-0.5-0.3-0.7-0.5-0.7
			c-0.1,0-0.2-0.1-0.4-0.1c-0.3,0-0.5,0.2-0.7,0.5c-0.3,0.3-0.7,0.5-1.2,0.5c-0.5,0-0.9-0.1-1.3-0.2c-0.2-0.1-0.7-0.3-1.2-0.7
			l-0.3-0.2L96.5,43c0,0-0.3,0.2-0.5,0.3l-0.3,0.2l0.1,0.3c0.1,0.3,0.1,0.7,0.1,1.1c0,0.4-0.1,0.7-0.2,1l-0.1,0.3
			c0,0.1-0.1,0.1-0.2,0.2c-0.4,0.5-0.9,0.9-1.3,1.3C93.6,48,93.2,48.4,92.9,49z M96.3,46.5c0.7-1,0.4-2.7,0.4-2.7l0,0
			c0.5,0.4,1.1,0.6,1.3,0.7c0.5,0.1,1,0.3,1.6,0.3c0.8,0,1.4-0.3,1.8-0.8c0.1-0.1,0.2-0.2,0.2-0.2c0,0.1,0,0.2,0,0.3
			c0,0.1,0,0.2,0,0.3c0,1.5,1.5,2.5,2.1,2.7c0.2,0.1,0.6,0.3,1.1,0.4l0,0.1c0,0-1,0.4-1.7,1.7c-0.8,1.6-0.2,3.4-0.5,4.1
			c-0.5,0.9-1.3,1.1-1.8,1.1c-0.2,0-0.4,0-0.5-0.1l-1.1-0.3c-0.6-0.2-1.4-0.4-2.2-0.4l0,0c-0.4-0.5-1-1-1.7-1.4
			c-0.1,0-0.9-0.7-1-0.7c-0.5-0.4-1.2-1.4-0.6-2.4C94.2,48.3,95.3,47.9,96.3,46.5z"/>
		<path fill="#FFFFFF" d="M60.4,51.2c0.6,0,0.5-0.7,0.8-0.9c0.2-0.2,0.9-0.1,0.9-0.8c0-0.6-0.7-0.5-0.9-0.8
			c-0.2-0.2-0.1-0.9-0.8-0.9c-0.4,0-0.6,0.3-0.6,0.7v1.8C59.8,50.9,60,51.2,60.4,51.2z"/>
		<path fill="#FFFFFF" d="M40.6,57.6c-0.3-0.3-0.7-0.3-1,0c-0.4,0.5,0.2,0.8,0.2,1.1c0,0.3-0.5,0.8,0,1.2c0.5,0.4,0.8-0.2,1.1-0.2
			c0.3,0,0.8,0.5,1.2,0c0.2-0.3,0.1-0.6-0.2-0.9L40.6,57.6z"/>
		<path fill="#FFFFFF" d="M115.2,75c1.4-0.3,2.6-1.7,2.6-3.3c0-1-0.4-2.5-2.4-3.7c-0.3-0.2-0.5-0.3-0.8-0.4c1.4-0.5,2.2-1.5,2.2-2.9
			c0-0.9-0.7-1.7-1.7-1.7c-0.4,0-0.9,0.2-1.2,0.5c-0.3,0.3-0.4,0.6-0.5,1c-0.2,0.1-0.7,0.2-2.1,0.2c-0.5,0-1-0.1-1.6-0.2
			c0.3-0.1,1.3-1,1.6-1.3c0.4-0.3,1.3-0.6,1.7-1.3c1.1-1.9,1.5-2.9,2-4.7c0.2-0.9,0.3-1.7,0.3-2.4c0-0.7-0.1-1.2-0.2-1.7l-0.1-0.7
			c-0.1-0.6-0.2-2.2-1.6-2.6c0,0-2.4-3.6-2.5-3.7c-0.1-0.1-0.2-0.2-0.3,0c-0.1,0.1-1,1.2-1,1.2c-0.2,0-0.6,0.1-1,0.2
			c-0.1-0.1-0.1-0.2-0.2-0.2c-0.1-0.1-0.1-0.1-0.2-0.2l-0.4-2.7l-0.3,0.1c0,0-1.4,0.2-1.5,0.2c-0.1,0-0.4-0.1-0.8-0.3
			c-0.1-0.1-0.3-0.2-0.5-0.4c0-0.1,0-0.3,0-0.4c0-1.3-0.7-2.3-1.8-2.9c-0.8-0.4-2.2-0.7-3.7,0.7c-0.1,0-0.3-0.1-0.6-0.1
			c-0.4-0.2-0.6-0.3-0.6-0.4l-0.9-1.6l-2.2,1.3c-1.3-1.1-1.9-1.4-2.7-1.1c-0.3,0.1-0.6,0.3-0.9,0.7c0.1-0.2,0.1-0.4,0.1-0.6
			c0-0.9-0.7-1.6-1.6-1.6c-0.1-0.1-0.2-0.1-0.3-0.2c-0.2-0.5-0.7-1.7-0.8-1.8c-0.1-0.1-0.2-0.2-0.3-0.1c-0.1,0.1-2.6,2.1-2.6,2.1
			c-0.3-1.6-1.5-2.8-2.9-3.1v-2.5h-1.3v-0.1c0-3.4-2.3-5.9-5.5-5.9c-0.1,0-0.3,0-0.5,0.1v-2.3h2.4v-3.8h-2.4v-2.5h-3.9v2.5h-2.4v3.8
			h2.4v2.3c-0.3,0-0.5-0.1-0.8-0.1c-3.3,0-5.5,2.4-5.5,6h-1.5v2.5c-1.5,0.4-2.6,1.8-2.8,3.6l-1.2-1c-0.1,0-2.2-1.9-2.2-1.9l-0.2-0.2
			l-4.5,5.4c-0.5-0.4-1.2-0.5-2.1-0.5c-1.5,0-3,0.6-3.3,0.6c-1.5-1.5-3-1.1-3.8-0.8c-0.9,0.4-1.9,1.2-1.9,2.9c0,0.1,0,0.3,0,0.5
			c-0.1,0.1-0.2,0.2-0.6,0.4c0,0-0.3,0.2-0.3,0.2c-1.6,1.2-2.5,2.3-2.6,3.5h-7.1l0,6.5h4.9c-0.3,0.3-2.2,1.8-2.2,4.8
			c0,3.6,3,5.3,3.3,5.5c-0.6,0.2-1.1,0.3-1.7,0.3c-1.3,0-1.9-0.1-2.1-0.2c-0.1-0.8-0.8-1.5-1.7-1.5c-1,0-1.7,0.8-1.7,1.7
			c0,2,1.6,2.8,2.2,3c-0.2,0.1-3.2,1.4-3.2,4.1c0,1.8,1.2,3.1,2.7,3.4c-5.7,8.2-9.1,18.3-9,29c0.2,27.9,23,50.4,50.8,50.2
			c27.9-0.2,50.4-23,50.2-50.8C124.2,92.9,120.8,83.1,115.2,75z M112.1,59.3c-0.1,1.4-0.8,2.7-2,3.6c-0.9,0.8-2,1.2-3,1.3
			c1.1,0.7,2.7,1.4,4.4,1.4c2.7,0,3.1-0.6,3.1-1c0-0.2,0.1-0.3,0.2-0.5c0.1-0.1,0.3-0.2,0.5-0.2c0.4,0,0.7,0.3,0.7,0.7
			c0,2.4-3.1,2.4-4.4,2.4l-0.5,0c0.3,0.2,0.8,0.4,0.8,0.4c1.9,0.9,1.9,0.9,1.9,0.9c0.5,0.2,0.8,0.3,1.2,0.6c1.3,0.8,1.9,1.8,1.9,2.9
			c0,1.2-0.9,2.4-2.2,2.4c-1.2,0-2-0.9-2-2.2c0-0.4,0.3-0.7,0.7-0.7c0.4,0,0.7,0.3,0.7,0.7c0,0.7,0.4,0.9,0.6,0.9
			c0.4,0,0.9-0.4,0.9-1.1c0-0.6-0.4-1.2-1.3-1.7c-0.4-0.2-0.6-0.3-1-0.5l-2-0.9c0,0-2-1-2.3-1.2h0l0,0c-1.3-0.8-2.6-1.8-3.8-2.9
			l-0.5-0.4l0.1-0.1c0,0,0.9,0.3,1.1,0c0.3-0.3,0.1-1.1,0.1-1.1l0.3,0.1c0,0,0.2,0,0.2,0c0.1,0,0.2,0,0.3,0c1.3,0,2.4-0.7,2.7-1
			c0.9-0.7,1.4-1.7,1.5-2.7c0-0.1,0-0.2,0-0.4c0-1.1-0.4-2-0.8-2.4c-0.2-0.2-0.3-0.4-0.3-0.6c0-0.2,0-0.3,0.1-0.4
			c0.1-0.1,0.3-0.2,0.4-0.2c0.2,0,0.5,0.1,0.7,0.4c0.7,0.8,1.1,2,1.1,3.2C112.1,58.9,112.1,59.1,112.1,59.3z M112.1,71
			c-0.7-0.8-1-1.1-1.7-1.9l2.1,0.9c0.4,0.2,0.5,0.3,0.5,0.3C112.4,70.5,112.2,70.9,112.1,71z M86.7,38.6l0.7,0.1l-0.2-0.5l0.6,0.3
			l0.1-0.7l0.4,0.4l0.2-0.6l0.4,1c0.3,0,0.5,0.2,0.8,0.4c0.1,0,0.7,0,0.8,0.3c0.2,0.5-1,0.7-1,0.9c0,0.1,0.3,0.3,0.6,0.5
			c0.5,0.3,1.2,1.1,1.3,1.4c0.1-0.1,0.5-0.6,0.6-0.7c0.2-0.2,0.7-0.8,0.9-0.9c0.4-0.2,0.8,0.4,1.1,0.6c0.5,0.3,0.9,0.8,1,0.9l2-1.2
			c0,0,0.8,1.7,2.6,1.7c0.3,0,0.6-0.1,0.7-0.2c0.7-0.9,1.6-1.1,2.5-0.6c0.9,0.4,1.3,1.2,1.1,2.3c-0.1,0.5,0.8,1.2,1.2,1.4
			c0.5,0.2,1.1,0.4,1.5,0.4l0.6-0.1l0.5,3c-2.4,1.3-2.5,1.3-2.5,3.7c0,0.8,0,1.7-0.4,2.5c-0.2,0.4-0.5,0.9-1,1.3
			c0,0-0.1,0.1-0.1,0.1c0,0.1,0,0.2-0.1,0.3l0.6,1.1c0.2-0.1,1.3-1,1.4-1.2c0.1-0.2,0-1.6,0-1.6s0.3-0.5,0.3-2.4
			c0-1.7,0.1-2,0.7-2.4c0.3-0.2,0.9-0.7,1.4-0.9c-0.1,0.7-1.1,1-1.1,1.3c0,0.3,0.2,0.5,0.3,0.6l0.2-0.2c0.2-0.2,0.5-0.2,0.6-0.2
			c0.3-0.2,0.6-0.5,1-0.6c0.4,0,0.8,0.2,1,0.2l0.2-0.2c-0.1-0.1-0.3-0.5-0.3-0.7c0-0.3-0.2-0.5-0.7-0.4l0.2-0.3
			c0.2-0.3,0.6-0.3,0.7-0.3c0.2-0.1,0.4-0.1,0.6,0l0.6-0.7l0.1,0.6l0.4,0l-0.1,0.5l0.4,0.1l-0.1,0.4l0.4,0.2l-0.8,0.3
			c0,0.5-0.1,0.9-0.7,1.4c0,0.1,0.1,0.2,0.1,0.3c0,0.7-0.6,1-0.8,1l-0.1,0.7c0.1,0.1,0.4,0.2,0.6,0.2c1.6-0.1,1.4-2.7,2.5-2.6
			c1,0,1.1,0.9,1.1,1.7c0.1,1.2,0.5,2.1,0,4.4c-0.3,1.4-0.7,2.3-1.4,3.6c0.1-0.3,0.2-0.7,0.2-1.1l0-0.6c0-1.4-0.5-2.8-1.3-3.7
			c-0.5-0.5-0.9-0.6-1.2-0.6c-0.4,0-0.7,0.2-1,0.4c-0.2,0.2-0.3,0.6-0.3,0.9c0,0.4,0.2,0.8,0.5,1.1c0.3,0.3,0.6,1.1,0.6,1.9l0,0.3
			c-0.1,0.8-0.5,1.5-1.1,2.1c0-0.1,0-0.1,0-0.2c0.1-0.4,0.3-0.9,0.4-1.2c0-0.1,0.1-0.5,0.1-0.8c0-0.2,0.2-0.8,0.3-1.1
			c-0.3,0.2-1,1-1.5,1c-0.1,0-0.3,0-0.3,0c0,0.2,0,0.9,0,1.1c0,0.2-0.4,2.1-0.4,2.1c0,0,0,0,0,0l-0.6,0.1c0,0,0,0,0,0
			c0,0-0.5-0.4-0.5-0.4l0.3-1.8l-0.5,1.2c0,0-0.2-0.3-0.3-0.5c-0.1-0.1-0.2-0.1-0.3-0.1l-0.9,1.7c0.1,0.1,0.5,0.6,0.6,1.1l-0.2,0.1
			c0-0.1-0.4-0.6-0.7-0.6c-0.2,0-0.6,0.4-0.7,0.5l-0.2-0.1c0-0.1,0.1-0.3,0.3-0.6c-0.1,0-0.2-0.1-0.4-0.1c-0.3,0-0.7,0.2-0.8,0.3
			l-0.1-0.2c0,0,0.4-0.4,0.8-0.5c-0.1-0.1-0.1-0.1-0.2-0.1c-0.2,0-0.5,0-0.5,0l0-0.2c0,0,0.3-0.2,0.5-0.2c0.4,0,0.7,0.3,1.1,0.3
			l0.9-1.8c0-0.7,0.3-0.8,0.3-1.3c0-0.2,0-0.4,0-0.4c-0.1,0-1.1,0.4-1.3,0.4c-0.2,0-0.2-0.6-0.2-0.8l-0.6-1
			c-0.5,0.2-0.8,0.2-1.2,0.1l-0.1-0.1c0,0,0,0,0,0c-0.6,0.2-1.3,0.2-2,0l0,0l-1.6-0.4c-0.4-0.1-0.8-0.2-1.1-0.3
			c-0.4,0.1-1.1,0.7-1.3,0.8c-0.1,0.1-0.4,0.2-0.5,0.1c-0.2-0.1-0.3-0.3-0.3-0.5c0-0.2,0.1-0.8-0.2-1.4c-0.3-0.2-0.6-0.5-1-0.8
			l-1.3-0.9l-0.1-0.1c-0.7-0.5-1.2-1.2-1.4-2l-0.1,0l-0.3-0.3L90,51.2c0,0-0.8-0.9-1.4-1.1l-0.2-0.3c0,0,0.1-0.4,0-0.7
			c-0.1-0.2-0.3-0.4-0.4-0.4c-0.1,0.2-0.5,0.7-0.8,1.1c-0.3,0.5-0.9,0.9-1,1.1c0.1,0.6,0.2,1.3,0.3,1.9c0,0.1,0.2,0.2,0.3,0.4
			c0.1,0.2,0.6,0.7,0.7,0.8c0,0.1,0,0.3-0.1,0.3c-0.2,0.1-0.5-0.1-0.7-0.2L86.3,54l-0.1-0.4l-0.4-0.4c-0.1-0.6-0.1-1.1-0.3-1.7
			c-0.1-0.4-0.3-0.7-0.3-0.7l0.1-0.2c0.3-0.4,0.9-1.2,0.7-1.7c-0.1-0.2-0.3-0.3-0.4-0.5c-0.2-0.2-0.3-0.3-0.5-0.5
			c-0.3,0.1-0.7,0.1-0.9-0.3c-0.1-0.1,0-0.3,0-0.4c0.1-0.2,0.3-0.3,0.3,0c0,0,0,0.1,0,0.2c0.1,0.2,0.3,0.1,0.5,0
			c0-0.4,0.1-0.8,0.3-1.2c0.3-0.5,0.9-1,1-1c0.1-0.1,0.3-0.4,0.7-0.8c0.2-0.2,0.4-0.4,0.7-0.6c0.9-0.6,1.3-1.4,1.4-1.5l-0.1-0.7
			c-0.4-0.4-0.9-0.9-1.1-1.4c0-0.1-0.1-0.2-0.1-0.3c-0.3,0-1.3-0.3-1.5-0.7l0.9-0.1L86.7,38.6z M99.6,58.4c-0.6-0.8,0.8-1.1,1.1-0.8
			c0.7,0.9,1.6,2,2.5,3.1l0.3,0.4H103c-0.3,0-0.7,0.2-0.8,0.3l-0.2,0.1l-0.2-0.1C101,60.2,100.2,59.2,99.6,58.4z M101,61.3
			c-1.9-1.2-3.8-2.3-5.8-3.2c0.5,0.2,1.2-0.1,1.5-0.4c0.3-0.3,0.5-0.4,0.6-0.4c0.2,0,0.4,0.1,0.6,0.2c0.3,0.3,0.8,1,1.2,1.5
			C99.6,59.6,100.2,60.4,101,61.3z M101.9,58c0.3,0.1,0.6,0.1,0.9,0c0.1,0.1,0.1,0.2,0.1,0.3c0,0.3,0,0.8,0.4,1.2l0.8,0.3
			c0,0-0.2,0.2-0.3,0.5C103,59.4,102.4,58.7,101.9,58z M88,54.5c0.1-0.1,0.1-0.3,0.1-0.4c0-0.1,0-0.2-0.1-0.3l0,0l0,0v-0.2
			c0,0,2.8,0,3.6,0c0.8,0,1,1.3,0.3,1.3l-4,0.1L88,54.5z M87.5,52.8c0,0-0.2-0.2-0.3-0.3c0-0.4-0.1-0.8-0.2-1.2c0,0,0-0.2,0-0.4
			c0.3-0.3,0.6-0.7,0.6-0.7l0,0.4c0.1,0.1,0.3,0.4,0.3,0.4s0.1,0,0.3,0.1c0,0,0.2,0.1,0.3,0.1l1,0.9c0,0,0.6,0.1,0.8,0.1
			c0,0,0,0,0,0c0.1,0.2,0.2,0.4,0.3,0.6C89.8,52.8,88.7,52.8,87.5,52.8z M91.7,55.5c0.6,0,1.5-0.1,2,0c0.2,0.1,0.4,0.3,0.5,0.4
			c0.1,0.2,0,0.5,0,0.9c0,0.4,0.3,0.9,0.7,1.2c-2-0.9-4.1-1.7-6.2-2.4C89.9,55.5,90.9,55.5,91.7,55.5z M84.6,51.9
			c-0.8-0.8-0.9-1.9-0.9-2.3c0,0,0,0,0,0c0-0.3,0.1-0.7,0.1-1c0.2,0.2,0.5,0.2,0.8,0.3c0.1,0.1,0.3,0.3,0.3,0.3
			c-0.2,0.4-0.7,1-0.7,1L84.1,51C84.1,51,84.5,51.5,84.6,51.9z M87.1,40.8c0.2,0.5,0.6,1,1,1.3c0,0,0,0,0,0c-0.2,0.2-1,0.9-1.5,1.4
			c-0.5,0-1.1,0.2-1.4,0.3c-0.3-0.3-0.7-0.9-1.2-1.5c1.5-1.2,1.7-2.3,1.7-2.3S86.3,40.6,87.1,40.8z M71.1,27.5
			c0.8,0,1.4,0.2,1.9,0.4v-5h-2.4v-1.5H73v-2.5h1.7v2.5h2.4v1.5h-2.4v4.9c0.5-0.2,1-0.3,1.7-0.3c2.5,0,4.3,1.9,4.3,4.7
			c0,0,0,0,0,0.1H79c-0.1-1.5-1-3.1-2.9-3.1c-1.2,0-1.9,0.8-2.4,1.4c-0.4-0.6-1.1-1.4-2.4-1.4c-2.1,0-2.9,1.6-2.9,3.1h-1.6
			c0,0,0,0,0-0.1C66.8,29.4,68.6,27.5,71.1,27.5z M65,33.1h17.2v1.3H65V33.1z M73.7,41c-2,0-4.6-2.6-6-5.6h1.7c1.1,2.1,2.9,4,4.2,4
			c1.4,0,3.1-1.8,4.2-4h1.8C78.4,38.3,75.7,41,73.7,41z M80.2,41.3c-0.1,0-0.2,0.1-0.3,0.1c-0.3-0.7-0.7-1.4-1.1-2.1
			c0.2-0.2,0.4-0.5,0.6-0.7C79.4,39.4,79.7,40.3,80.2,41.3z M76.7,41.2c0.2,0.4,0.4,0.7,0.6,1.1c-1.3,0.5-2.6,1.1-3.5,2
			c-0.9-0.9-2.2-1.5-3.5-2c0.2-0.4,0.4-0.8,0.6-1.1c1,0.7,2,1.1,3,1.1C74.7,42.2,75.7,41.8,76.7,41.2z M68.7,39.2
			c-0.4,0.7-0.8,1.4-1.1,2.1c-0.1,0-0.2-0.1-0.3-0.1c0.5-1,0.8-1.9,0.8-2.8C68.3,38.8,68.5,39,68.7,39.2z M65,35.5
			c1.4,0,2.4,1.4,2.4,2.7c0,1.4-0.8,2.9-1.1,3.4c0.6,0.2,1.1,0.4,1.7,0.6c0.2-0.6,0.6-1.7,1.4-2.8l0.2-0.2l0.2,0.2
			c0.2,0.2,0.4,0.4,0.7,0.6l0.1,0.1l-0.1,0.2c-0.7,1.1-1,2-1.2,2.4c1.7,0.6,3.5,1.3,4.4,2.7c0.9-1.4,2.7-2,4.4-2.7
			c-0.2-0.7-0.7-1.6-1.2-2.4l-0.1-0.2l0.1-0.1c0.2-0.2,0.4-0.4,0.7-0.6l0.2-0.2l0.1,0.2c0.8,1.2,1.2,2.3,1.4,2.8
			c0.6-0.2,1.3-0.5,1.7-0.6c-0.3-0.6-1.1-2.1-1.1-3.4c0-1.3,1-2.7,2.4-2.7c1.5,0,2.7,1.5,2.7,3.4c0,1.4-0.7,2.4-2.1,3.3
			c0.8,1.2,1.6,2.1,1.9,2.4c0.1,0,1.3-0.4,1.3-0.4l-0.8,0.6c-1,0.7-1.1,1.4-1.1,1.4h-0.1c-0.5,0-0.9,0.5-0.9,1.1c0,0,0,0.1,0,0.2
			l0,0.1l0,0.1C83.1,48.3,83,49,83,49.6c0,0.2,0.1,2.4,1.9,3.4l0.1,0l0.1,0.5c0.1,0.1,0.4,0.4,0.4,0.4l0.2,0.5l0.3,0.3l-0.6,0
			c-5.6-0.5-8.3-2-8.9-2.3c-0.6,0.4-2.3,1.6-2.8,1.6c-0.6,0-2.3-1.2-2.8-1.6c-0.8,0.4-4.9,2.5-11.4,2.5c-1.1,0-2.3,0-3.3,0
			c-0.3,0-0.4-1.3,0-1.3c0.4,0,2.6,0,3.7,0h0.3c3.1,0,4.2-2,4.2-3.9c0-1.1-0.4-2.1-1.1-2.9c-0.9-0.9-1.9-1.2-2.6-1.2
			c-2.6,0-4,1.7-4,1.7c-0.1,0.2-0.3,0.2-0.5,0.2c-0.2,0-0.3-0.1-0.4-0.2c-0.1-0.1-0.2-0.3-0.2-0.5c0-0.2,0-0.4,0.2-0.5
			c0.1-0.1,1.8-2.2,5-2.2c0.8,0,1.4,0.2,1.7,0.4c0.8-0.9,1.6-2,1.9-2.4c-0.6-0.3-2-1.4-2-3.3C62.3,37,63.6,35.5,65,35.5z M52.3,56.7
			c0,0.2-0.1,0.4-0.3,0.5c-0.2,0.1-0.4,0-0.5-0.1c0,0-0.6-0.7-1.4-0.8c0.6-0.5,1.7-1,2.4-1.1C52.2,55.8,52.3,56.7,52.3,56.7z
			 M52.3,58c-2,1-4,2.1-5.9,3.3c0.8-0.9,1.4-1.7,1.9-2.4c0.5-0.6,1.2-1.5,1.4-1.7c0.4-0.1,0.9,0.4,1,0.5
			C51.2,58.1,51.8,58.2,52.3,58z M53.2,56.7c0-0.1,0-0.3,0-0.4c0-0.3,0.1-0.7,0.3-0.9c0.3-0.1,1.5,0,2.2,0c0.8,0,1.9,0.1,3,0.1
			c-2.1,0.7-4.2,1.5-6.2,2.4C52.9,57.7,53.2,57.2,53.2,56.7z M55.1,48.7L55.1,48.7l3.3-0.1c0-0.1,0-0.1,0-0.2c0-1.1,0.9-2,2-2
			c1.3,0,1.8,1.1,1.9,1.3c0.3,0.1,1.3,0.6,1.3,1.9c0,1.3-1.1,1.8-1.3,1.9c-0.1,0.3-0.6,1.3-1.9,1.3c-1.2,0-2-1-2-2
			c0-0.1,0-0.1,0-0.2h-2.7l0-0.1c0,0,0-0.1-0.1-0.1C55,49.9,54.9,49.3,55.1,48.7z M55,46.3l-0.3-1.3c0.8-1,1.4-1.7,1.7-2.1
			c0,0,0.8,0.7,1.3,1.1C56.2,44.8,55.1,45.8,55,46.3z M58.4,52.8c-0.8,0-1.5,0-2.1-0.1c-0.1-0.4-0.1-0.6-0.2-1.1c0.8,0,1.3,0,1.6,0
			C57.7,51.9,58,52.4,58.4,52.8C58.3,52.8,58.3,52.8,58.4,52.8z M61.7,40.2c0,0,0.5,1.3,1.7,2.1c-0.4,0.6-0.9,1.1-1.2,1.5
			c-0.5-0.2-1-0.3-1.5-0.3c-0.7,0-1.4,0.1-2,0.3L61.7,40.2z M57.9,37l1.3,1.1l-0.3,0.4l0.9,0.7l0.3-0.4l0.9,0.8l-1.3,1.6l-0.9-0.8
			l0.3-0.4l-0.9-0.7l-1,1.2l0.9,0.7l0.3-0.4l0.9,0.8l-1.3,1.6l-0.9-0.8l0.3-0.4l-0.9-0.7L54.3,44c0,0,0,0-0.1-0.1
			c-0.5-0.5-0.8-0.8-0.7-1.7L57.9,37z M42,45l0.2-0.2c0.5-0.3,1.2-0.8,1.1-1.4c-0.1-0.7-0.1-1.8,1.1-2.4c1.3-0.6,2.1,0.1,2.6,0.7
			c0.1,0.2,0.4,0.2,0.6,0.2c0.8,0,2-0.6,3.5-0.6c0.9,0,1.6,0.3,1.8,0.9c1.2,3.5,2.5,11.3,2.5,11.3c0,0-2.2,0.1-4.5,1.2
			c-2,0.9-3.8,2.7-3.8,2.7c0,0-5.2-6.1-7.1-9.2C39.5,47.4,40.3,46.3,42,45z M44.2,57.9c0.1-0.2,0.5-0.6,1-1.2
			c0.4,0.4,0.5,0.6,0.7,0.9c-0.4,0.5-0.8,1.1-1.3,1.7c0,0,0,0,0,0C44.6,58.6,44.4,58.1,44.2,57.9z M43.1,57.9
			c0.5,0.4,0.7,0.9,0.7,1.4c0,1.4-0.9,2.2-1.8,2.2c-0.3,0-0.7-0.1-0.8-0.1c-0.1,0.1-0.6,0.3-1,0.3c-1.1,0-2-0.9-2-2
			c0-0.3,0.1-0.6,0.1-0.7c-0.1-0.1-0.3-0.5-0.3-0.8c0-0.5,0.1-1.1,0.5-1.5c0.3-0.4,0.8-0.7,1.4-0.7c0.1,0,0.1,0,0.2,0
			c0.5,0,0.9,0.2,1.3,0.5c0,0,0.1,0.1,0.1,0.1l2-2.4c0,0,0.5,0.1,0.9,0.5c0.3,0.4,0.4,1,0.4,1l-1.8,2.1C43,57.8,43.1,57.8,43.1,57.9
			z M41.9,52.5c-0.2-0.1-0.4-0.2-0.6-0.2c-0.1,0-1.4,0-2.9,0.8c0-0.7,0-1.7,0-1.8c0.5,0,1.4,0,2.7,0C41.2,51.5,41.6,52.1,41.9,52.5z
			 M35.4,52.8v-1.2h0.5v-1.1h-1.6v1.1h0.5l0,1.2h-2.1v-1.2h0.5l0-1.1h-0.5v-1.8h6.7c0.9,0.6,1,1,1,1.8H37v1.1h0.5v1.2L35.4,52.8z
			 M30.6,71.6c0-1.1,0.6-2,1.9-2.8c0.5-0.3,0.8-0.4,1.2-0.6l1.9-0.8l0.8-0.4l-0.5,0c-3,0-4.4-0.8-4.4-2.4c0-0.3,0.3-0.7,0.7-0.7
			c0.4,0,0.7,0.3,0.7,0.7c0,0.2,0.1,0.4,0.2,0.5c0.6,0.6,2.3,0.6,2.9,0.6c1.7,0,3.3-0.7,4.4-1.4c-1.1-0.1-2.1-0.6-3-1.3
			c-1.2-1-1.8-2.2-2-3.6c-0.1-1.4,0.3-2.8,1.1-3.7c2-2.4,4.8-2.5,4.9-2.5c0.4,0,0.7,0.3,0.7,0.7c0,0.4-0.3,0.7-0.7,0.7
			c0,0-2.2,0-3.9,2c-0.4,0.5-0.9,1.5-0.8,2.7c0.1,1,0.6,2,1.5,2.7c0.3,0.2,1.3,1,2.6,1c1.1,0,2-0.5,2.9-1.6l0.2-0.1
			c1-1.1,2.3-2.8,2.7-3.2c0.3-0.5,1.4,0.3,1,0.9c-1.1,1.3-2.4,3-4.4,4.9C42.9,64,42.9,64,42.9,64c-1.3,1.2-2.7,2.3-4.2,3.2
			c-1.8,0.9-2.3,1.2-2.5,1.3l0,0l-2,0.9c-0.5,0.2-0.7,0.3-1.1,0.5c-0.9,0.6-1.3,1.1-1.3,1.8c0,0.5,0.5,1,0.8,1
			c0.6,0,0.7-0.5,0.7-0.9c0-0.2,0.1-0.4,0.2-0.5c0.1-0.1,0.3-0.2,0.5-0.2c0.4,0,0.7,0.3,0.7,0.7c0,1.5-1.1,2.2-2.1,2.2
			C31.7,74.1,30.6,73,30.6,71.6z M37.4,59.1C37.4,59.1,37.4,59.1,37.4,59.1C37.4,59.1,37.4,59.1,37.4,59.1L37.4,59.1z M36.7,69.4
			c-0.7,0.8-0.7,0.8-1.4,1.6c-0.1-0.1-0.1-0.2-0.2-0.2c-0.3-0.3-0.5-0.4-0.8-0.4c-0.2,0,0.1-0.1,0.4-0.3
			C35.1,70,36.7,69.4,36.7,69.4z M74,153c-27.2,0.2-49.4-21.8-49.6-49c-0.1-10.9,3.4-21,9.4-29.2c0.4-0.1,0.7-0.3,1-0.6
			c0.4-0.4,0.8-1,0.9-1.9c9-10.9,22.5-17.8,37.7-17.9c15.4-0.1,29.2,6.9,38.3,17.9c0.2,1.8,1.6,2.4,1.9,2.5c5.8,8,9.3,17.9,9.4,28.6
			C123.2,130.6,101.2,152.9,74,153z"/>
		<path fill="#FFFFFF" d="M111.2,103.8c0-20.6-16.8-37.3-37.3-37.3c-20.6,0-37.3,16.8-37.3,37.3c0,20.6,16.8,37.3,37.3,37.3
			C94.4,141.1,111.2,124.4,111.2,103.8z M73.2,139.9c-19.5-0.3-35.3-16.1-35.5-35.6h35.5V139.9z M73.2,103.1H37.7
			C38.1,83.7,53.8,68,73.2,67.7V103.1z M74.4,67.7c19.4,0.3,35.1,16,35.5,35.4H74.4V67.7z M74.4,139.9v-35.6h35.5
			C109.7,123.8,93.9,139.6,74.4,139.9z"/>
		<path fill="#FFFFFF" d="M44,130.9c-0.1-0.2-0.4-0.6-0.8-1c-0.1-0.1-0.2-0.1-0.2-0.1c-0.1,0,0,0.1,0,0.2c0.4,0.5,0.4,0.6-0.5,1.4
			l-3,2.6c-0.1,0.1-0.1,0.1-0.3-0.2c-0.5-0.6-0.4-1.3,0.3-1.9c0.6-0.5,1.3-0.4,1.7,0c0.1,0.2,0.2,0.2,0.3,0.1
			c0.1-0.1-0.1-0.2-0.1-0.3c-0.8-0.9-1.9-1-2.8-0.2c-0.8,0.7-0.5,1.6,0.2,2.4c0.2,0.3,0.6,0.6,0.8,0.9c0.1,0.2,0.5,0.6,0.7,0.9
			c0.1,0.1,0.2,0.1,0.2,0.1c0.1,0,0.1-0.1,0-0.2c-0.3-0.4-0.4-0.5,0.1-0.9l2.9-2.6c0.8-0.7,0.9-0.7,1.2-0.3c0.1,0.1,0.1,0.1,0.2,0.1
			c0.1,0,0.1-0.1,0-0.2C44.5,131.4,44.1,131,44,130.9z"/>
		<path fill="#FFFFFF" d="M39.5,124.6c-1.1-1.8-3-2.1-4.6-1.2c-1.6,1-1.9,2.7-0.9,4.4c1.3,2.1,3.3,2,4.5,1.2
			C39.7,128.4,40.7,126.6,39.5,124.6z M34.6,127.8c-0.7-1.1-0.3-2.6,1.2-3.5c2-1.2,2.8-0.2,3.1,0.2c0.8,1.3,0.2,2.8-1.2,3.6
			C36,129.2,35,128.6,34.6,127.8z"/>
		<path fill="#FFFFFF" d="M36.8,120.5c0,0.1,0.1,0.2,0.1,0.1c0.1,0,0.1-0.1,0-0.2c-0.1-0.4-0.3-0.8-0.3-0.8c-0.1-0.2-0.1-0.5-0.3-1
			c0-0.1-0.1-0.2-0.2-0.2c0,0-0.1,0.1,0,0.2c0.2,0.5,0.1,0.7-0.6,1l-3.1,1.2l2.6-5.5c0.1-0.1,0.1-0.3,0.1-0.3c0-0.1-0.1-0.1-0.3,0
			l-4.8,1.6c-0.5,0.2-0.7,0.1-0.8-0.2c0-0.1-0.1-0.2-0.2-0.2c-0.1,0-0.1,0.1,0,0.3c0.1,0.4,0.3,0.7,0.3,0.7c0.1,0.2,0.2,0.5,0.3,0.9
			c0.1,0.1,0.1,0.2,0.2,0.2c0.1,0,0.1-0.1,0-0.2c-0.2-0.5-0.1-0.7,0.5-0.9l3.3-1.3l-2.7,5.4c-0.1,0.1-0.1,0.3-0.1,0.5
			c0,0.1,0.2,0.1,0.3,0l4.6-1.6C36.6,120,36.6,120.1,36.8,120.5z"/>
		<path fill="#FFFFFF" d="M29.6,114.3c0.1,0,0.2,0,0.1-0.1c0-0.1-0.1-0.1-0.1-0.1c-0.3,0-0.5-0.2-0.6-0.8l-0.2-1.1l3.9-0.7
			c1.2-0.2,1.4-0.2,1.4,0.3c0,0.1,0,0.2,0.1,0.1c0.1,0,0.1-0.1,0.1-0.2c-0.1-0.3-0.2-0.8-0.2-1c0-0.2-0.1-0.7-0.2-1.3
			c0-0.1-0.1-0.2-0.2-0.2c-0.1,0-0.1,0.1-0.1,0.2c0.1,0.6,0,0.7-1.3,1l-3.9,0.7l-0.1-1c-0.1-0.7,0-0.9,0.3-1c0.1,0,0.2-0.1,0.2-0.2
			c0-0.1-0.1-0.1-0.2-0.1c-0.2,0-0.8,0.1-0.9,0.1c-0.2,0-0.2,0.1-0.2,0.1c0,0.1,0.1,0.2,0.2,0.7l0.6,3.6c0.1,0.4,0,0.7,0,0.7
			c0,0.1,0.1,0.1,0.2,0.1C28.7,114.3,29.4,114.3,29.6,114.3z"/>
		<path fill="#FFFFFF" d="M27.8,107.2c0-0.5,0.1-0.5,0.4-0.5c0.3,0,0.5,0,1.7-0.1l1.4-0.1c0.8,0,1.4-0.1,1.7,0
			c0.4,0,0.4,0.1,0.4,0.5c0,0.1,0,0.2,0.1,0.2c0.1,0,0.1-0.1,0.1-0.2c0-0.3-0.1-0.8-0.1-1c0-0.2,0-0.7,0-1.3c0-0.1-0.1-0.2-0.1-0.2
			c-0.1,0-0.1,0.1-0.1,0.2c0,0.4,0,0.7-0.3,0.7c-0.3,0-1,0.1-1.7,0.1l-1.4,0.1c-1.2,0.1-1.4,0.1-1.7,0.1c-0.4,0-0.4-0.1-0.5-0.5
			c0-0.1,0-0.2-0.1-0.2c-0.1,0-0.1,0.1-0.1,0.2c0,0.3,0.1,0.8,0.1,1c0,0.2,0,0.7,0,1.1c0,0.2,0.1,0.2,0.1,0.2
			C27.8,107.4,27.8,107.3,27.8,107.2z"/>
		<path fill="#FFFFFF" d="M27.6,102.5c0.1,0,0.1-0.1,0.1-0.2c0-0.6,0.1-0.6,1-0.6l3.6,0.2c1.1,0.1,1.1,0.2,1.1,0.6
			c0,0.1,0,0.2,0.1,0.2c0.1,0,0.1-0.1,0.1-0.2c0-0.3,0-0.8,0-1c0-0.2,0.1-0.7,0.1-1.2c0-0.2,0-0.2-0.1-0.2c-0.1,0-0.1,0.1-0.1,0.2
			c0,0.6-0.1,0.7-1.2,0.6l-1.3-0.1c0,0,0,0,0-0.1c0-0.1,0.1-0.9,0.1-1.1c0.1-0.3,0.3-0.4,0.5-0.4c0.1,0,0.2,0,0.2-0.1
			c0-0.1-0.1-0.1-0.2-0.1c-0.6,0-0.9-0.2-1.1-0.2c-0.1,0-0.1,0-0.1,0.1c0,0.1,0.2,0.1,0.2,0.5l-0.1,1.3c0,0,0,0.1,0,0.1l-2.3-0.2
			c0,0-0.1,0-0.1-0.1l0.1-1.2c0-0.3,0.2-0.4,0.2-0.5c0.1,0,0.2,0,0.3,0c0.1,0,0.2,0,0.2-0.1c0-0.1-0.1-0.1-0.1-0.1
			c-0.1,0-0.6-0.1-0.6-0.1c-0.1,0-0.2,0-0.3-0.1c0,0,0,0-0.1,0c-0.1,0-0.1,0-0.1,0.1c0,0,0,0.1,0,0.1l0,0c0,0.1,0,0.2,0,0.3
			c0,0.2-0.1,1.8-0.1,2.1c0,0.2-0.1,0.7-0.1,1.2C27.4,102.4,27.5,102.5,27.6,102.5z"/>
		<path fill="#FFFFFF" d="M28.3,96.3c0.1-0.4,0.2-0.5,0.5-0.4c0.3,0,0.5,0.1,1.7,0.3l1.4,0.3c0.8,0.1,1.4,0.3,1.7,0.4
			c0.3,0.1,0.4,0.2,0.3,0.6c0,0.1,0,0.2,0.1,0.2c0.1,0,0.1,0,0.2-0.2c0.1-0.3,0.1-0.8,0.2-1c0-0.2,0.2-0.7,0.3-1.2
			c0-0.1,0-0.2-0.1-0.2c-0.1,0-0.1,0.1-0.1,0.1c-0.1,0.4-0.2,0.7-0.5,0.6c-0.3,0-1-0.2-1.7-0.3l-1.4-0.3c-1.2-0.2-1.4-0.3-1.7-0.3
			c-0.3-0.1-0.4-0.2-0.3-0.6c0-0.1,0-0.2-0.1-0.2c-0.1,0-0.1,0.1-0.1,0.2c-0.1,0.3-0.1,0.8-0.2,1c0,0.2-0.2,0.7-0.2,1
			c0,0.2,0,0.2,0.1,0.3C28.2,96.5,28.3,96.4,28.3,96.3z"/>
		<path fill="#FFFFFF" d="M31.8,92.4c2.2,0.8,3.7-0.6,4.3-2.5c0.2-0.5,0.3-1.1,0.3-1.4c0-0.2,0-0.2-0.2-0.3c-0.2-0.2-0.9-0.5-1-0.5
			c-0.1,0-0.2,0-0.2,0.1c0,0.1,0,0.1,0.1,0.2c0.6,0.4,0.7,0.8,0.3,1.9c-0.5,1.3-1.7,2.1-3.5,1.5c-1.4-0.5-2.1-1.5-1.7-2.9
			c0.3-0.9,1-1.7,1.8-1.4c0.1,0,0.2,0,0.2-0.1c0-0.1,0-0.1-0.2-0.2c-0.1-0.1-0.6-0.2-0.8-0.3c-0.3-0.1-0.3-0.2-0.4-0.2
			c-0.1,0-0.1,0-0.2,0.1c-0.2,0.4-0.6,0.9-0.9,1.8C29.4,89.8,29.9,91.8,31.8,92.4z"/>
		<path fill="#FFFFFF" d="M32.2,83.9c0.2-0.4,0.3-0.4,0.6-0.3c0.2,0.1,0.4,0.2,1.5,0.8l1.3,0.6c0.7,0.4,1.3,0.6,1.5,0.8
			c0.3,0.2,0.3,0.3,0.1,0.6c0,0.1-0.1,0.2,0,0.2c0.1,0,0.1,0,0.2-0.1c0.1-0.3,0.4-0.8,0.4-0.9c0.1-0.2,0.4-0.6,0.6-1.1
			c0.1-0.1,0-0.2,0-0.2c-0.1,0-0.1,0-0.2,0.1c-0.2,0.4-0.4,0.6-0.7,0.4c-0.3-0.1-0.9-0.4-1.6-0.8l-1.3-0.6c-1.1-0.5-1.3-0.6-1.5-0.8
			C33,82.4,33,82.3,33.1,82c0-0.1,0.1-0.2,0-0.2c-0.1,0-0.1,0-0.2,0.1c-0.1,0.3-0.3,0.7-0.4,0.9c-0.1,0.2-0.4,0.7-0.5,0.9
			c-0.1,0.1-0.1,0.2,0,0.3C32.1,84,32.1,84,32.2,83.9z"/>
		<path fill="#FFFFFF" d="M38.6,82.2c0.3,0.5,0.3,0.7,0.1,1.1c0,0.1-0.1,0.1,0,0.2c0.1,0,0.1,0,0.2-0.1c0.2-0.3,0.5-0.7,0.5-0.8
			c0.1-0.2,0.4-0.5,0.5-0.7c0.1-0.1,0.1-0.2,0-0.2c-0.1,0-0.1,0-0.2,0.1c-0.1,0.2-0.3,0.2-0.4,0.1c-0.1,0-0.2-0.2-0.3-0.4l-0.5-0.7
			c0,0,0-0.1,0-0.1l1.1-1.6c0,0,0,0,0.1,0l1.4,0.3c0.1,0-0.1,0.4-0.1,0.4c0,0.1-0.1,0.1,0,0.2c0.1,0,0.2,0,0.3-0.2
			c0.1-0.1,0.3-0.6,0.5-0.7c0.1-0.2,0.4-0.4,0.5-0.6c0.2-0.3,0.2-0.4,0.1-0.4c-0.1,0-0.1,0-0.2,0.1c-0.2,0.3-0.7,0.3-1.2,0.1
			c-1.3-0.3-4.7-1.1-5.2-1.1c-0.2,0-0.3,0-0.4,0c0,0.1,0,0.2,0.1,0.4L38.6,82.2z M39.2,79.1l-1,1.4l-1.4-2c0,0,0,0,0,0l0,0
			L39.2,79.1z"/>
		<path fill="#FFFFFF" d="M41.8,70.4c0.4-0.4,0.5-0.3,1.1,0.3l1.5,1.8c1.2,1.4,2.4,1.5,3.7,0.4c1.4-1.2,1.2-2.5,0-3.9l-1.3-1.6
			c-0.5-0.6-0.6-0.7-0.2-1c0.1-0.1,0.1-0.2,0.1-0.2c0-0.1-0.1,0-0.2,0.1c-0.2,0.2-0.5,0.4-0.7,0.6c-0.2,0.1-0.4,0.3-0.7,0.6
			c-0.1,0.1-0.1,0.2-0.1,0.2c0,0.1,0.1,0,0.2,0c0.5-0.4,0.6-0.3,1.1,0.3l1.4,1.7c1,1.2,1.2,2,0.3,2.8c-1,0.9-1.9,0.3-2.7-0.7
			L43.7,70c-0.5-0.6-0.5-0.8-0.2-1c0.1-0.1,0.1-0.1,0.1-0.2c0-0.1-0.1-0.1-0.2,0c-0.2,0.2-0.5,0.5-0.7,0.7c-0.3,0.3-0.6,0.5-0.9,0.7
			c-0.1,0.1-0.1,0.2-0.1,0.2C41.6,70.5,41.7,70.5,41.8,70.4z"/>
		<path fill="#FFFFFF" d="M51.6,68.8c0.4,0.7,0.3,0.8-0.1,1c-0.1,0.1-0.1,0.1-0.1,0.2c0,0.1,0.1,0.1,0.2,0c0.4-0.2,0.7-0.4,0.8-0.4
			c0.1-0.1,0.4-0.2,0.9-0.5c0.1-0.1,0.2-0.1,0.1-0.2c0,0-0.1-0.1-0.2,0c-0.4,0.2-0.7,0.2-1.1-0.5l-1.6-2.8l5.8,1.7
			c0.1,0,0.3,0.1,0.4,0c0.1,0,0.1-0.1,0-0.3l-2.4-4.5c-0.2-0.4-0.2-0.6,0.1-0.8c0.1-0.1,0.2-0.1,0.1-0.2c0-0.1-0.1-0.1-0.3,0
			c-0.3,0.2-0.6,0.4-0.7,0.4c-0.2,0.1-0.5,0.2-0.9,0.4c-0.1,0.1-0.2,0.2-0.2,0.2c0,0.1,0.1,0.1,0.2,0c0.5-0.3,0.6-0.2,0.9,0.3
			l1.8,3.1l-5.8-1.8c-0.1,0-0.4-0.1-0.5,0c-0.1,0-0.1,0.2,0,0.3L51.6,68.8z"/>
		<path fill="#FFFFFF" d="M56.9,60.8c0.4-0.2,0.5-0.1,0.6,0.2c0.1,0.2,0.2,0.4,0.6,1.6l0.5,1.3c0.3,0.7,0.5,1.3,0.6,1.6
			c0.1,0.3,0,0.4-0.3,0.5c-0.1,0-0.2,0.1-0.1,0.2c0,0.1,0.1,0.1,0.2,0.1c0.3-0.1,0.8-0.3,0.9-0.4c0.2-0.1,0.7-0.2,1.2-0.4
			c0.1,0,0.2-0.1,0.1-0.2s-0.1-0.1-0.2,0c-0.4,0.2-0.7,0.2-0.8-0.1c-0.1-0.3-0.4-0.9-0.6-1.6l-0.5-1.3c-0.4-1.1-0.5-1.3-0.6-1.6
			c-0.1-0.3,0-0.5,0.3-0.6c0.1,0,0.2-0.1,0.1-0.2c0-0.1-0.1-0.1-0.2,0c-0.3,0.1-0.7,0.3-0.9,0.4c-0.2,0.1-0.7,0.2-1,0.3
			c-0.2,0.1-0.2,0.1-0.2,0.2C56.7,60.9,56.8,60.9,56.9,60.8z"/>
		<path fill="#FFFFFF" d="M60.7,59.4c0.5-0.1,0.8,0.1,1,0.4l3.1,4.5c0.1,0.2,0.3,0.3,0.3,0.3c0.1,0,0.2-0.1,0.2-0.5l1.1-5.2
			c0.1-0.7,0.2-0.9,0.6-0.9c0.1,0,0.2-0.1,0.1-0.1c0-0.1-0.1-0.1-0.2-0.1c-0.2,0-0.4,0.1-0.7,0.2c-0.2,0-0.4,0.1-0.8,0.1
			c-0.2,0-0.3,0.1-0.2,0.2c0,0.1,0.1,0.1,0.2,0.1c0.3-0.1,0.4,0,0.4,0.1c0,0.1,0,0.2,0,0.3l-0.7,4.2L63,59.7
			c-0.2-0.3-0.3-0.5-0.3-0.6c0-0.2,0.2-0.2,0.3-0.3c0.1,0,0.2-0.1,0.1-0.1c0-0.1-0.1-0.1-0.2-0.1c-0.4,0.1-0.8,0.2-1,0.2
			c-0.3,0-0.7,0.1-1.2,0.2c-0.1,0-0.2,0.1-0.2,0.2C60.6,59.4,60.6,59.4,60.7,59.4z"/>
		<path fill="#FFFFFF" d="M69,57.8c0.5,0,0.6,0.1,0.7,0.4c0,0.3,0,0.5,0.1,1.7l0.1,1.4c0,0.4,0,0.8,0.1,1.1c0.1,0.9,0,1-0.5,1
			c-0.1,0-0.2,0-0.2,0.1c0,0.1,0.1,0.1,0.2,0.1c0.3,0,0.8-0.1,1-0.1c0.9-0.1,1.7-0.1,2.4-0.1c0.2,0,0.2-0.1,0.3-0.3
			c0-0.2,0.1-0.7,0-0.9c0-0.1,0-0.2-0.1-0.2c-0.1,0-0.1,0.1-0.1,0.2c0,0.3-0.1,0.5-0.3,0.6c-0.2,0.1-0.8,0.1-1,0.2
			c-0.6,0-0.7,0-0.7-0.5c0-0.2-0.1-0.9-0.1-1.8c0,0,0,0,0,0c0.1,0,1,0,1.1,0c0.4,0,0.5,0.3,0.5,0.5c0,0.1,0,0.1,0.1,0.1
			c0.1,0,0.1-0.1,0.1-0.2c0-0.4,0-1,0-1.1c0-0.1,0-0.1-0.1-0.1c-0.1,0-0.1,0.1-0.2,0.2c-0.1,0-0.3,0.2-0.7,0.2c-0.3,0-0.7,0-0.9,0
			c0,0-0.1,0-0.1,0L70.7,58c0,0,0,0,0,0c1.6-0.1,1.6-0.1,1.7,0.5c0,0.1,0,0.2,0.1,0.1c0.1,0,0.1-0.1,0.1-0.1c0-0.7,0-0.9,0-1
			c0-0.1,0-0.1-0.1-0.1c-0.1,0-0.2,0.1-0.5,0.1c-0.2,0-1.8,0.1-2,0.1c-0.2,0-0.7,0-1.2,0.1c-0.2,0-0.2,0.1-0.2,0.1
			C68.8,57.8,68.8,57.8,69,57.8z"/>
		<path fill="#FFFFFF" d="M75.1,63.5c0.3,0,0.8,0.1,1,0.1c0.1,0,0.7,0.1,1.2,0.1c0.1,0,0.2,0,0.2-0.1c0-0.1-0.1-0.1-0.1-0.1
			c-0.6-0.1-0.7-0.2-0.6-1.1l0.1-1.2c0,0,0,0,0,0l0.7,0.1c0.1,0,0.1,0,0.1,0.1c0.3,0.4,0.5,0.8,0.7,1.1c0.6,0.9,1,1.4,1.9,1.5L81,64
			c0.1,0,0.2,0,0.2-0.1c0-0.1-0.1-0.1-0.1-0.1c-0.6-0.1-1.2-0.5-2.6-2.9c0.8-0.5,1.1-1.1,1.2-1.7c0.1-1.1-0.9-1.6-1.9-1.7
			c-0.2,0-0.9,0-1.1-0.1c-0.2,0-0.7-0.1-1.1-0.1c-0.2,0-0.2,0-0.2,0.1c0,0.1,0,0.1,0.2,0.1c0.6,0.1,0.6,0.2,0.6,0.9l-0.4,3.8
			c-0.1,0.8-0.1,1-0.6,0.9c-0.1,0-0.2,0-0.2,0.1C74.9,63.4,74.9,63.5,75.1,63.5z M77.1,58.1c0-0.1,0-0.1,0.5-0.1
			c0.7,0.1,1.1,0.6,1.1,1.5c-0.1,0.7-0.4,1.3-1.1,1.2c-0.4,0-0.6-0.1-0.6-0.3L77.1,58.1z"/>
		<path fill="#FFFFFF" d="M83,64.7c1,0.3,2.2-0.1,2.4-1.2c0.4-1.8-1.8-2.7-1.6-3.8c0.1-0.4,0.5-0.7,1.1-0.6c0.6,0.1,0.9,0.7,0.8,1.1
			c0,0.1,0,0.2,0.1,0.2c0.1,0,0.1,0,0.2-0.2c0.2-0.6,0.2-0.8,0.2-0.9c0,0,0-0.1-0.1-0.2c-0.2-0.1-0.5-0.3-1.1-0.4
			c-1.1-0.3-2,0.2-2.2,1.1c-0.4,1.8,1.8,2.5,1.5,3.9c-0.1,0.4-0.5,0.8-1.2,0.6c-0.8-0.2-1-0.9-0.9-1.4c0-0.1,0-0.2-0.1-0.2
			c-0.1,0-0.2,0.1-0.2,0.2l-0.3,1.1C81.7,64.2,82.2,64.5,83,64.7z"/>
		<path fill="#FFFFFF" d="M86.8,65.7c0.3,0.1,0.8,0.3,1,0.3c0.2,0.1,0.7,0.3,1.2,0.5c0.1,0,0.2,0,0.2-0.1c0-0.1,0-0.1-0.1-0.2
			c-0.4-0.2-0.6-0.3-0.5-0.6c0.1-0.3,0.3-0.9,0.6-1.7l0.5-1.3c0.4-1.1,0.5-1.4,0.6-1.6c0.2-0.3,0.3-0.4,0.6-0.2c0.1,0,0.2,0,0.2-0.1
			c0-0.1,0-0.1-0.2-0.2c-0.3-0.1-0.7-0.3-0.9-0.3c-0.2-0.1-0.7-0.3-1-0.4c-0.2-0.1-0.2,0-0.3,0c0,0.1,0.1,0.1,0.1,0.2
			c0.4,0.2,0.4,0.3,0.3,0.6c-0.1,0.3-0.2,0.5-0.6,1.6l-0.5,1.3c-0.3,0.7-0.5,1.3-0.6,1.6c-0.2,0.3-0.3,0.3-0.6,0.2
			c-0.1,0-0.2,0-0.2,0C86.7,65.6,86.7,65.6,86.8,65.7z"/>
		<path fill="#FFFFFF" d="M90.7,67c0,0.1,0,0.1,0.1,0.2c0.3,0.2,0.7,0.4,0.9,0.5c0.3,0.2,0.9,0.6,1.5,0.9c1.8,1,3.7,0.9,4.7-1
			c1.1-1.9,0-3.4-2.1-4.6c-0.4-0.2-0.9-0.5-1.1-0.6c-0.2-0.1-0.6-0.4-1-0.6c-0.1-0.1-0.2-0.1-0.3,0c0,0.1,0,0.1,0.1,0.2
			c0.4,0.2,0.5,0.4,0.3,0.7c-0.1,0.2-0.2,0.4-0.8,1.5l-0.7,1.2c-1,1.8-1.1,1.8-1.4,1.7C90.9,66.9,90.8,66.9,90.7,67z M93,66.5
			l1.8-3.2c0.1-0.2,0.2-0.3,0.7,0c1.5,0.9,2.1,2.3,1.3,3.9c-0.9,1.6-1.9,1.8-3.4,1C92.5,67.6,92.5,67.4,93,66.5z"/>
		<path fill="#FFFFFF" d="M97.2,70.6c0,0-0.1-0.1-0.2,0c-0.1,0.1,0,0.1,0.1,0.2c0.3,0.3,0.7,0.5,0.7,0.6c0.2,0.2,0.4,0.4,0.6,0.6
			c0.1,0.1,0.1,0.1,0.2,0c0.1-0.1,0-0.1-0.1-0.2c-0.2-0.2-0.2-0.3-0.1-0.4c0.1-0.1,0.2-0.2,0.4-0.3l0.8-0.4c0,0,0.1,0,0.1,0l1.5,1.3
			c0,0,0,0,0,0.1l-0.5,1.4c0,0.1-0.4-0.2-0.4-0.2c-0.1,0-0.1-0.1-0.2,0c0,0.1,0,0.2,0.2,0.3c0.1,0.1,0.5,0.4,0.7,0.5
			c0.2,0.1,0.4,0.4,0.6,0.5c0.3,0.2,0.4,0.2,0.4,0.2c0-0.1,0-0.1,0-0.2c-0.3-0.2-0.2-0.7,0-1.2c0.4-1.3,1.5-4.6,1.6-5.1
			c0.1-0.2,0.1-0.3,0-0.4c-0.1-0.1-0.2,0-0.4,0.1l-4.8,2.5C97.8,70.9,97.6,70.9,97.2,70.6z M102.2,69.2
			C102.3,69.2,102.3,69.2,102.2,69.2L102.2,69.2l-0.8,2.3l-1.3-1.1L102.2,69.2z"/>
		<path fill="#FFFFFF" d="M103.2,75.7c-0.1-0.2-0.2-0.2-0.3-0.1c-0.1,0,0,0.1,0,0.2c0.2,0.2,0.5,0.6,0.7,0.8c0.3,0.3,0.6,0.9,1,1.4
			c1.3,1.6,3.1,2.1,4.8,0.8c1.7-1.4,1.3-3.2-0.3-5c-0.3-0.4-0.7-0.8-0.8-0.9c-0.1-0.2-0.4-0.6-0.7-0.9c-0.1-0.1-0.2-0.1-0.2-0.1
			c-0.1,0.1-0.1,0.1,0,0.2c0.3,0.3,0.3,0.5,0.1,0.8c-0.2,0.2-0.4,0.3-1.3,1.1l-1.1,0.9C103.5,76,103.4,76,103.2,75.7z M105.2,76
			l2.9-2.4c0.2-0.2,0.3-0.2,0.6,0.2c1.1,1.4,1.2,3-0.2,4.1c-1.4,1.1-2.5,1-3.5-0.3C104.3,76.9,104.4,76.7,105.2,76z"/>
		<path fill="#FFFFFF" d="M111.7,89.8c0.1,0.1,0.2,0.1,0.3,0.1c0.3,0,1-0.2,1.1-0.3c0.1,0,0.1-0.1,0.1-0.2c0-0.1-0.1-0.1-0.2-0.1
			c-0.7,0.1-1.1-0.1-1.5-1.2c-0.6-1.3-0.1-2.7,1.6-3.4c1.4-0.6,2.6-0.4,3.2,1c0.4,0.9,0.4,1.9-0.3,2.2c-0.1,0.1-0.2,0.1-0.1,0.2
			c0,0.1,0.1,0.1,0.2,0c0.2,0,0.6-0.2,0.8-0.3c0.3-0.1,0.4-0.1,0.4-0.1c0.1,0,0.1-0.1,0.1-0.2c-0.1-0.4-0.2-1-0.6-1.9
			c-0.8-1.8-2.4-2.8-4.2-2c-2.1,0.9-2.3,3-1.5,4.8C111.2,88.9,111.4,89.5,111.7,89.8z"/>
		<path fill="#FFFFFF" d="M112.3,90.9c0-0.1-0.1-0.1-0.1-0.1c-0.1,0-0.1,0.1-0.1,0.2c0.1,0.4,0.2,0.8,0.2,0.9
			c0.1,0.2,0.1,0.6,0.2,0.8c0,0.1,0.1,0.2,0.2,0.1c0.1,0,0.1-0.1,0-0.3c-0.1-0.2,0-0.3,0.1-0.4c0.1,0,0.3,0,0.5,0l0.9,0.1
			c0,0,0.1,0,0.1,0.1l0.5,1.9c0,0,0,0.1,0,0.1l-1.2,0.8c-0.1,0-0.2-0.3-0.2-0.4c0-0.1-0.1-0.1-0.1-0.1c-0.1,0-0.1,0.1-0.1,0.3
			c0,0.1,0.2,0.6,0.2,0.9c0,0.2,0.1,0.6,0.2,0.8c0.1,0.3,0.2,0.4,0.2,0.4c0.1,0,0.1-0.1,0.1-0.2c-0.1-0.4,0.3-0.7,0.7-1
			c1.1-0.8,3.9-2.8,4.3-3.1c0.2-0.1,0.2-0.2,0.2-0.3c0-0.1-0.1-0.1-0.4-0.2l-5.4-0.8C112.6,91.5,112.4,91.3,112.3,90.9z M117.2,92.7
			C117.2,92.7,117.2,92.7,117.2,92.7L117.2,92.7L117.2,92.7l-2,1.4l-0.4-1.7L117.2,92.7z"/>
		<path fill="#FFFFFF" d="M118.8,97.1c-0.1,0-0.2,0-0.2,0.1c0,0.1,0.1,0.1,0.1,0.1c0.3,0,0.5,0.2,0.6,0.8l0.1,1.2l-4,0.3
			c-1.3,0.1-1.4,0-1.4-0.4c0-0.1,0-0.2-0.1-0.2c-0.1,0-0.1,0.1-0.1,0.2c0,0.3,0.1,0.8,0.1,1c0,0.2,0,0.7,0.1,1.3
			c0,0.1,0.1,0.2,0.1,0.2c0.1,0,0.1-0.1,0.1-0.2c-0.1-0.6,0-0.7,1.4-0.8l3.9-0.3l0.1,1c0.1,0.7-0.1,0.9-0.4,1
			c-0.1,0-0.2,0.1-0.2,0.1c0,0.1,0.1,0.1,0.2,0.1c0.2,0,0.8,0,0.9,0c0.2,0,0.2,0,0.2-0.1c0-0.1-0.1-0.2-0.2-0.8l-0.3-3.6
			c0-0.4,0.1-0.7,0.1-0.7c0-0.1-0.1-0.1-0.2-0.1C119.7,97.2,119,97.1,118.8,97.1z"/>
		<path fill="#FFFFFF" d="M121.1,109c0-0.1-0.7-1.2-1-1.7c0-2.1-1.6-3-2.9-3.1c-1.4-0.1-3.3,0.7-3.5,3c-0.2,2.1,1.2,3.5,3,3.7
			c1.8,0.2,3.1-1,3.3-2.9c0.2,0.6,0.4,1.5,0.4,1.5c0,0.1,0.1,0.1,0.2,0.1c0.2-0.1,0.2-0.1,0.3-0.2
			C121.1,109.3,121.2,109.2,121.1,109z M119.7,107.6c-0.1,1.3-1.3,2.2-3.1,2.1c-2.3-0.2-2.4-1.5-2.4-2c0.1-1.5,1.5-2.3,3.2-2.2
			C119.4,105.6,119.8,106.7,119.7,107.6z"/>
		<path fill="#FFFFFF" d="M118.9,113.7c-0.1,0.6-0.3,0.5-1.2,0.3l-3-0.8c-1.3-0.3-1.4-0.4-1.3-0.9c0-0.1,0-0.2-0.1-0.2
			c-0.1,0-0.1,0-0.2,0.2c-0.1,0.3-0.2,0.8-0.2,1c-0.2,0.6-0.3,1.1-0.6,2.3c-0.1,0.4-0.1,0.5,0.1,0.6c0.2,0.1,0.9,0.4,1,0.4
			c0.1,0,0.2,0,0.2-0.1c0-0.1-0.1-0.1-0.1-0.2c-0.5-0.2-0.7-0.4-0.5-1.3c0.3-1,0.4-1.1,1.4-0.8l3,0.8c1,0.3,1,0.3,0.9,0.8
			c0,0.1,0,0.2,0.1,0.2c0.1,0,0.1,0,0.2-0.2c0.1-0.3,0.2-0.9,0.3-1.1c0.1-0.2,0.2-0.7,0.3-1.1c0-0.1,0-0.2-0.1-0.2
			C119,113.5,119,113.6,118.9,113.7z"/>
		<path fill="#FFFFFF" d="M117,120.1c-0.2,0.4-0.3,0.4-0.6,0.3c-0.3-0.1-0.5-0.2-1.6-0.6l-1.3-0.5c-0.7-0.3-1.3-0.5-1.6-0.7
			c-0.3-0.2-0.3-0.3-0.2-0.6c0-0.1,0-0.2,0-0.2c-0.1,0-0.1,0-0.2,0.1c-0.1,0.3-0.3,0.8-0.4,1c-0.1,0.2-0.3,0.7-0.5,1.2
			c-0.1,0.1,0,0.2,0,0.2c0.1,0,0.1,0,0.2-0.1c0.2-0.4,0.3-0.6,0.6-0.5c0.3,0.1,0.9,0.3,1.6,0.6l1.3,0.5c1.1,0.5,1.3,0.5,1.6,0.6
			c0.3,0.2,0.4,0.3,0.2,0.6c0,0.1,0,0.2,0.1,0.2c0.1,0,0.1,0,0.2-0.2c0.1-0.3,0.3-0.7,0.4-0.9c0.1-0.2,0.3-0.7,0.4-1
			c0.1-0.2,0-0.2,0-0.3C117.1,119.9,117,120,117,120.1z"/>
		<path fill="#FFFFFF" d="M112.8,123.2c-2-1.2-3.8-0.1-4.8,1.6c-0.3,0.4-0.5,1-0.6,1.4c0,0.2,0,0.2,0.1,0.3c0.2,0.2,0.8,0.7,0.8,0.7
			c0.1,0,0.1,0,0.2,0c0-0.1,0-0.1-0.1-0.2c-0.5-0.5-0.5-1,0.1-2c0.7-1.2,2.1-1.7,3.7-0.7c1.3,0.8,1.8,1.9,1,3.2
			c-0.5,0.8-1.3,1.5-2,1c-0.1-0.1-0.2-0.1-0.3,0c0,0.1,0,0.1,0.1,0.2c0.1,0.1,0.5,0.3,0.7,0.5c0.2,0.2,0.3,0.2,0.4,0.3
			c0.1,0,0.1,0,0.2-0.1c0.2-0.4,0.7-0.8,1.2-1.6C114.6,126.2,114.5,124.2,112.8,123.2z"/>
		<path fill="#FFFFFF" d="M106.9,128.5c-0.3-0.5-0.3-0.8,0-1.1c0,0,0.1-0.1,0-0.2c-0.1-0.1-0.1,0-0.2,0.1c-0.3,0.3-0.5,0.7-0.6,0.7
			c-0.2,0.2-0.4,0.4-0.6,0.6c-0.1,0.1-0.1,0.1,0,0.2c0.1,0.1,0.1,0,0.2-0.1c0.2-0.2,0.3-0.2,0.4-0.1c0.1,0.1,0.2,0.2,0.3,0.4
			l0.4,0.8c0,0,0,0.1,0,0.1l-1.3,1.5c0,0,0,0-0.1,0l-1.4-0.5c-0.1,0,0.2-0.4,0.2-0.4c0-0.1,0.1-0.1,0-0.2c-0.1-0.1-0.2,0-0.3,0.2
			c-0.1,0.1-0.4,0.5-0.6,0.7c-0.1,0.2-0.4,0.4-0.5,0.6c-0.2,0.3-0.2,0.4-0.2,0.4c0.1,0,0.1,0,0.2,0c0.2-0.3,0.7-0.2,1.2,0
			c1.3,0.4,4.6,1.5,5.1,1.6c0.2,0.1,0.3,0.1,0.4,0c0.1-0.1,0-0.2-0.1-0.4L106.9,128.5z M108.3,132.4L108.3,132.4l-2.3-0.8l1.1-1.3
			L108.3,132.4C108.3,132.4,108.3,132.4,108.3,132.4L108.3,132.4z"/>
		<path fill="#FFFFFF" d="M52.6,138.2c-0.4-0.2-0.9-0.5-1.1-0.6c-0.2-0.1-0.6-0.4-1-0.6c-0.1-0.1-0.2-0.1-0.3,0c0,0.1,0,0.1,0.1,0.2
			c0.4,0.2,0.5,0.4,0.3,0.7c-0.1,0.2-0.2,0.4-0.9,1.5l-0.7,1.2c-1,1.7-1.1,1.8-1.4,1.6c-0.2-0.1-0.3-0.1-0.3-0.1
			c0,0.1,0,0.1,0.1,0.2c0.3,0.2,0.7,0.4,0.9,0.5c0.3,0.2,0.9,0.7,1.4,1c1.7,1,3.7,1,4.8-0.9C55.6,140.9,54.6,139.4,52.6,138.2z
			 M53.4,142.4c-0.9,1.5-2,1.7-3.4,0.9c-0.9-0.5-0.9-0.7-0.3-1.6l1.9-3.2c0.1-0.2,0.2-0.3,0.7,0C53.7,139.4,54.3,140.9,53.4,142.4z"
			/>
		<path fill="#FFFFFF" d="M61.1,142.2c-0.1-0.1-1.7-0.6-1.9-0.7c-0.2-0.1-0.7-0.3-1.1-0.4c-0.1-0.1-0.2,0-0.2,0c0,0.1,0,0.1,0.1,0.2
			c0.4,0.2,0.6,0.3,0.4,0.6c-0.1,0.2-0.2,0.4-0.6,1.6l-0.5,1.3c-0.1,0.4-0.3,0.8-0.4,1.1c-0.3,0.8-0.4,0.9-0.8,0.7
			c-0.1,0-0.2,0-0.2,0c0,0.1,0,0.1,0.1,0.2c0.3,0.1,0.8,0.3,1,0.3c0.8,0.3,1.5,0.6,2.3,0.9c0.2,0,0.2,0,0.4-0.1
			c0.1-0.1,0.3-0.6,0.4-0.8c0-0.1,0.1-0.2,0-0.2c-0.1,0-0.1,0-0.2,0.1c-0.2,0.3-0.3,0.4-0.5,0.4c-0.2,0-0.8-0.2-1-0.3
			c-0.5-0.2-0.6-0.2-0.4-0.8c0.1-0.2,0.3-0.9,0.6-1.7c0,0,0,0,0.1,0c0.1,0,0.9,0.4,1,0.4c0.4,0.1,0.3,0.4,0.2,0.7
			c0,0.1,0,0.1,0.1,0.1c0.1,0,0.1-0.1,0.2-0.1c0.2-0.4,0.4-0.9,0.5-1c0-0.1,0-0.1-0.1-0.1c0,0-0.1,0-0.2,0.1c-0.1,0-0.3,0-0.7-0.1
			c-0.3-0.1-0.7-0.3-0.8-0.3c0,0-0.1,0,0-0.1l0.7-2c0,0,0,0,0,0c1.5,0.5,1.5,0.6,1.4,1.1c0,0.1,0,0.1,0,0.2c0.1,0,0.1,0,0.2-0.1
			c0.2-0.6,0.4-0.8,0.5-0.9c0-0.1,0-0.1,0-0.1C61.5,142.3,61.4,142.3,61.1,142.2z"/>
		<path fill="#FFFFFF" d="M72.5,144.4c-0.4-0.1-1-0.3-1.9-0.4c-1.9-0.2-3.7,0.7-3.8,2.7c-0.3,2.3,1.5,3.5,3.5,3.7
			c0.5,0.1,1.1,0.1,1.5,0c0.1-0.1,0.2-0.1,0.3-0.2c0.1-0.3,0.3-1,0.3-1.1c0-0.1,0-0.2-0.1-0.2c-0.1,0-0.1,0-0.2,0.2
			c-0.3,0.6-0.7,0.9-1.8,0.8c-1.4-0.1-2.4-1.2-2.2-3.1c0.2-1.5,1-2.4,2.5-2.3c0.9,0.1,1.9,0.6,1.8,1.4c0,0.1,0,0.2,0.1,0.2
			c0.1,0,0.1-0.1,0.2-0.2c0-0.2,0.1-0.6,0.1-0.9c0-0.3,0.1-0.4,0.1-0.4C72.6,144.5,72.6,144.4,72.5,144.4z"/>
		<path fill="#FFFFFF" d="M82.3,149.5c-0.5,0-0.6,0-0.7-0.3c-0.1-0.3-0.2-1-0.2-1.7l-0.2-1.4c-0.1-1.2-0.2-1.4-0.2-1.7
			c0-0.3,0.1-0.5,0.4-0.5c0.1,0,0.2-0.1,0.2-0.1c0-0.1-0.1-0.1-0.2-0.1c-0.3,0-0.8,0.1-1,0.1c-0.2,0-0.7,0.1-1.2,0.1
			c-0.1,0-0.2,0.1-0.2,0.1c0,0.1,0.1,0.1,0.2,0.1c0.4,0,0.6,0,0.7,0.4c0,0.3,0.1,0.5,0.2,1.7l0,0.4c0,0,0,0,0,0l-3,0.3c0,0,0,0,0,0
			l0-0.3c-0.1-1.2-0.2-1.4-0.2-1.7c0-0.4,0.1-0.5,0.4-0.5c0.1,0,0.2-0.1,0.2-0.1c0-0.1-0.1-0.1-0.2-0.1c-0.3,0-0.8,0.1-1,0.1
			c-0.2,0-0.7,0-1.2,0.1c-0.2,0-0.2,0.1-0.2,0.1c0,0.1,0.1,0.1,0.2,0.1c0.4,0,0.6,0,0.7,0.4c0.1,0.3,0.1,0.5,0.2,1.7l0.2,1.4
			c0.1,0.7,0.2,1.4,0.1,1.7c0,0.4-0.1,0.4-0.4,0.5c-0.1,0-0.2,0-0.2,0.1c0,0.1,0.1,0.1,0.2,0.1c0.3,0,0.8-0.1,1-0.1
			c0.2,0,0.7-0.1,1.3-0.1c0.1,0,0.2-0.1,0.2-0.1c0-0.1-0.1-0.1-0.2-0.1c-0.5,0.1-0.6,0-0.7-0.3c-0.1-0.3-0.1-1-0.2-1.7l-0.1-0.5
			c0,0,0,0,0,0l3-0.3c0,0,0,0,0,0l0.1,0.5c0.1,0.7,0.1,1.4,0.1,1.7c0,0.3,0,0.4-0.4,0.5c-0.1,0-0.2,0-0.2,0.1c0,0.1,0.1,0.1,0.2,0.1
			c0.3,0,0.8-0.1,1-0.1c0.2,0,0.7,0,1.3-0.1c0.1,0,0.2-0.1,0.2-0.1C82.4,149.5,82.4,149.4,82.3,149.5z"/>
		<path fill="#FFFFFF" d="M88.1,147.9c-0.4,0.1-0.7,0.1-0.8-0.2c-0.1-0.3-0.3-0.9-0.5-1.7l-0.4-1.3c-0.3-1.2-0.4-1.4-0.5-1.6
			c-0.1-0.3,0-0.5,0.4-0.6c0.1,0,0.2-0.1,0.1-0.2c0-0.1-0.1-0.1-0.2,0c-0.3,0.1-0.7,0.2-0.9,0.3c-0.2,0.1-0.7,0.2-1,0.3
			c-0.2,0-0.2,0.1-0.2,0.2c0,0.1,0.1,0.1,0.2,0.1c0.4-0.1,0.5,0,0.6,0.3c0.1,0.3,0.1,0.5,0.5,1.6l0.4,1.3c0.2,0.7,0.4,1.3,0.4,1.7
			c0.1,0.4,0,0.4-0.3,0.5c-0.1,0-0.2,0.1-0.1,0.1c0,0.1,0.1,0.1,0.2,0.1c0.3-0.1,0.8-0.3,1-0.3c0.2-0.1,0.7-0.2,1.2-0.3
			c0.1,0,0.2-0.1,0.2-0.2C88.2,147.9,88.2,147.9,88.1,147.9z"/>
		<path fill="#FFFFFF" d="M94.7,144c-0.1-0.1-0.1-0.2-0.2-0.1c-0.1,0-0.1,0.1-0.1,0.2c0.1,0.5,0.1,0.8-0.7,1.2
			c-0.9,0.4-1,0.4-1.5-0.6l-1.3-2.9c-0.4-0.9-0.4-1,0.1-1.2c0.1-0.1,0.2-0.1,0.1-0.2c0-0.1-0.1-0.1-0.2,0c-0.3,0.1-0.8,0.4-1,0.5
			c-0.2,0.1-0.7,0.3-1,0.4c-0.1,0.1-0.2,0.1-0.2,0.2c0,0.1,0.1,0.1,0.2,0c0.5-0.2,0.6-0.1,1,0.7l1.3,2.9c0.5,1.2,0.6,1.3,0.1,1.6
			c-0.1,0-0.2,0.1-0.1,0.2c0,0.1,0.1,0.1,0.2,0c0.3-0.1,0.7-0.4,0.9-0.4c0.6-0.3,1.1-0.4,2.2-0.9c0.4-0.2,0.4-0.2,0.4-0.4
			C95,144.8,94.8,144.1,94.7,144z"/>
		<path fill="#FFFFFF" d="M100.6,140.6c-0.1-0.1-0.1-0.2-0.2-0.1c-0.1,0-0.1,0.1,0,0.2c0.1,0.3,0.1,0.5,0,0.6
			c-0.1,0.2-0.6,0.5-0.8,0.6c-0.5,0.3-0.6,0.3-0.9-0.1c-0.1-0.2-0.5-0.8-1-1.5c0,0,0,0,0-0.1c0.1,0,0.8-0.5,0.9-0.6
			c0.3-0.2,0.5,0,0.7,0.2c0,0,0.1,0.1,0.2,0c0.1-0.1,0-0.2,0-0.2c-0.2-0.4-0.5-0.9-0.5-1c0-0.1-0.1-0.1-0.1,0c0,0,0,0.1-0.1,0.2
			c0,0.1-0.1,0.3-0.5,0.5c-0.3,0.2-0.6,0.4-0.7,0.5c0,0-0.1,0-0.1,0l-1.2-1.8c0,0,0,0,0-0.1c1.3-0.9,1.4-0.9,1.7-0.5
			c0,0,0.1,0.1,0.2,0.1c0.1,0,0.1-0.1,0-0.2c-0.4-0.5-0.4-0.8-0.5-0.9c0-0.1-0.1-0.1-0.1-0.1c-0.1,0-0.1,0.2-0.4,0.3
			c-0.1,0.1-1.5,1-1.7,1.1c-0.2,0.1-0.6,0.4-1,0.6c-0.1,0.1-0.2,0.2-0.1,0.2c0,0.1,0.1,0.1,0.2,0c0.4-0.2,0.6-0.3,0.8,0
			c0.1,0.2,0.3,0.4,0.9,1.4l0.8,1.2c0.2,0.3,0.4,0.7,0.6,1c0.5,0.8,0.5,0.9,0.1,1.1c-0.1,0.1-0.1,0.1-0.1,0.2c0,0.1,0.1,0.1,0.2,0
			c0.3-0.2,0.7-0.5,0.8-0.6c0.7-0.5,1.4-0.9,2.1-1.3c0.1-0.1,0.2-0.2,0.1-0.4C100.9,141.2,100.7,140.7,100.6,140.6z"/>
	</g>
	<g>
		<path fill="#FFFFFF" d="M151.5,66.3c0-2.6,0-3,0-3.6c0-0.6-0.2-0.8-0.7-0.9c-0.1,0-0.3,0-0.4,0s-0.3,0-0.3-0.1
			c0-0.1,0.1-0.1,0.3-0.1c0.6,0,1.3,0,1.9,0c0.3,0,3.7,0,4.1,0s0.7,0,0.8-0.1c0,0,0.1-0.1,0.1-0.1c0.1,0,0.1,0.1,0.1,0.1
			c0,0.1-0.1,0.3-0.1,0.5c-0.1,0.5-0.1,0.7-0.1,1.2c0,0.2-0.1,0.3-0.1,0.3c-0.1,0-0.1-0.1-0.1-0.2c0-0.2-0.1-0.6-0.3-0.8
			c-0.2-0.2-0.5-0.3-1-0.3c-0.8,0-1.7,0-2.5,0c-0.1,0-0.1,0-0.1,0.2v4.6c0,0.1,0,0.1,0.1,0.1c0.7,0,1.6,0,2.3,0c0.9,0,1.1,0,1.3-0.3
			c0.1-0.1,0.1-0.2,0.2-0.2c0.1,0,0.1,0,0.1,0.1c0,0.1-0.1,0.4-0.1,0.9c0,0.5,0,0.9-0.1,1.1c0,0.2,0,0.3-0.1,0.3
			c-0.1,0-0.1-0.1-0.1-0.3c0-0.4-0.1-0.9-0.9-1.1c-0.4,0-2.2,0-2.5,0c-0.1,0-0.1,0-0.1,0.1v1.4c0,1.4,0,2.6,0,3.3
			c0,0.7,0.2,1.1,0.7,1.2c0.2,0,0.5,0,0.7,0.1c0.1,0,0.2,0,0.2,0.1c0,0.1-0.1,0.1-0.3,0.1c-0.9,0-1.9,0-2,0H152c-0.3,0-1.1,0-1.5,0
			c-0.2,0-0.3,0-0.3-0.1c0,0,0-0.1,0.2-0.1c0.2,0,0.3,0,0.4-0.1c0.3-0.1,0.5-0.3,0.5-1.1c0-0.7,0.1-1.9,0.1-3.4V66.3z"/>
		<path fill="#FFFFFF" d="M161.5,69.2c-0.1,0-0.1,0-0.2,0.1l-1,2.9c-0.1,0.4-0.2,0.8-0.2,1.1c0,0.3,0.3,0.5,0.6,0.5c0,0,0.1,0,0.1,0
			c0.2,0,0.2,0,0.2,0.1c0,0.1-0.1,0.1-0.3,0.1c-0.4,0-1.1,0-1.2,0s-1.1,0-1.9,0c-0.2,0-0.3,0-0.3-0.1c0-0.1,0.1-0.1,0.2-0.1
			c0.1,0,0.3,0,0.4,0c0.8-0.1,1.1-0.7,1.4-1.6l3.7-10.3c0.2-0.5,0.3-0.6,0.4-0.6c0.1,0,0.2,0.1,0.4,0.6c0.2,0.6,2.8,7.4,3.8,10
			c0.6,1.5,1.1,1.7,1.4,1.8c0.2,0.1,0.5,0.1,0.6,0.1c0.1,0,0.2,0,0.2,0.1c0,0.1-0.1,0.1-0.3,0.1c-0.2,0-1.5,0-2.6,0
			c-0.3,0-0.5,0-0.5-0.1c0-0.1,0-0.1,0.1-0.1c0.1,0,0.2-0.2,0.1-0.4l-1.5-4.1c0-0.1-0.1-0.1-0.1-0.1H161.5z M164.9,68.6
			c0.1,0,0.1,0,0.1-0.1l-1.6-4.5c-0.1-0.2-0.2-0.2-0.2,0l-1.5,4.5c0,0.1,0,0.1,0,0.1H164.9z"/>
		<path fill="#FFFFFF" d="M172.5,72.5c-1.6-1.4-2-3.3-2-4.9c0-1.1,0.4-3,1.8-4.5c1-1,2.5-1.8,5-1.8c0.7,0,1.6,0,2.4,0.2
			c0.6,0.1,1.1,0.2,1.8,0.2c0.1,0,0.1,0.1,0.1,0.2c0,0.1,0,0.3-0.1,0.9c0,0.5,0,1.5,0,1.7c0,0.2,0,0.3-0.1,0.3
			c-0.1,0-0.1-0.1-0.1-0.3c0-0.6-0.3-1.3-0.7-1.7c-0.6-0.5-1.8-0.9-3.3-0.9c-2.2,0-3.2,0.6-3.8,1.2c-1.2,1.2-1.5,2.6-1.5,4.3
			c0,3.2,2.4,6,6,6c1.2,0,2.2-0.1,2.9-0.8c0.3-0.4,0.6-1.1,0.6-1.4c0-0.2,0.1-0.2,0.2-0.2c0.1,0,0.1,0.1,0.1,0.2
			c0,0.1-0.2,1.6-0.4,2.1c-0.1,0.3-0.1,0.3-0.4,0.5c-0.7,0.3-1.9,0.4-3,0.4C175.4,74.3,173.8,73.6,172.5,72.5z"/>
		<path fill="#FFFFFF" d="M186.3,68.6c0,2.4,0.5,3.4,1.2,4.1c0.8,0.8,1.6,0.9,2.5,0.9c1,0,2-0.5,2.6-1.2c0.8-0.9,1-2.3,1-4v-2.1
			c0-2.6,0-3,0-3.6c0-0.6-0.2-0.8-0.7-0.9c-0.1,0-0.4,0-0.6,0c-0.1,0-0.1,0-0.1-0.1c0-0.1,0.1-0.1,0.3-0.1c0.7,0,1.7,0,1.8,0
			c0.1,0,0.9,0,1.4,0c0.2,0,0.3,0,0.3,0.1c0,0.1-0.1,0.1-0.1,0.1c-0.1,0-0.2,0-0.4,0c-0.4,0.1-0.6,0.4-0.6,0.9c0,0.5,0,1,0,3.6v1.8
			c0,1.8-0.2,3.8-1.5,4.9c-1.2,1.1-2.4,1.2-3.4,1.2c-0.6,0-2.2-0.1-3.4-1.2c-0.8-0.8-1.4-1.9-1.4-4.3v-2.4c0-2.6,0-3,0-3.6
			c0-0.6-0.2-0.8-0.7-0.9c-0.1,0-0.4,0-0.6,0c-0.1,0-0.1,0-0.1-0.1c0-0.1,0.1-0.1,0.3-0.1c0.7,0,1.8,0,1.9,0c0.1,0,1.1,0,1.6,0
			c0.2,0,0.3,0,0.3,0.1c0,0.1-0.1,0.1-0.1,0.1c-0.1,0-0.2,0-0.4,0c-0.4,0.1-0.6,0.4-0.6,0.9c0,0.5,0,1,0,3.6V68.6z"/>
		<path fill="#FFFFFF" d="M200.9,69.3c0,2.4,0.1,3.5,0.4,3.8c0.3,0.3,0.7,0.4,2,0.4c0.9,0,1.6,0,2-0.5c0.2-0.3,0.4-0.7,0.4-1
			c0-0.1,0-0.2,0.1-0.2c0.1,0,0.1,0.1,0.1,0.2s-0.1,1.2-0.2,1.7c-0.1,0.4-0.2,0.4-1,0.4c-1.4,0-2.8-0.1-4.4-0.1c-0.5,0-1,0-1.6,0
			c-0.2,0-0.3,0-0.3-0.1c0,0,0-0.1,0.1-0.1c0.1,0,0.3,0,0.5-0.1c0.3-0.1,0.4-0.4,0.5-0.9c0.1-0.7,0.1-2,0.1-3.6v-2.9
			c0-2.6,0-3,0-3.6c0-0.6-0.2-0.8-0.7-0.9c-0.1,0-0.4,0-0.6,0c-0.1,0-0.1,0-0.1-0.1c0-0.1,0.1-0.1,0.3-0.1c0.7,0,1.8,0,1.9,0
			c0.1,0,1.3,0,1.8,0c0.2,0,0.3,0,0.3,0.1c0,0.1-0.1,0.1-0.1,0.1c-0.1,0-0.3,0-0.5,0c-0.5,0.1-0.6,0.4-0.6,0.9c0,0.5,0,1,0,3.6V69.3
			z"/>
		<path fill="#FFFFFF" d="M211.7,69.2c0,1.6,0,2.9,0.1,3.6c0,0.5,0.1,0.8,0.6,0.9c0.2,0,0.6,0.1,0.7,0.1c0.1,0,0.1,0,0.1,0.1
			c0,0.1-0.1,0.1-0.3,0.1c-0.9,0-1.9,0-2,0c-0.1,0-1.1,0-1.6,0c-0.2,0-0.3,0-0.3-0.1c0,0,0-0.1,0.1-0.1c0.1,0,0.3,0,0.5-0.1
			c0.3-0.1,0.4-0.4,0.5-0.9c0.1-0.7,0.1-2,0.1-3.6v-7c-0.8,0-1.6,0-2.4,0c-1,0-1.4,0.1-1.7,0.5c-0.2,0.3-0.2,0.4-0.3,0.5
			c0,0.1-0.1,0.2-0.2,0.2c0,0-0.1,0-0.1-0.1c0-0.2,0.3-1.6,0.4-1.7c0-0.1,0.1-0.3,0.2-0.3c0.1,0,0.3,0.2,0.7,0.2
			c0.5,0,1.1,0.1,1.3,0.1h6.2c0.5,0,0.9,0,1.2-0.1c0.2,0,0.4-0.1,0.5-0.1c0.1,0,0.1,0.1,0.1,0.2c0,0.5,0,1.6,0,1.8
			c0,0.1,0,0.2-0.1,0.2c-0.1,0-0.1,0-0.1-0.3c0-0.1,0-0.1,0-0.2c0-0.5-0.4-0.9-2-0.9c-0.7,0-1.4,0-2.1,0V69.2z"/>
		<path fill="#FFFFFF" d="M219.6,69.2c-0.1,0-0.1,0-0.2,0.1l-1,2.9c-0.1,0.4-0.2,0.8-0.2,1.1c0,0.3,0.3,0.5,0.6,0.5c0,0,0.1,0,0.1,0
			c0.2,0,0.2,0,0.2,0.1c0,0.1-0.1,0.1-0.3,0.1c-0.4,0-1.1,0-1.2,0s-1.1,0-1.9,0c-0.2,0-0.3,0-0.3-0.1c0-0.1,0.1-0.1,0.2-0.1
			c0.1,0,0.3,0,0.4,0c0.8-0.1,1.1-0.7,1.4-1.6l3.7-10.3c0.2-0.5,0.3-0.6,0.4-0.6c0.1,0,0.2,0.1,0.4,0.6c0.2,0.6,2.8,7.4,3.8,10
			c0.6,1.5,1.1,1.7,1.4,1.8c0.2,0.1,0.5,0.1,0.6,0.1c0.1,0,0.2,0,0.2,0.1c0,0.1-0.1,0.1-0.3,0.1c-0.2,0-1.5,0-2.6,0
			c-0.3,0-0.5,0-0.5-0.1c0-0.1,0-0.1,0.1-0.1c0.1,0,0.2-0.2,0.1-0.4l-1.5-4.1c0-0.1-0.1-0.1-0.1-0.1H219.6z M222.9,68.6
			c0.1,0,0.1,0,0.1-0.1l-1.6-4.5c-0.1-0.2-0.2-0.2-0.2,0l-1.5,4.5c0,0.1,0,0.1,0,0.1H222.9z"/>
		<path fill="#FFFFFF" d="M230.4,66.3c0-2.6,0-3,0-3.6c0-0.6-0.1-0.8-0.7-0.9c-0.1,0-0.4,0-0.6,0c-0.1,0-0.2,0-0.2-0.1
			c0-0.1,0.1-0.1,0.3-0.1c0.7,0,1.8,0,1.9,0c0.2,0,1.2,0,2.2,0c1.6,0,4.7-0.1,6.6,1.9c0.8,0.9,1.6,2.2,1.6,4.2
			c0,2.1-0.9,3.7-1.8,4.7c-0.7,0.7-2.2,1.9-5,1.9c-0.7,0-1.6,0-2.3-0.1c-0.7,0-1.3-0.1-1.4-0.1c0,0-0.3,0-0.7,0c-0.3,0-0.7,0-1,0
			c-0.2,0-0.3,0-0.3-0.1c0,0,0-0.1,0.2-0.1c0.2,0,0.3,0,0.5-0.1c0.3-0.1,0.4-0.4,0.5-0.9c0.1-0.7,0.1-2,0.1-3.6V66.3z M231.8,68.1
			c0,1.8,0,3.3,0,3.6c0,0.4,0,1.1,0.2,1.3c0.2,0.3,0.9,0.7,2.8,0.7c1.5,0,3-0.6,3.9-1.5c0.9-0.8,1.3-2.4,1.3-3.9
			c0-2.1-0.9-3.5-1.6-4.2c-1.6-1.6-3.4-1.9-5.4-1.9c-0.3,0-0.9,0-1.1,0.1c-0.1,0.1-0.2,0.1-0.2,0.3c0,0.6,0,2.2,0,3.5V68.1z"/>
		<path fill="#FFFFFF" d="M250.9,66.3c0-2.6,0-3,0-3.6c0-0.6-0.1-0.8-0.7-0.9c-0.1,0-0.4,0-0.6,0c-0.1,0-0.2,0-0.2-0.1
			c0-0.1,0.1-0.1,0.3-0.1c0.7,0,1.8,0,1.9,0c0.2,0,1.2,0,2.2,0c1.6,0,4.7-0.1,6.6,1.9c0.8,0.9,1.6,2.2,1.6,4.2
			c0,2.1-0.9,3.7-1.8,4.7c-0.7,0.7-2.2,1.9-5,1.9c-0.7,0-1.6,0-2.3-0.1c-0.7,0-1.3-0.1-1.4-0.1c0,0-0.3,0-0.7,0c-0.3,0-0.7,0-1,0
			c-0.2,0-0.3,0-0.3-0.1c0,0,0-0.1,0.2-0.1c0.2,0,0.3,0,0.5-0.1c0.3-0.1,0.4-0.4,0.5-0.9c0.1-0.7,0.1-2,0.1-3.6V66.3z M252.3,68.1
			c0,1.8,0,3.3,0,3.6c0,0.4,0,1.1,0.2,1.3c0.2,0.3,0.9,0.7,2.8,0.7c1.5,0,3-0.6,3.9-1.5c0.9-0.8,1.3-2.4,1.3-3.9
			c0-2.1-0.9-3.5-1.6-4.2c-1.6-1.6-3.4-1.9-5.4-1.9c-0.3,0-0.9,0-1.1,0.1c-0.1,0.1-0.2,0.1-0.2,0.3c0,0.6,0,2.2,0,3.5V68.1z"/>
		<path fill="#FFFFFF" d="M265.8,66.3c0-2.6,0-3,0-3.6c0-0.6-0.2-0.8-0.7-0.9c-0.1,0-0.3,0-0.5,0c-0.1,0-0.2,0-0.2-0.1
			c0-0.1,0.1-0.1,0.3-0.1c0.4,0,0.8,0,1.9,0c0.1,0,3.4,0,3.8,0c0.4,0,0.7,0,0.8-0.1c0.1,0,0.1-0.1,0.2-0.1c0,0,0.1,0.1,0.1,0.1
			c0,0.1-0.1,0.3-0.1,0.8c0,0.2,0,0.6-0.1,1c0,0.2-0.1,0.3-0.1,0.3c-0.1,0-0.1-0.1-0.1-0.2c0-0.2,0-0.4-0.1-0.5
			c-0.1-0.4-0.5-0.5-1.2-0.6c-0.3,0-2.1,0-2.3,0c-0.1,0-0.1,0-0.1,0.2v4.6c0,0.1,0,0.2,0.1,0.2c0.2,0,2.2,0,2.6,0
			c0.4,0,0.7-0.1,0.8-0.3c0.1-0.1,0.1-0.2,0.2-0.2c0,0,0.1,0,0.1,0.1c0,0.1-0.1,0.4-0.1,0.9c0,0.5,0,0.9-0.1,1.1
			c0,0.2,0,0.2-0.1,0.2c-0.1,0-0.1-0.1-0.1-0.3c0-0.1,0-0.3-0.1-0.5c-0.1-0.2-0.3-0.5-0.9-0.5c-0.4,0-2.1-0.1-2.4-0.1
			c-0.1,0-0.1,0-0.1,0.1v1.5c0,0.6,0,2.5,0,2.8c0,0.7,0.1,1,0.5,1.2c0.3,0.1,0.7,0.1,1.4,0.1c0.5,0,1,0,1.5-0.1
			c0.5-0.2,0.7-0.5,0.8-1.2c0-0.2,0.1-0.2,0.1-0.2c0.1,0,0.1,0.1,0.1,0.2c0,0.1-0.1,1.3-0.2,1.6c-0.1,0.4-0.2,0.4-0.9,0.4
			c-1.2,0-1.8,0-2.4,0c-0.7,0-1.4,0-2.1,0c-0.4,0-0.8,0.1-1.2,0c-0.2,0-0.3,0-0.3-0.1c0,0,0.1-0.1,0.2-0.1c0.2,0,0.3,0,0.4,0
			c0.3-0.1,0.6-0.3,0.6-1.6c0-0.6,0-1.5,0-3V66.3z"/>
		<path fill="#FFFFFF" d="M293.5,71.9c0.1,0.6,0.2,1.5,0.9,1.8c0.5,0.1,0.9,0.1,1,0.1c0.1,0,0.2,0,0.2,0.1c0,0.1,0,0.1-0.2,0.1
			c-0.4,0-2.2,0-2.9-0.1c-0.4,0-0.5-0.1-0.5-0.2c0-0.1,0-0.1,0.1-0.1c0.1,0,0.1-0.3,0.1-0.6l-0.8-8.6l-4.1,8.7
			c-0.3,0.7-0.4,0.9-0.5,0.9c-0.1,0-0.2-0.2-0.5-0.8c-0.4-0.8-1.8-3.7-1.9-3.8c-0.1-0.3-2-4.4-2.2-4.8l-0.7,7.8c0,0.3,0,0.5,0,0.8
			c0,0.4,0.2,0.5,0.4,0.6c0.3,0.1,0.5,0.1,0.6,0.1c0.1,0,0.2,0,0.2,0.1c0,0.1-0.1,0.1-0.2,0.1c-0.6,0-1.5,0-1.6,0
			c-0.1,0-0.9,0-1.4,0c-0.2,0-0.3,0-0.3-0.1c0-0.1,0.1-0.1,0.2-0.1c0.1,0,0.2,0,0.5,0c0.5-0.1,0.6-0.7,0.7-1.4l1.2-10.7
			c0-0.2,0.1-0.3,0.2-0.3s0.2,0.1,0.2,0.2l5.1,10.4l4.9-10.4c0.1-0.1,0.1-0.3,0.2-0.3s0.2,0.1,0.2,0.4L293.5,71.9z"/>
		<path fill="#FFFFFF" d="M298.5,66.3c0-2.6,0-3,0-3.6c0-0.6-0.2-0.8-0.7-0.9c-0.1,0-0.3,0-0.5,0c-0.1,0-0.2,0-0.2-0.1
			c0-0.1,0.1-0.1,0.3-0.1c0.4,0,0.8,0,1.9,0c0.1,0,3.4,0,3.8,0c0.4,0,0.7,0,0.8-0.1c0.1,0,0.1-0.1,0.2-0.1c0,0,0.1,0.1,0.1,0.1
			c0,0.1-0.1,0.3-0.1,0.8c0,0.2,0,0.6-0.1,1c0,0.2-0.1,0.3-0.1,0.3c-0.1,0-0.1-0.1-0.1-0.2c0-0.2,0-0.4-0.1-0.5
			c-0.1-0.4-0.5-0.5-1.2-0.6c-0.3,0-2.1,0-2.3,0c-0.1,0-0.1,0-0.1,0.2v4.6c0,0.1,0,0.2,0.1,0.2c0.2,0,2.2,0,2.6,0
			c0.4,0,0.7-0.1,0.8-0.3c0.1-0.1,0.1-0.2,0.2-0.2c0,0,0.1,0,0.1,0.1c0,0.1-0.1,0.4-0.1,0.9c0,0.5,0,0.9-0.1,1.1
			c0,0.2,0,0.2-0.1,0.2c-0.1,0-0.1-0.1-0.1-0.3c0-0.1,0-0.3-0.1-0.5c-0.1-0.2-0.3-0.5-0.9-0.5c-0.4,0-2.1-0.1-2.4-0.1
			c-0.1,0-0.1,0-0.1,0.1v1.5c0,0.6,0,2.5,0,2.8c0,0.7,0.1,1,0.5,1.2c0.3,0.1,0.7,0.1,1.4,0.1c0.5,0,1,0,1.5-0.1
			c0.5-0.2,0.7-0.5,0.8-1.2c0-0.2,0.1-0.2,0.1-0.2c0.1,0,0.1,0.1,0.1,0.2c0,0.1-0.1,1.3-0.2,1.6c-0.1,0.4-0.2,0.4-0.9,0.4
			c-1.2,0-1.8,0-2.4,0c-0.7,0-1.4,0-2.1,0c-0.4,0-0.8,0.1-1.2,0c-0.2,0-0.3,0-0.3-0.1c0,0,0.1-0.1,0.2-0.1c0.2,0,0.3,0,0.4,0
			c0.3-0.1,0.6-0.3,0.6-1.6c0-0.6,0-1.5,0-3V66.3z"/>
		<path fill="#FFFFFF" d="M308.2,66.3c0-2.6,0-3,0-3.6c0-0.6-0.1-0.8-0.7-0.9c-0.1,0-0.4,0-0.6,0c-0.1,0-0.2,0-0.2-0.1
			c0-0.1,0.1-0.1,0.3-0.1c0.7,0,1.8,0,1.9,0c0.2,0,1.2,0,2.2,0c1.6,0,4.7-0.1,6.6,1.9c0.8,0.9,1.6,2.2,1.6,4.2
			c0,2.1-0.9,3.7-1.8,4.7c-0.7,0.7-2.2,1.9-5,1.9c-0.7,0-1.6,0-2.3-0.1c-0.7,0-1.3-0.1-1.4-0.1c0,0-0.3,0-0.7,0c-0.3,0-0.7,0-1,0
			c-0.2,0-0.3,0-0.3-0.1c0,0,0-0.1,0.2-0.1c0.2,0,0.3,0,0.5-0.1c0.3-0.1,0.4-0.4,0.5-0.9c0.1-0.7,0.1-2,0.1-3.6V66.3z M309.6,68.1
			c0,1.8,0,3.3,0,3.6c0,0.4,0,1.1,0.2,1.3c0.2,0.3,0.9,0.7,2.8,0.7c1.5,0,3-0.6,3.9-1.5c0.9-0.8,1.3-2.4,1.3-3.9
			c0-2.1-0.9-3.5-1.6-4.2c-1.6-1.6-3.4-1.9-5.4-1.9c-0.3,0-0.9,0-1.1,0.1c-0.1,0.1-0.2,0.1-0.2,0.3c0,0.6,0,2.2,0,3.5V68.1z"/>
		<path fill="#FFFFFF" d="M323.1,66.3c0-2.6,0-3,0-3.6c0-0.6-0.2-0.8-0.6-0.9c-0.2,0-0.4-0.1-0.5-0.1c-0.1,0-0.1,0-0.1-0.1
			c0-0.1,0.1-0.1,0.3-0.1c0.5,0,1.6,0,1.7,0c0.1,0,1.1,0,1.6,0c0.2,0,0.3,0,0.3,0.1c0,0.1-0.1,0.1-0.1,0.1c-0.1,0-0.2,0-0.4,0
			c-0.4,0.1-0.6,0.4-0.6,0.9c0,0.5,0,1,0,3.6v2.9c0,1.6,0,2.9,0.1,3.6c0,0.5,0.1,0.8,0.6,0.9c0.2,0,0.6,0.1,0.7,0.1
			c0.1,0,0.2,0,0.2,0.1c0,0.1-0.1,0.1-0.2,0.1c-0.9,0-2,0-2,0c-0.1,0-1.1,0-1.6,0c-0.2,0-0.3,0-0.3-0.1c0,0,0-0.1,0.2-0.1
			c0.1,0,0.3,0,0.4,0c0.3-0.1,0.4-0.4,0.5-0.9c0.1-0.7,0.1-2,0.1-3.6V66.3z"/>
		<path fill="#FFFFFF" d="M330.3,72.5c-1.6-1.4-2-3.3-2-4.9c0-1.1,0.4-3,1.8-4.5c1-1,2.5-1.8,5-1.8c0.7,0,1.6,0,2.4,0.2
			c0.6,0.1,1.1,0.2,1.8,0.2c0.1,0,0.1,0.1,0.1,0.2c0,0.1,0,0.3-0.1,0.9c0,0.5,0,1.5,0,1.7c0,0.2,0,0.3-0.1,0.3
			c-0.1,0-0.1-0.1-0.1-0.3c0-0.6-0.3-1.3-0.7-1.7c-0.6-0.5-1.8-0.9-3.3-0.9c-2.2,0-3.2,0.6-3.8,1.2c-1.2,1.2-1.5,2.6-1.5,4.3
			c0,3.2,2.4,6,6,6c1.2,0,2.2-0.1,2.9-0.8c0.3-0.4,0.6-1.1,0.6-1.4c0-0.2,0.1-0.2,0.2-0.2c0.1,0,0.1,0.1,0.1,0.2
			c0,0.1-0.2,1.6-0.4,2.1c-0.1,0.3-0.1,0.3-0.4,0.5c-0.7,0.3-1.9,0.4-3,0.4C333.2,74.3,331.6,73.6,330.3,72.5z"/>
		<path fill="#FFFFFF" d="M343.1,66.3c0-2.6,0-3,0-3.6c0-0.6-0.2-0.8-0.6-0.9c-0.2,0-0.4-0.1-0.5-0.1c-0.1,0-0.1,0-0.1-0.1
			c0-0.1,0.1-0.1,0.3-0.1c0.5,0,1.6,0,1.7,0c0.1,0,1.1,0,1.6,0c0.2,0,0.3,0,0.3,0.1c0,0.1-0.1,0.1-0.1,0.1c-0.1,0-0.2,0-0.4,0
			c-0.4,0.1-0.6,0.4-0.6,0.9c0,0.5,0,1,0,3.6v2.9c0,1.6,0,2.9,0.1,3.6c0,0.5,0.1,0.8,0.6,0.9c0.2,0,0.6,0.1,0.7,0.1
			c0.1,0,0.2,0,0.2,0.1c0,0.1-0.1,0.1-0.2,0.1c-0.9,0-2,0-2,0c-0.1,0-1.1,0-1.6,0c-0.2,0-0.3,0-0.3-0.1c0,0,0-0.1,0.2-0.1
			c0.1,0,0.3,0,0.4,0c0.3-0.1,0.4-0.4,0.5-0.9c0.1-0.7,0.1-2,0.1-3.6V66.3z"/>
		<path fill="#FFFFFF" d="M349.8,69.2c0-6,0-3.8,0-7c0-0.6,0-0.8,0.2-0.8c0.1,0,0.4,0.4,0.6,0.5c0.2,0.3,2.7,2.9,5.2,5.7
			c1.6,1.8,3.4,3.8,4,4.3l-0.2-8.4c0-1.1-0.1-1.4-0.6-1.6c-0.3-0.1-0.6-0.1-0.7-0.1c-0.2,0-0.2,0-0.2-0.1c0-0.1,0.1-0.1,0.3-0.1
			c0.7,0,1.5,0,1.7,0s0.7,0,1.4,0c0.2,0,0.3,0,0.3,0.1c0,0.1-0.1,0.1-0.2,0.1c-0.1,0-0.2,0-0.4,0.1c-0.5,0.1-0.6,0.3-0.6,1.5l0,9.6
			c0,1.1,0,1.2-0.1,1.2c-0.1,0-0.3-0.2-1.2-1.1c-0.2-0.2-2.6-2.6-4.3-4.5c-1.9-2.1-3.8-4.1-4.3-4.7l0.2,7.9c0,1.4,0.2,1.8,0.6,1.9
			c0.3,0.1,0.7,0.1,0.8,0.1c0.1,0,0.1,0,0.1,0.1c0,0.1-0.1,0.1-0.3,0.1c-0.9,0-1.6,0-1.8,0s-0.8,0-1.6,0c-0.2,0-0.3,0-0.3-0.1
			c0-0.1,0-0.1,0.1-0.1c0.1,0,0.4,0,0.7-0.1c0.4-0.1,0.5-0.6,0.5-2.1V69.2z"/>
		<path fill="#FFFFFF" d="M366.8,69.2c-0.1,0-0.1,0-0.2,0.1l-1,2.9c-0.1,0.4-0.2,0.8-0.2,1.1c0,0.3,0.3,0.5,0.6,0.5c0,0,0.1,0,0.1,0
			c0.2,0,0.2,0,0.2,0.1c0,0.1-0.1,0.1-0.3,0.1c-0.4,0-1.1,0-1.2,0s-1.1,0-1.9,0c-0.2,0-0.3,0-0.3-0.1c0-0.1,0.1-0.1,0.2-0.1
			c0.1,0,0.3,0,0.4,0c0.8-0.1,1.1-0.7,1.4-1.6l3.7-10.3c0.2-0.5,0.3-0.6,0.4-0.6c0.1,0,0.2,0.1,0.4,0.6c0.2,0.6,2.8,7.4,3.8,10
			c0.6,1.5,1.1,1.7,1.4,1.8c0.2,0.1,0.5,0.1,0.6,0.1c0.1,0,0.2,0,0.2,0.1c0,0.1-0.1,0.1-0.3,0.1c-0.2,0-1.5,0-2.6,0
			c-0.3,0-0.5,0-0.5-0.1c0-0.1,0-0.1,0.1-0.1c0.1,0,0.2-0.2,0.1-0.4l-1.5-4.1c0-0.1-0.1-0.1-0.1-0.1H366.8z M370.1,68.6
			c0.1,0,0.1,0,0.1-0.1l-1.6-4.5c-0.1-0.2-0.2-0.2-0.2,0l-1.5,4.5c0,0.1,0,0.1,0,0.1H370.1z"/>
		<path fill="#FFFFFF" d="M151.1,96.4c0-2.3,0-2.6,0-3c0-0.4-0.2-0.7-0.6-0.8c-0.1,0-0.4,0-0.5,0c0,0-0.1,0-0.1-0.1
			c0-0.1,0.1-0.1,0.2-0.1c0.7,0,1.6,0,1.7,0c0.3,0,1.2,0,1.9,0c1.8,0,2.5,0.6,2.7,0.8c0.3,0.3,0.7,0.9,0.7,1.8
			c0,1.8-1.5,3.2-3.6,3.2c-0.1,0-0.2,0-0.3,0c-0.1,0-0.1,0-0.1-0.1c0-0.1,0.1-0.1,0.4-0.1c1.3,0,2.4-0.9,2.4-2.3c0-0.2,0-1.2-0.7-2
			c-0.8-0.9-1.8-0.8-2-0.8c-0.2,0-0.5,0-0.6,0.1c-0.1,0-0.1,0.1-0.1,0.3v5.7c0,1.3,0,2.5,0.1,3.1c0,0.4,0.1,0.7,0.6,0.8
			c0.2,0,0.5,0.1,0.7,0.1c0.1,0,0.1,0,0.1,0.1c0,0.1-0.1,0.1-0.2,0.1c-0.9,0-1.8,0-1.9,0c0,0-1,0-1.5,0c-0.1,0-0.2,0-0.2-0.1
			c0,0,0-0.1,0.1-0.1c0.1,0,0.3,0,0.4-0.1c0.3,0,0.4-0.4,0.4-0.8c0.1-0.6,0.1-1.8,0.1-3V96.4z"/>
		<path fill="#FFFFFF" d="M158.9,97.6c0-2.2,1.7-5.5,5.8-5.5c3.3,0,5.8,1.9,5.8,5.3c0,3.2-2.3,5.7-5.8,5.7
			C160.5,103.1,158.9,100.1,158.9,97.6z M168.9,97.8c0-3.3-2-5.2-4.3-5.2c-2.3,0-4.1,1.4-4.1,4.5c0,3.2,1.8,5.4,4.6,5.4
			C166.1,102.5,168.9,102,168.9,97.8z"/>
		<path fill="#FFFFFF" d="M173.5,92.8c0-0.5,0-0.7,0.2-0.7c0.1,0,0.4,0.3,0.5,0.4c0.1,0.2,2.4,2.5,4.8,4.9c1.3,1.3,2.9,3,3.4,3.4
			l-0.2-6.9c0-0.9-0.1-1.2-0.6-1.3c-0.3,0-0.5-0.1-0.6-0.1c-0.2,0-0.2-0.1-0.2-0.1c0-0.1,0.1-0.1,0.3-0.1c0.7,0,1.4,0,1.6,0
			c0.2,0,0.7,0,1.3,0c0.2,0,0.2,0,0.2,0.1c0,0.1,0,0.1-0.1,0.1c-0.1,0-0.2,0-0.4,0c-0.4,0.1-0.5,0.2-0.5,1.2l0,8.3
			c0,0.8,0,0.9-0.1,0.9c-0.1,0-0.3-0.1-1.1-0.9c-0.1,0-2.4-2.3-3.8-3.7c-1.7-1.8-3.4-3.5-3.8-3.9l0.2,6.5c0,1.1,0.1,1.6,0.5,1.7
			c0.3,0.1,0.5,0.1,0.7,0.1c0.1,0,0.2,0,0.2,0.1c0,0.1-0.1,0.1-0.3,0.1c-0.9,0-1.5,0-1.6,0c-0.1,0-0.7,0-1.4,0c-0.1,0-0.2,0-0.2-0.1
			c0-0.1,0.1-0.1,0.2-0.1c0.1,0,0.3,0,0.5-0.1c0.4-0.1,0.4-0.6,0.4-1.8C173.5,93,173.5,95.5,173.5,92.8z"/>
		<path fill="#FFFFFF" d="M191,98.8c0,1.3,0,2.4,0.1,3.1c0,0.4,0.1,0.6,0.5,0.7c0.2,0,0.5,0.1,0.6,0.1c0.1,0,0.2,0,0.2,0.1
			c0,0.1,0,0.1-0.2,0.1c-0.8,0-1.8,0-1.9,0s-1,0-1.5,0c-0.2,0-0.2,0-0.2-0.1c0,0,0-0.1,0.2-0.1c0.1,0,0.2,0,0.4,0
			c0.3,0,0.4-0.2,0.4-0.8c0.1-0.6,0.1-1.8,0.1-3v-5.9c-0.5,0-1.4,0-2.1,0c-1.1,0-1.3,0.2-1.5,0.5c-0.1,0.2-0.2,0.4-0.2,0.5
			c0,0.1-0.1,0.1-0.1,0.1c-0.1,0-0.1-0.1-0.1-0.1c0-0.1,0.2-1.2,0.3-1.6c0-0.2,0.1-0.3,0.1-0.3c0.1,0,0.4,0.1,0.7,0.2
			c0.6,0.1,1,0.1,1.1,0.1h5.4c0.5,0,1,0,1.2-0.1c0.2,0,0.3-0.1,0.3-0.1c0.1,0,0.1,0.1,0.1,0.1c0,0.5,0,1.6,0,1.7
			c0,0.1-0.1,0.2-0.1,0.2c-0.1,0-0.1-0.1-0.1-0.2c0,0,0-0.1,0-0.2c-0.1-0.7-0.3-0.8-1.9-0.8c-0.6,0-1.1,0-1.6,0V98.8z"/>
		<path fill="#FFFFFF" d="M197.8,96.4c0-2.2,0-2.6,0-3c0-0.4-0.1-0.7-0.5-0.8c-0.2,0-0.3,0-0.4,0c-0.1,0-0.2,0-0.2-0.1
			c0-0.1,0.1-0.1,0.2-0.1c0.5,0,1.5,0,1.5,0c0.1,0,1,0,1.5,0c0.2,0,0.2,0,0.2,0.1c0,0.1,0,0.1-0.2,0.1c-0.1,0-0.2,0-0.3,0
			c-0.5,0.1-0.5,0.3-0.6,0.8c0,0.4,0,0.8,0,3v2.5c0,1.3,0,2.4,0.1,3c0.1,0.5,0.1,0.7,0.6,0.8c0.2,0,0.6,0.1,0.6,0.1
			c0.1,0,0.2,0,0.2,0.1c0,0.1-0.1,0.1-0.2,0.1c-0.8,0-1.8,0-1.9,0c0,0-1,0-1.5,0c-0.1,0-0.3,0-0.3-0.1c0-0.1,0.1-0.1,0.2-0.1
			c0.1,0,0.3,0,0.4,0c0.3-0.1,0.3-0.4,0.4-0.8c0.1-0.6,0.1-1.8,0.1-3V96.4z"/>
		<path fill="#FFFFFF" d="M204.2,96.4c0-2.2,0-2.6,0-3c0-0.5-0.1-0.7-0.6-0.8c-0.1,0-0.3,0-0.4,0c-0.1,0-0.2-0.1-0.2-0.1
			c0-0.1,0.1-0.1,0.2-0.1c0.6,0,1.1,0,1.7,0c0.2,0,3.3,0,3.6,0c0.3,0,0.6,0,0.7-0.1c0.1,0,0.1,0,0.2,0c0,0,0.1,0,0,0.1
			c0,0.1-0.1,0.3-0.1,0.5c-0.1,0.4,0,0.7-0.1,1.2c0,0.2,0,0.2-0.1,0.2c-0.1,0-0.1-0.1-0.1-0.2c0-0.2-0.1-0.6-0.3-0.8
			c-0.2-0.2-0.5-0.2-0.9-0.2c-0.7,0-1.4,0-2.1,0c-0.1,0-0.1,0-0.1,0.2v3.7c0,0.1,0,0.1,0.1,0.1c0.7,0,1.5,0,2,0c0.7,0,0.9,0,1.1-0.3
			c0.1-0.1,0.1-0.1,0.2-0.1c0,0,0.1,0.1,0.1,0.1c0,0.1-0.1,0.4-0.1,0.9c0,0.4-0.1,0.7-0.1,1c0,0.2,0,0.2-0.1,0.2
			c-0.1,0-0.1-0.1-0.1-0.2c0-0.2,0-0.8-0.9-0.9c-0.3,0-1.8,0-2.1,0c-0.1,0-0.1,0-0.1,0.1v1.2c0,1.1,0,2.1,0,2.8c0,0.8,0.1,0.9,0.6,1
			c0.2,0,0.4,0,0.5,0.1c0.1,0,0.2,0,0.2,0.1c0,0.1,0,0.1-0.2,0.1c-0.9,0-1.8,0-1.8,0h-0.1c-0.3,0-1,0-1.3,0c-0.1,0-0.2,0-0.2-0.1
			c0,0,0-0.1,0.2-0.1c0.2,0,0.2,0,0.3,0c0.4,0,0.4-0.3,0.5-0.9c0-0.6,0.1-1.6,0.1-2.9V96.4z"/>
		<path fill="#FFFFFF" d="M212.8,96.4c0-2.2,0-2.6,0-3c0-0.4-0.1-0.7-0.5-0.8c-0.2,0-0.3,0-0.4,0c-0.1,0-0.2,0-0.2-0.1
			c0-0.1,0.1-0.1,0.2-0.1c0.5,0,1.5,0,1.5,0c0.1,0,1,0,1.5,0c0.2,0,0.2,0,0.2,0.1c0,0.1,0,0.1-0.2,0.1c-0.1,0-0.2,0-0.3,0
			c-0.5,0.1-0.5,0.3-0.6,0.8c0,0.4,0,0.8,0,3v2.5c0,1.3,0,2.4,0.1,3c0.1,0.5,0.1,0.7,0.6,0.8c0.2,0,0.6,0.1,0.6,0.1
			c0.1,0,0.2,0,0.2,0.1c0,0.1-0.1,0.1-0.2,0.1c-0.8,0-1.8,0-1.9,0c0,0-1,0-1.5,0c-0.1,0-0.3,0-0.3-0.1c0-0.1,0.1-0.1,0.2-0.1
			c0.1,0,0.3,0,0.4,0c0.3-0.1,0.3-0.4,0.4-0.8c0.1-0.6,0.1-1.8,0.1-3V96.4z"/>
		<path fill="#FFFFFF" d="M219.2,101.6c-1.4-1.2-1.8-2.8-1.8-4.2c0-0.9,0.4-2.6,1.7-3.8c0.9-0.9,2.2-1.5,4.4-1.5
			c0.8,0,1.4,0.1,2.2,0.2c0.5,0.1,1.1,0.2,1.5,0.2c0.1,0,0.1,0.1,0.1,0.2c0,0.1,0,0.3-0.1,0.8c0,0.5,0,1.3,0,1.5
			c0,0.2,0,0.3-0.1,0.3c-0.1,0-0.1-0.1-0.1-0.3c0-0.5-0.2-1.1-0.6-1.4c-0.5-0.4-1.7-0.8-2.9-0.8c-1.8,0-2.7,0.5-3.2,1
			c-1.1,1-1.3,2.2-1.3,3.6c0,2.7,2.2,5.2,5.1,5.2c1.1,0,1.9-0.1,2.5-0.7c0.3-0.3,0.5-0.7,0.5-1.2c0-0.2,0.1-0.2,0.2-0.2
			c0.1,0,0.1,0.1,0.1,0.2c0,0.1-0.2,1.5-0.3,1.8c-0.1,0.3-0.1,0.3-0.4,0.4c-0.6,0.2-1.7,0.3-2.6,0.3
			C221.9,103.1,220.4,102.6,219.2,101.6z"/>
		<path fill="#FFFFFF" d="M230.6,96.4c0-2.2,0-2.6,0-3c0-0.4-0.1-0.7-0.5-0.8c-0.2,0-0.3,0-0.4,0c-0.1,0-0.2,0-0.2-0.1
			c0-0.1,0.1-0.1,0.2-0.1c0.5,0,1.5,0,1.5,0c0.1,0,1,0,1.5,0c0.2,0,0.2,0,0.2,0.1c0,0.1,0,0.1-0.2,0.1c-0.1,0-0.2,0-0.3,0
			c-0.5,0.1-0.5,0.3-0.6,0.8c0,0.4,0,0.8,0,3v2.5c0,1.3,0,2.4,0.1,3c0.1,0.5,0.1,0.7,0.6,0.8c0.2,0,0.6,0.1,0.6,0.1
			c0.1,0,0.2,0,0.2,0.1c0,0.1-0.1,0.1-0.2,0.1c-0.8,0-1.8,0-1.9,0c0,0-1,0-1.5,0c-0.1,0-0.3,0-0.3-0.1c0-0.1,0.1-0.1,0.2-0.1
			c0.1,0,0.3,0,0.4,0c0.3-0.1,0.3-0.4,0.4-0.8c0.1-0.6,0.1-1.8,0.1-3V96.4z"/>
		<path fill="#FFFFFF" d="M237.8,98.9c-0.1,0-0.1,0-0.2,0.1l-0.7,2.1c-0.2,0.5-0.3,0.9-0.3,1.2c0,0.3,0.2,0.4,0.5,0.4
			c0,0,0.1,0,0.1,0c0.1,0,0.2,0,0.2,0.1c0,0.1-0.1,0.1-0.2,0.1c-0.4,0-1.1,0-1.3,0c-0.2,0-0.9,0-1.6,0c-0.2,0-0.3,0-0.3-0.1
			c0-0.1,0.1-0.1,0.2-0.1c0.1,0,0.2,0,0.3,0c0.7-0.1,1-0.6,1.3-1.3l3.3-8.7c0.2-0.5,0.2-0.6,0.3-0.6c0.1,0,0.1,0.1,0.3,0.5
			c0.2,0.5,2.5,6.3,3.4,8.4c0.5,1.3,1,1.5,1.3,1.6c0.2,0.1,0.4,0.1,0.6,0.1c0.1,0,0.2,0,0.2,0.1c0,0.1-0.1,0.1-0.2,0.1
			c-0.2,0-1.4,0-2.5,0c-0.3,0-0.4,0-0.4-0.1c0,0,0-0.1,0.1-0.1c0.1,0,0.2-0.1,0.1-0.4L241,99c0,0-0.1-0.1-0.1-0.1H237.8z
			 M240.6,98.3C240.7,98.3,240.7,98.3,240.6,98.3l-1.3-3.7c-0.1-0.2-0.1-0.2-0.2,0l-1.2,3.6c0,0.1,0,0.1,0,0.1H240.6z"/>
		<path fill="#FFFFFF" d="M253.2,98.3c0,2,0.4,2.9,1,3.4c0.7,0.6,1.5,0.8,2.2,0.8c0.9,0,1.6-0.2,2.3-1c0.7-0.8,0.8-2,0.8-3.5v-1.8
			c0-2.2,0-2.5,0-3c0-0.5-0.1-0.7-0.6-0.8c-0.1,0-0.3,0-0.5,0c-0.1,0-0.2,0-0.2-0.1c0-0.1,0.1-0.1,0.2-0.1c0.7,0,1.5,0,1.6,0
			c0.1,0,0.8,0,1.3,0c0.2,0,0.2,0,0.2,0.1c0,0.1-0.1,0.1-0.2,0.1c-0.1,0-0.1,0-0.3,0c-0.5,0-0.5,0.3-0.6,0.8c0,0.4,0,0.8,0,3v1.5
			c0,1.5-0.2,3.3-1.3,4.3c-1.1,0.9-2.1,1-3,1c-0.5,0-2,0-3.1-1c-0.7-0.7-1.2-1.7-1.2-3.7v-2c0-2.2,0-2.6,0-3c0-0.4-0.1-0.7-0.6-0.8
			c-0.1,0-0.3,0-0.4,0c-0.1,0-0.2,0-0.2-0.1c0-0.1,0.1-0.1,0.2-0.1c0.7,0,1.6,0,1.7,0c0.1,0,1.1,0,1.6,0c0.2,0,0.2,0,0.2,0.1
			c0,0.1-0.1,0.1-0.2,0.1c-0.1,0-0.2,0-0.4,0c-0.4,0-0.5,0.3-0.5,0.8c0,0.4,0,0.8,0,3V98.3z"/>
		<path fill="#FFFFFF" d="M264.2,92.8c0-0.5,0-0.7,0.2-0.7c0.1,0,0.4,0.3,0.5,0.4c0.1,0.2,2.4,2.5,4.8,4.9c1.3,1.3,2.9,3,3.4,3.4
			l-0.2-6.9c0-0.9-0.1-1.2-0.6-1.3c-0.3,0-0.5-0.1-0.6-0.1c-0.2,0-0.2-0.1-0.2-0.1c0-0.1,0.1-0.1,0.3-0.1c0.7,0,1.4,0,1.6,0
			c0.2,0,0.7,0,1.3,0c0.2,0,0.2,0,0.2,0.1c0,0.1,0,0.1-0.1,0.1c-0.1,0-0.2,0-0.4,0c-0.4,0.1-0.5,0.2-0.5,1.2l0,8.3
			c0,0.8,0,0.9-0.1,0.9c-0.1,0-0.3-0.1-1.1-0.9c-0.1,0-2.4-2.3-3.8-3.7c-1.7-1.8-3.4-3.5-3.8-3.9l0.2,6.5c0,1.1,0.1,1.6,0.5,1.7
			c0.3,0.1,0.5,0.1,0.7,0.1c0.1,0,0.2,0,0.2,0.1c0,0.1-0.1,0.1-0.3,0.1c-0.9,0-1.5,0-1.6,0c-0.1,0-0.7,0-1.4,0c-0.1,0-0.2,0-0.2-0.1
			c0-0.1,0.1-0.1,0.2-0.1c0.1,0,0.3,0,0.5-0.1c0.4-0.1,0.4-0.6,0.4-1.8C264.2,93,264.2,95.5,264.2,92.8z"/>
		<path fill="#FFFFFF" d="M278.5,96.4c0-2.2,0-2.6,0-3c0-0.4-0.1-0.7-0.5-0.8c-0.2,0-0.3,0-0.4,0c-0.1,0-0.2,0-0.2-0.1
			c0-0.1,0.1-0.1,0.2-0.1c0.5,0,1.5,0,1.5,0c0.1,0,1,0,1.5,0c0.2,0,0.2,0,0.2,0.1c0,0.1,0,0.1-0.2,0.1c-0.1,0-0.2,0-0.3,0
			c-0.5,0.1-0.5,0.3-0.6,0.8c0,0.4,0,0.8,0,3v2.5c0,1.3,0,2.4,0.1,3c0.1,0.5,0.1,0.7,0.6,0.8c0.2,0,0.6,0.1,0.6,0.1
			c0.1,0,0.2,0,0.2,0.1c0,0.1-0.1,0.1-0.2,0.1c-0.8,0-1.8,0-1.9,0c0,0-1,0-1.5,0c-0.1,0-0.3,0-0.3-0.1c0-0.1,0.1-0.1,0.2-0.1
			c0.1,0,0.3,0,0.4,0c0.3-0.1,0.3-0.4,0.4-0.8c0.1-0.6,0.1-1.8,0.1-3V96.4z"/>
		<path fill="#FFFFFF" d="M283.7,93.7c-0.3-0.8-0.4-1-1-1.1c-0.2,0-0.4,0-0.5,0c-0.1,0-0.2,0-0.2-0.1c0-0.1,0.1-0.1,0.3-0.1
			c0.8,0,1.7,0,1.9,0c0.1,0,0.9,0,1.5,0c0.2,0,0.3,0,0.3,0.1c0,0.1-0.1,0.1-0.2,0.1c-0.2,0-0.4,0-0.5,0.1c-0.1,0.1-0.1,0.2-0.1,0.3
			c0,0.1,0.1,0.4,0.3,0.8l2.9,7.3c0.8-1.8,2.7-6.6,3-7.6c0.1-0.2,0.1-0.4,0.1-0.5c0-0.1,0-0.2-0.1-0.3c-0.1,0-0.3-0.1-0.5-0.1
			c-0.1,0-0.2,0-0.2-0.1c0-0.1,0-0.1,0.2-0.1c0.6,0,1.4,0,1.6,0c0.1,0,0.7,0,1.1,0c0.2,0,0.2,0,0.2,0.1c0,0.1-0.1,0.1-0.2,0.1
			c-0.2,0-0.4,0-0.7,0.2c-0.2,0.1-0.4,0.3-0.8,1.3c-0.1,0.2-0.9,2.1-1.7,3.8c-0.9,2-1.6,3.6-1.8,4.2c-0.4,0.9-0.5,1.2-0.7,1.2
			c-0.2,0-0.3-0.2-0.6-0.9L283.7,93.7z"/>
		<path fill="#FFFFFF" d="M295.8,96.4c0-2.2,0-2.6,0-3c0-0.5-0.1-0.7-0.6-0.8c-0.1,0-0.3,0-0.4,0c-0.1,0-0.2,0-0.2-0.1
			c0-0.1,0.1-0.1,0.2-0.1c0.3,0,0.8,0,1.7,0c0.1,0,3,0,3.4,0c0.3,0,0.5,0,0.6-0.1c0.1,0,0.1,0,0.2,0c0,0,0.1,0,0.1,0.1
			c0,0.1-0.1,0.3-0.1,0.7c0,0.3,0,0.5,0,0.9c0,0.1,0,0.2-0.1,0.2c-0.1,0-0.1-0.1-0.1-0.2c0-0.2-0.1-0.4-0.1-0.5
			c-0.1-0.3-0.2-0.4-1.1-0.5c-0.2,0-1.8,0-1.9,0c0,0-0.1,0-0.1,0.1v3.7c0,0.1,0,0.2,0.1,0.2c0.2,0,1.9,0,2.2,0
			c0.4,0,0.6-0.1,0.8-0.2c0.1-0.1,0.1-0.1,0.2-0.1c0,0,0.1,0,0.1,0.1c0,0.1-0.1,0.4-0.1,0.9c0,0.5,0,0.8-0.1,1c0,0.1,0,0.2-0.1,0.2
			c-0.1,0-0.1-0.1-0.1-0.2c0-0.1,0-0.3,0-0.4c-0.1-0.2-0.2-0.4-0.8-0.5c-0.4,0-1.7-0.1-2-0.1c-0.1,0-0.1,0-0.1,0.1v1.2
			c0,0.5,0,2,0,2.2c0,0.6,0.1,0.9,0.5,1.1c0.2,0.1,0.6,0.1,1.2,0.1c0.3,0,0.8,0,1.3-0.1c0.5-0.1,0.6-0.5,0.7-1.1
			c0-0.2,0.1-0.2,0.1-0.2c0.1,0,0.1,0.1,0.1,0.2c0,0.1-0.1,1.2-0.2,1.4c-0.1,0.3-0.2,0.4-0.7,0.4c-1.1,0-1.6,0-2.1,0
			c-0.6,0-1.3,0-1.9,0c-0.4,0-0.7,0-1.1,0c-0.1,0-0.2,0-0.2-0.1c0-0.1,0.1-0.1,0.1-0.1c0.1,0,0.2,0,0.3,0c0.3-0.1,0.5-0.3,0.5-1.3
			c0-0.6,0-1.2,0-2.5V96.4z"/>
		<path fill="#FFFFFF" d="M304.4,96.4c0-2.2,0-2.6,0-3c0-0.4-0.1-0.7-0.7-0.8c-0.1,0-0.3,0-0.4,0c-0.1,0-0.2,0-0.2-0.1
			c0-0.1,0-0.1,0.2-0.1c0.7,0,1.7,0,1.8,0c0.1,0,1.3,0,1.7,0c0.9,0,1.9,0.1,2.7,0.6c0.3,0.2,1,0.9,1,2c0,0.9-0.4,2.1-1.8,3.1
			c1.2,1.5,2.2,2.7,3,3.6c0.8,0.8,1.3,0.9,1.8,1c0.1,0,0.5,0,0.5,0c0.1,0,0.2,0,0.2,0.1c0,0.1-0.1,0.1-0.3,0.1h-1.2
			c-0.8,0-1.1,0-1.5-0.2c-0.7-0.3-1.2-1-2-2.1c-0.6-0.8-1.3-1.7-1.6-2c-0.1-0.1-0.1-0.1-0.2-0.1l-1.7,0c-0.1,0-0.1,0-0.1,0.1v0.2
			c0,1.3,0,2.5,0.1,3.1c0,0.4,0.1,0.7,0.6,0.8c0.2,0,0.3,0,0.5,0c0.1,0,0.2,0,0.2,0.1c0,0.1-0.1,0.1-0.2,0.1c-0.9,0-1.8,0-1.8,0
			c-0.3,0-1,0-1.4,0c-0.2,0-0.2,0-0.2-0.1c0,0,0.1-0.1,0.2-0.1c0.1,0,0.2,0,0.4,0c0.3,0,0.4-0.2,0.4-0.6c0.1-0.6,0.1-1.9,0.1-3.2
			V96.4z M305.7,97.5c0,0.1,0,0.2,0.1,0.2c0.2,0.1,0.9,0.2,1.5,0.2c0.3,0,0.8,0,1.1-0.2c0.5-0.3,0.8-1,0.8-2.1c0-1.8-1-2.8-2.4-2.8
			c-0.4,0-0.8,0-1,0.1c0,0-0.1,0.1-0.1,0.1V97.5z"/>
		<path fill="#FFFFFF" d="M315.2,102.7c-0.2-0.1-0.2-0.2-0.2-0.6c0-0.8,0-1.3,0.1-1.6c0-0.1,0-0.2,0.1-0.2c0.1,0,0.1,0,0.1,0.2
			c0,0.1,0,0.3,0,0.5c0.2,1.1,1.2,1.5,2.1,1.5c1.4,0,2-0.9,2-1.8c0-0.9-0.4-1.5-1.6-2.5l-0.7-0.5c-1.6-1.3-1.9-2.1-1.9-3.1
			c0-1.5,1.2-2.5,3.1-2.5c0.6,0,1,0,1.3,0.1c0.3,0.1,0.4,0.1,0.6,0.1c0.1,0,0.1,0,0.1,0.1c0,0.1-0.1,0.6-0.1,1.6
			c0,0.2,0,0.3-0.1,0.3c-0.1,0-0.1-0.1-0.1-0.2c0-0.1,0-0.5-0.2-0.8c-0.1-0.1-0.5-0.8-1.8-0.8c-1,0-1.7,0.6-1.7,1.6
			c0,0.8,0.4,1.3,1.8,2.3l0.4,0.3c1.7,1.3,2.2,2.2,2.2,3.4c0,0.6-0.2,1.7-1.3,2.3c-0.6,0.4-1.4,0.6-2.2,0.6
			C316.5,103.1,315.8,103,315.2,102.7z"/>
		<path fill="#FFFFFF" d="M324,96.4c0-2.2,0-2.6,0-3c0-0.4-0.1-0.7-0.5-0.8c-0.2,0-0.3,0-0.4,0c-0.1,0-0.2,0-0.2-0.1
			c0-0.1,0.1-0.1,0.2-0.1c0.5,0,1.5,0,1.5,0c0.1,0,1,0,1.5,0c0.2,0,0.2,0,0.2,0.1c0,0.1,0,0.1-0.2,0.1c-0.1,0-0.2,0-0.3,0
			c-0.5,0.1-0.5,0.3-0.6,0.8c0,0.4,0,0.8,0,3v2.5c0,1.3,0,2.4,0.1,3c0.1,0.5,0.1,0.7,0.6,0.8c0.2,0,0.6,0.1,0.6,0.1
			c0.1,0,0.2,0,0.2,0.1c0,0.1-0.1,0.1-0.2,0.1c-0.8,0-1.8,0-1.9,0c0,0-1,0-1.5,0c-0.1,0-0.3,0-0.3-0.1c0-0.1,0.1-0.1,0.2-0.1
			c0.1,0,0.3,0,0.4,0c0.3-0.1,0.3-0.4,0.4-0.8c0.1-0.6,0.1-1.8,0.1-3V96.4z"/>
		<path fill="#FFFFFF" d="M330.5,96.4c0-2.2,0-2.6,0-3c0-0.4-0.2-0.7-0.6-0.8c-0.1,0-0.3,0-0.5,0c-0.1,0-0.2,0-0.2-0.1
			c0-0.1,0.1-0.1,0.2-0.1c0.7,0,1.7,0,1.8,0c0.1,0,1,0,1.9,0c1.5,0,4.2-0.1,5.9,1.6c0.7,0.7,1.4,1.9,1.4,3.5c0,1.8-0.8,3.1-1.6,3.9
			c-0.6,0.6-1.9,1.6-4.4,1.6c-0.6,0-1.4,0-2.1-0.1c-0.6,0-1.1-0.1-1.2-0.1c0,0-0.2,0-0.6,0c-0.3,0-0.7,0-1,0c-0.1,0-0.2,0-0.2-0.1
			c0,0,0-0.1,0.2-0.1c0.1,0,0.2,0,0.4,0c0.3,0,0.4-0.4,0.4-0.8c0.1-0.6,0.1-1.7,0.1-3.1V96.4z M331.8,97.8c0,1.5,0,2.8,0,3
			c0,0.5,0,1,0.2,1.1c0.2,0.3,0.7,0.6,2.4,0.6c1.4,0,2.6-0.4,3.4-1.3c0.7-0.7,1.1-2,1.1-3.3c0-1.9-0.9-3-1.4-3.5
			c-1.4-1.4-3-1.6-4.7-1.6c-0.2,0-0.7,0-0.8,0.1c-0.1,0.1-0.2,0.1-0.2,0.3c0,0.5,0,1.9,0,2.9V97.8z"/>
		<path fill="#FFFFFF" d="M344.6,98.9c-0.1,0-0.1,0-0.2,0.1l-0.7,2.1c-0.2,0.5-0.3,0.9-0.3,1.2c0,0.3,0.2,0.4,0.5,0.4
			c0,0,0.1,0,0.1,0c0.1,0,0.2,0,0.2,0.1c0,0.1-0.1,0.1-0.2,0.1c-0.4,0-1.1,0-1.3,0c-0.2,0-0.9,0-1.6,0c-0.2,0-0.3,0-0.3-0.1
			c0-0.1,0.1-0.1,0.2-0.1c0.1,0,0.2,0,0.3,0c0.7-0.1,1-0.6,1.3-1.3l3.3-8.7c0.2-0.5,0.2-0.6,0.3-0.6c0.1,0,0.1,0.1,0.3,0.5
			c0.2,0.5,2.5,6.3,3.4,8.4c0.5,1.3,1,1.5,1.3,1.6c0.2,0.1,0.4,0.1,0.6,0.1c0.1,0,0.2,0,0.2,0.1c0,0.1-0.1,0.1-0.2,0.1
			c-0.2,0-1.4,0-2.5,0c-0.3,0-0.4,0-0.4-0.1c0,0,0-0.1,0.1-0.1c0.1,0,0.2-0.1,0.1-0.4l-1.3-3.3c0,0-0.1-0.1-0.1-0.1H344.6z
			 M347.4,98.3C347.5,98.3,347.5,98.3,347.4,98.3l-1.3-3.7c-0.1-0.2-0.1-0.2-0.2,0l-1.2,3.6c0,0.1,0,0.1,0,0.1H347.4z"/>
		<path fill="#FFFFFF" d="M354,96.4c0-2.2,0-2.6,0-3c0-0.4-0.2-0.7-0.6-0.8c-0.1,0-0.3,0-0.5,0c-0.1,0-0.2,0-0.2-0.1
			c0-0.1,0.1-0.1,0.2-0.1c0.7,0,1.7,0,1.8,0c0.1,0,1,0,1.9,0c1.5,0,4.2-0.1,5.9,1.6c0.7,0.7,1.4,1.9,1.4,3.5c0,1.8-0.8,3.1-1.6,3.9
			c-0.6,0.6-1.9,1.6-4.4,1.6c-0.6,0-1.4,0-2.1-0.1c-0.6,0-1.1-0.1-1.2-0.1c0,0-0.2,0-0.6,0c-0.3,0-0.7,0-1,0c-0.1,0-0.2,0-0.2-0.1
			c0,0,0-0.1,0.2-0.1c0.1,0,0.2,0,0.4,0c0.3,0,0.4-0.4,0.4-0.8c0.1-0.6,0.1-1.7,0.1-3.1V96.4z M355.4,97.8c0,1.5,0,2.8,0,3
			c0,0.5,0,1,0.2,1.1c0.2,0.3,0.7,0.6,2.4,0.6c1.4,0,2.6-0.4,3.4-1.3c0.7-0.7,1.1-2,1.1-3.3c0-1.9-0.9-3-1.4-3.5
			c-1.4-1.4-3-1.6-4.7-1.6c-0.2,0-0.7,0-0.8,0.1c-0.1,0.1-0.2,0.1-0.2,0.3c0,0.5,0,1.9,0,2.9V97.8z"/>
		<path fill="#FFFFFF" d="M151.2,130.5c-1.4-1.2-1.8-2.8-1.8-4.2c0-0.9,0.4-2.6,1.7-3.8c0.9-0.9,2.2-1.5,4.4-1.5
			c0.8,0,1.4,0.1,2.2,0.2c0.5,0.1,1.1,0.2,1.5,0.2c0.1,0,0.1,0.1,0.1,0.2c0,0.1,0,0.3-0.1,0.8c0,0.5,0,1.3,0,1.5
			c0,0.2,0,0.3-0.1,0.3c-0.1,0-0.1-0.1-0.1-0.3c0-0.5-0.2-1.1-0.6-1.4c-0.5-0.4-1.7-0.8-2.9-0.8c-1.8,0-2.7,0.5-3.2,1
			c-1.1,1-1.3,2.2-1.3,3.6c0,2.7,2.2,5.2,5.1,5.2c1.1,0,1.9-0.1,2.5-0.7c0.3-0.3,0.5-0.7,0.5-1.2c0-0.2,0.1-0.2,0.2-0.2
			c0.1,0,0.1,0.1,0.1,0.2c0,0.1-0.2,1.5-0.3,1.8c-0.1,0.3-0.1,0.3-0.4,0.4c-0.6,0.2-1.7,0.3-2.6,0.3
			C153.9,132,152.4,131.5,151.2,130.5z"/>
		<path fill="#FFFFFF" d="M164.3,127.8c-0.1,0-0.1,0-0.2,0.1l-0.7,2.1c-0.2,0.5-0.3,0.9-0.3,1.2c0,0.3,0.2,0.4,0.5,0.4
			c0,0,0.1,0,0.1,0c0.1,0,0.2,0,0.2,0.1c0,0.1-0.1,0.1-0.2,0.1c-0.4,0-1.1,0-1.3,0c-0.2,0-0.9,0-1.6,0c-0.2,0-0.3,0-0.3-0.1
			c0-0.1,0.1-0.1,0.2-0.1c0.1,0,0.2,0,0.3,0c0.7-0.1,1-0.6,1.3-1.3l3.3-8.7c0.2-0.5,0.2-0.6,0.3-0.6c0.1,0,0.1,0.1,0.3,0.5
			c0.2,0.5,2.5,6.3,3.4,8.4c0.5,1.3,1,1.5,1.3,1.6c0.2,0.1,0.4,0.1,0.6,0.1c0.1,0,0.2,0,0.2,0.1c0,0.1-0.1,0.1-0.2,0.1
			c-0.2,0-1.4,0-2.5,0c-0.3,0-0.4,0-0.4-0.1c0,0,0-0.1,0.1-0.1c0.1,0,0.2-0.1,0.1-0.4l-1.3-3.3c0,0-0.1-0.1-0.1-0.1H164.3z
			 M167.1,127.2C167.1,127.2,167.1,127.1,167.1,127.2l-1.3-3.7c-0.1-0.2-0.1-0.2-0.2,0l-1.2,3.6c0,0.1,0,0.1,0,0.1H167.1z"/>
		<path fill="#FFFFFF" d="M175.8,127.7c0,1.3,0,2.4,0.1,3.1c0,0.4,0.1,0.6,0.5,0.7c0.2,0,0.5,0.1,0.6,0.1s0.2,0,0.2,0.1
			c0,0.1,0,0.1-0.2,0.1c-0.8,0-1.8,0-1.9,0s-1,0-1.5,0c-0.2,0-0.2,0-0.2-0.1c0,0,0-0.1,0.2-0.1s0.2,0,0.4,0c0.3,0,0.4-0.2,0.4-0.8
			c0.1-0.6,0.1-1.8,0.1-3v-5.9c-0.5,0-1.4,0-2.1,0c-1.1,0-1.3,0.2-1.5,0.5c-0.1,0.2-0.2,0.4-0.2,0.5c0,0.1-0.1,0.1-0.1,0.1
			c-0.1,0-0.1-0.1-0.1-0.1c0-0.1,0.2-1.2,0.3-1.6c0-0.2,0.1-0.3,0.1-0.3c0.1,0,0.4,0.1,0.7,0.2c0.6,0.1,1,0.1,1.1,0.1h5.4
			c0.5,0,1,0,1.2-0.1c0.2,0,0.3-0.1,0.3-0.1c0.1,0,0.1,0.1,0.1,0.1c0,0.5,0,1.6,0,1.7c0,0.1-0.1,0.2-0.1,0.2c-0.1,0-0.1-0.1-0.1-0.2
			c0,0,0-0.1,0-0.2c-0.1-0.7-0.3-0.8-1.9-0.8c-0.6,0-1.1,0-1.6,0V127.7z"/>
		<path fill="#FFFFFF" d="M180.8,126.5c0-2.2,1.7-5.5,5.8-5.5c3.3,0,5.8,1.9,5.8,5.3c0,3.2-2.3,5.7-5.8,5.7
			C182.4,132,180.8,129,180.8,126.5z M190.7,126.7c0-3.3-2-5.2-4.3-5.2c-2.3,0-4.1,1.4-4.1,4.5c0,3.2,1.8,5.4,4.6,5.4
			C188,131.4,190.7,130.9,190.7,126.7z M188.7,118.4c0.1,0.1,0,0.2,0,0.2c0,0-0.4,0.1-0.6,0.2c-0.7,0.3-1.6,0.8-2.1,1.1
			c0,0-0.3,0.2-0.3,0.1c0,0,0-0.1,0.1-0.2c0.4-0.4,1.4-1.5,1.8-1.8c0.2-0.2,0.4-0.3,0.4-0.3c0.1,0,0.2,0,0.3,0.1
			C188.4,117.9,188.6,118.1,188.7,118.4z"/>
		<path fill="#FFFFFF" d="M197,127.8c0,1.9,0.1,2.9,0.3,3.1c0.3,0.2,0.6,0.3,1.7,0.3c0.7,0,1.4,0,1.8-0.5c0.2-0.2,0.3-0.6,0.3-0.8
			c0-0.1,0-0.2,0.1-0.2c0.1,0,0.1,0,0.1,0.2s-0.1,1.1-0.2,1.5c-0.1,0.3-0.1,0.4-0.9,0.4c-1.1,0-2.4-0.1-4-0.1c-0.5,0-0.9,0-1.5,0
			c-0.2,0-0.3,0-0.3-0.1c0,0,0-0.1,0.2-0.1c0.1,0,0.3,0,0.4,0c0.3,0,0.4-0.4,0.4-0.8c0.1-0.6,0.1-1.8,0.1-3v-2.5c0-2.2,0-2.5,0-3
			c0-0.5-0.1-0.8-0.7-0.8c-0.1,0-0.3,0-0.4,0c-0.1,0-0.2,0-0.2-0.1c0-0.1,0.1-0.1,0.2-0.1c0.7,0,1.7,0,1.7,0c0.2,0,1.2,0,1.7,0
			c0.2,0,0.2,0,0.2,0.1c0,0.1-0.1,0.1-0.2,0.1c-0.1,0-0.3,0-0.4,0c-0.5,0.1-0.6,0.3-0.6,0.8c0,0.4,0,0.8,0,3V127.8z"/>
		<path fill="#FFFFFF" d="M204.3,125.2c0-2.2,0-2.6,0-3c0-0.4-0.1-0.7-0.5-0.8c-0.2,0-0.3,0-0.4,0c-0.1,0-0.2,0-0.2-0.1
			c0-0.1,0.1-0.1,0.2-0.1c0.5,0,1.5,0,1.5,0c0.1,0,1,0,1.5,0c0.2,0,0.2,0,0.2,0.1c0,0.1,0,0.1-0.2,0.1c-0.1,0-0.2,0-0.3,0
			c-0.5,0.1-0.5,0.3-0.6,0.8c0,0.4,0,0.8,0,3v2.5c0,1.3,0,2.4,0.1,3c0.1,0.5,0.1,0.7,0.6,0.8c0.2,0,0.6,0.1,0.6,0.1
			c0.1,0,0.2,0,0.2,0.1c0,0.1-0.1,0.1-0.2,0.1c-0.8,0-1.8,0-1.9,0c0,0-1,0-1.5,0c-0.1,0-0.3,0-0.3-0.1c0-0.1,0.1-0.1,0.2-0.1
			c0.1,0,0.3,0,0.4,0c0.3-0.1,0.3-0.4,0.4-0.8c0.1-0.6,0.1-1.8,0.1-3V125.2z"/>
		<path fill="#FFFFFF" d="M210.7,130.5c-1.4-1.2-1.8-2.8-1.8-4.2c0-0.9,0.4-2.6,1.7-3.8c0.9-0.9,2.2-1.5,4.4-1.5
			c0.8,0,1.4,0.1,2.2,0.2c0.5,0.1,1.1,0.2,1.5,0.2c0.1,0,0.1,0.1,0.1,0.2c0,0.1,0,0.3-0.1,0.8c0,0.5,0,1.3,0,1.5
			c0,0.2,0,0.3-0.1,0.3c-0.1,0-0.1-0.1-0.1-0.3c0-0.5-0.2-1.1-0.6-1.4c-0.5-0.4-1.7-0.8-2.9-0.8c-1.8,0-2.7,0.5-3.2,1
			c-1.1,1-1.3,2.2-1.3,3.6c0,2.7,2.2,5.2,5.1,5.2c1.1,0,1.9-0.1,2.5-0.7c0.3-0.3,0.5-0.7,0.5-1.2c0-0.2,0.1-0.2,0.2-0.2
			c0.1,0,0.1,0.1,0.1,0.2c0,0.1-0.2,1.5-0.3,1.8c-0.1,0.3-0.1,0.3-0.4,0.4c-0.6,0.2-1.7,0.3-2.6,0.3
			C213.3,132,211.9,131.5,210.7,130.5z"/>
		<path fill="#FFFFFF" d="M223.7,127.8c-0.1,0-0.1,0-0.2,0.1l-0.7,2.1c-0.2,0.5-0.3,0.9-0.3,1.2c0,0.3,0.2,0.4,0.5,0.4
			c0,0,0.1,0,0.1,0c0.1,0,0.2,0,0.2,0.1c0,0.1-0.1,0.1-0.2,0.1c-0.4,0-1.1,0-1.3,0c-0.2,0-0.9,0-1.6,0c-0.2,0-0.3,0-0.3-0.1
			c0-0.1,0.1-0.1,0.2-0.1c0.1,0,0.2,0,0.3,0c0.7-0.1,1-0.6,1.3-1.3l3.3-8.7c0.2-0.5,0.2-0.6,0.3-0.6c0.1,0,0.1,0.1,0.3,0.5
			c0.2,0.5,2.5,6.3,3.4,8.4c0.5,1.3,1,1.5,1.3,1.6c0.2,0.1,0.4,0.1,0.6,0.1c0.1,0,0.2,0,0.2,0.1c0,0.1-0.1,0.1-0.2,0.1
			c-0.2,0-1.4,0-2.5,0c-0.3,0-0.4,0-0.4-0.1c0,0,0-0.1,0.1-0.1c0.1,0,0.2-0.1,0.1-0.4l-1.3-3.3c0,0-0.1-0.1-0.1-0.1H223.7z
			 M226.5,127.2C226.6,127.2,226.6,127.1,226.5,127.2l-1.3-3.7c-0.1-0.2-0.1-0.2-0.2,0l-1.2,3.6c0,0.1,0,0.1,0,0.1H226.5z"/>
		<path fill="#FFFFFF" d="M238.5,125.2c0-2.2,0-2.6,0-3c0-0.4-0.2-0.7-0.6-0.8c-0.1,0-0.3,0-0.5,0c-0.1,0-0.2,0-0.2-0.1
			c0-0.1,0.1-0.1,0.2-0.1c0.7,0,1.7,0,1.8,0c0.1,0,1,0,1.9,0c1.5,0,4.2-0.1,5.9,1.6c0.7,0.7,1.4,1.9,1.4,3.5c0,1.8-0.8,3.1-1.6,3.9
			c-0.6,0.6-1.9,1.6-4.4,1.6c-0.6,0-1.4,0-2.1-0.1c-0.6,0-1.1-0.1-1.2-0.1c0,0-0.2,0-0.6,0c-0.3,0-0.7,0-1,0c-0.1,0-0.2,0-0.2-0.1
			c0,0,0-0.1,0.2-0.1c0.1,0,0.2,0,0.4,0c0.3,0,0.4-0.4,0.4-0.8c0.1-0.6,0.1-1.7,0.1-3.1V125.2z M239.9,126.7c0,1.5,0,2.8,0,3
			c0,0.5,0,1,0.2,1.1c0.2,0.3,0.7,0.6,2.4,0.6c1.4,0,2.6-0.4,3.4-1.3c0.7-0.7,1.1-2,1.1-3.3c0-1.9-0.9-3-1.4-3.5
			c-1.4-1.4-3-1.6-4.7-1.6c-0.2,0-0.7,0-0.8,0.1c-0.1,0.1-0.2,0.1-0.2,0.3c0,0.5,0,1.9,0,2.9V126.7z"/>
		<path fill="#FFFFFF" d="M251.7,125.2c0-2.2,0-2.6,0-3c0-0.5-0.1-0.7-0.6-0.8c-0.1,0-0.3,0-0.4,0c-0.1,0-0.2,0-0.2-0.1
			c0-0.1,0.1-0.1,0.2-0.1c0.3,0,0.8,0,1.7,0c0.1,0,3,0,3.4,0c0.3,0,0.5,0,0.6-0.1c0.1,0,0.1,0,0.2,0c0,0,0.1,0,0.1,0.1
			c0,0.1-0.1,0.3-0.1,0.7c0,0.3,0,0.5,0,0.9c0,0.1,0,0.2-0.1,0.2c-0.1,0-0.1-0.1-0.1-0.2c0-0.2-0.1-0.4-0.1-0.5
			c-0.1-0.3-0.2-0.4-1.1-0.5c-0.2,0-1.8,0-1.9,0c0,0-0.1,0-0.1,0.1v3.7c0,0.1,0,0.2,0.1,0.2c0.2,0,1.9,0,2.2,0
			c0.4,0,0.6-0.1,0.8-0.2c0.1-0.1,0.1-0.1,0.2-0.1c0,0,0.1,0,0.1,0.1c0,0.1-0.1,0.4-0.1,0.9c0,0.5,0,0.8-0.1,1c0,0.1,0,0.2-0.1,0.2
			c-0.1,0-0.1-0.1-0.1-0.2c0-0.1,0-0.3,0-0.4c-0.1-0.2-0.2-0.4-0.8-0.5c-0.4,0-1.7-0.1-2-0.1c-0.1,0-0.1,0-0.1,0.1v1.2
			c0,0.5,0,2,0,2.2c0,0.6,0.1,0.9,0.5,1.1c0.2,0.1,0.6,0.1,1.2,0.1c0.3,0,0.8,0,1.3-0.1c0.5-0.1,0.6-0.5,0.7-1.1
			c0-0.2,0.1-0.2,0.1-0.2c0.1,0,0.1,0.1,0.1,0.2c0,0.1-0.1,1.2-0.2,1.4c-0.1,0.3-0.2,0.4-0.7,0.4c-1.1,0-1.6,0-2.1,0
			c-0.6,0-1.3,0-1.9,0c-0.4,0-0.7,0-1.1,0c-0.1,0-0.2,0-0.2-0.1c0-0.1,0.1-0.1,0.1-0.1c0.1,0,0.2,0,0.3,0c0.3-0.1,0.5-0.3,0.5-1.3
			c0-0.6,0-1.2,0-2.5V125.2z"/>
		<path fill="#FFFFFF" d="M266.2,130.5c-1.4-1.2-1.8-2.8-1.8-4.2c0-0.9,0.4-2.6,1.7-3.8c0.9-0.9,2.2-1.5,4.4-1.5
			c0.8,0,1.4,0.1,2.2,0.2c0.5,0.1,1.1,0.2,1.5,0.2c0.1,0,0.1,0.1,0.1,0.2c0,0.1,0,0.3-0.1,0.8c0,0.5,0,1.3,0,1.5
			c0,0.2,0,0.3-0.1,0.3c-0.1,0-0.1-0.1-0.1-0.3c0-0.5-0.2-1.1-0.6-1.4c-0.5-0.4-1.7-0.8-2.9-0.8c-1.8,0-2.7,0.5-3.2,1
			c-1.1,1-1.3,2.2-1.3,3.6c0,2.7,2.2,5.2,5.1,5.2c1.1,0,1.9-0.1,2.5-0.7c0.3-0.3,0.5-0.7,0.5-1.2c0-0.2,0.1-0.2,0.2-0.2
			c0.1,0,0.1,0.1,0.1,0.2c0,0.1-0.2,1.5-0.3,1.8c-0.1,0.3-0.1,0.3-0.4,0.4c-0.6,0.2-1.7,0.3-2.6,0.3
			C268.8,132,267.3,131.5,266.2,130.5z"/>
		<path fill="#FFFFFF" d="M285,125.6C285.1,125.6,285.1,125.6,285,125.6l0.1-0.4c0-2.2,0-2.6,0-3c0-0.4-0.1-0.7-0.6-0.8
			c-0.1,0-0.3,0-0.4,0c-0.1,0-0.2,0-0.2-0.1c0-0.1,0.1-0.1,0.2-0.1c0.7,0,1.7,0,1.7,0s1,0,1.5,0c0.2,0,0.3,0,0.3,0.1
			c0,0,0,0.1-0.2,0.1c-0.1,0-0.2,0-0.3,0c-0.4,0.1-0.5,0.3-0.5,0.8c0,0.4,0,0.8,0,3v2.5c0,1.4,0,2.4,0.1,3c0,0.4,0.1,0.7,0.6,0.8
			c0.2,0,0.4,0,0.6,0c0.1,0,0.2,0,0.2,0.1c0,0.1-0.1,0.1-0.2,0.1c-0.8,0-1.8,0-1.9,0c-0.1,0-1,0-1.5,0c-0.2,0-0.2,0-0.2-0.1
			c0,0,0-0.1,0.2-0.1c0.1,0,0.2,0,0.4,0c0.3,0,0.4-0.4,0.4-0.8c0.1-0.6,0.1-1.6,0.1-3v-1.5c0-0.1,0-0.1-0.1-0.1h-6
			c0,0-0.1,0-0.1,0.1v1.5c0,1.3,0,2.4,0.1,3c0,0.4,0.1,0.7,0.6,0.7c0.2,0,0.5,0,0.6,0c0.1,0,0.2,0,0.2,0.1c0,0.1-0.1,0.1-0.2,0.1
			c-0.8,0-1.8,0-1.9,0c0,0-1.1,0-1.5,0c-0.2,0-0.3,0-0.3-0.1c0,0,0-0.1,0.2-0.1c0.1,0,0.3,0,0.4,0c0.3-0.1,0.4-0.4,0.4-0.7
			c0.1-0.6,0.1-1.7,0.1-3.1v-2.4c0-2.2,0-2.6,0-3.1c0-0.4-0.1-0.7-0.6-0.8c-0.1,0-0.3,0-0.4,0c-0.1,0-0.2,0-0.2-0.1
			c0-0.1,0.1-0.1,0.2-0.1c0.7,0,1.5,0,1.7,0c0.1,0,1,0,1.5,0c0.2,0,0.2,0,0.2,0.1c0,0.1-0.1,0.1-0.2,0.1c-0.1,0-0.1,0-0.3,0
			c-0.4,0.1-0.5,0.3-0.5,0.8c0,0.4,0,0.8,0,3v0.3c0,0.1,0,0.1,0.1,0.1H285z"/>
		<path fill="#FFFFFF" d="M291.6,125.2c0-2.2,0-2.6,0-3c0-0.4-0.1-0.7-0.5-0.8c-0.2,0-0.3,0-0.4,0c-0.1,0-0.2,0-0.2-0.1
			c0-0.1,0.1-0.1,0.2-0.1c0.5,0,1.5,0,1.5,0c0.1,0,1,0,1.5,0c0.2,0,0.2,0,0.2,0.1c0,0.1,0,0.1-0.2,0.1c-0.1,0-0.2,0-0.3,0
			c-0.5,0.1-0.5,0.3-0.6,0.8c0,0.4,0,0.8,0,3v2.5c0,1.3,0,2.4,0.1,3c0.1,0.5,0.1,0.7,0.6,0.8c0.2,0,0.6,0.1,0.6,0.1
			c0.1,0,0.2,0,0.2,0.1c0,0.1-0.1,0.1-0.2,0.1c-0.8,0-1.8,0-1.9,0c0,0-1,0-1.5,0c-0.1,0-0.3,0-0.3-0.1c0-0.1,0.1-0.1,0.2-0.1
			c0.1,0,0.3,0,0.4,0c0.3-0.1,0.3-0.4,0.4-0.8c0.1-0.6,0.1-1.8,0.1-3V125.2z"/>
		<path fill="#FFFFFF" d="M299.4,127.8c0,1.9,0.1,2.9,0.3,3.1c0.3,0.2,0.6,0.3,1.7,0.3c0.7,0,1.4,0,1.8-0.5c0.2-0.2,0.3-0.6,0.3-0.8
			c0-0.1,0-0.2,0.1-0.2c0.1,0,0.1,0,0.1,0.2s-0.1,1.1-0.2,1.5c-0.1,0.3-0.1,0.4-0.9,0.4c-1.1,0-2.4-0.1-4-0.1c-0.5,0-0.9,0-1.5,0
			c-0.2,0-0.3,0-0.3-0.1c0,0,0-0.1,0.2-0.1c0.1,0,0.3,0,0.4,0c0.3,0,0.4-0.4,0.4-0.8c0.1-0.6,0.1-1.8,0.1-3v-2.5c0-2.2,0-2.5,0-3
			c0-0.5-0.1-0.8-0.7-0.8c-0.1,0-0.3,0-0.4,0c-0.1,0-0.2,0-0.2-0.1c0-0.1,0.1-0.1,0.2-0.1c0.7,0,1.7,0,1.7,0c0.2,0,1.2,0,1.7,0
			c0.2,0,0.2,0,0.2,0.1c0,0.1-0.1,0.1-0.2,0.1c-0.1,0-0.3,0-0.4,0c-0.5,0.1-0.6,0.3-0.6,0.8c0,0.4,0,0.8,0,3V127.8z"/>
		<path fill="#FFFFFF" d="M306.7,125.2c0-2.2,0-2.6,0-3c0-0.5-0.1-0.7-0.6-0.8c-0.1,0-0.3,0-0.4,0c-0.1,0-0.2,0-0.2-0.1
			c0-0.1,0.1-0.1,0.2-0.1c0.3,0,0.8,0,1.7,0c0.1,0,3,0,3.4,0c0.3,0,0.5,0,0.6-0.1c0.1,0,0.1,0,0.2,0c0,0,0.1,0,0.1,0.1
			c0,0.1-0.1,0.3-0.1,0.7c0,0.3,0,0.5,0,0.9c0,0.1,0,0.2-0.1,0.2c-0.1,0-0.1-0.1-0.1-0.2c0-0.2-0.1-0.4-0.1-0.5
			c-0.1-0.3-0.2-0.4-1.1-0.5c-0.2,0-1.8,0-1.9,0c0,0-0.1,0-0.1,0.1v3.7c0,0.1,0,0.2,0.1,0.2c0.2,0,1.9,0,2.2,0
			c0.4,0,0.6-0.1,0.8-0.2c0.1-0.1,0.1-0.1,0.2-0.1c0,0,0.1,0,0.1,0.1c0,0.1-0.1,0.4-0.1,0.9c0,0.5,0,0.8-0.1,1c0,0.1,0,0.2-0.1,0.2
			c-0.1,0-0.1-0.1-0.1-0.2c0-0.1,0-0.3,0-0.4c-0.1-0.2-0.2-0.4-0.8-0.5c-0.4,0-1.7-0.1-2-0.1c-0.1,0-0.1,0-0.1,0.1v1.2
			c0,0.5,0,2,0,2.2c0,0.6,0.1,0.9,0.5,1.1c0.2,0.1,0.6,0.1,1.2,0.1c0.3,0,0.8,0,1.3-0.1c0.5-0.1,0.6-0.5,0.7-1.1
			c0-0.2,0.1-0.2,0.1-0.2c0.1,0,0.1,0.1,0.1,0.2c0,0.1-0.1,1.2-0.2,1.4c-0.1,0.3-0.2,0.4-0.7,0.4c-1.1,0-1.6,0-2.1,0
			c-0.6,0-1.3,0-1.9,0c-0.4,0-0.7,0-1.1,0c-0.1,0-0.2,0-0.2-0.1c0-0.1,0.1-0.1,0.1-0.1c0.1,0,0.2,0,0.3,0c0.3-0.1,0.5-0.3,0.5-1.3
			c0-0.6,0-1.2,0-2.5V125.2z"/>
	</g>
</g>
</svg>
