<?xml version="1.0" encoding="utf-8"?>
<!-- Generator: Adobe Illustrator 16.0.0, SVG Export Plug-In . SVG Version: 6.00 Build 0)  -->
<!DOCTYPE svg PUBLIC "-//W3C//DTD SVG 1.1//EN" "http://www.w3.org/Graphics/SVG/1.1/DTD/svg11.dtd">
<svg version="1.1" id="Layer_1" xmlns="http://www.w3.org/2000/svg" xmlns:xlink="http://www.w3.org/1999/xlink" x="0px" y="0px"
	 width="63px" height="89px" viewBox="0 0 63 89" enable-background="new 0 0 63 89" xml:space="preserve">
<path fill-rule="evenodd" clip-rule="evenodd" fill="#FDD414" d="M28.62,33.964c-2.604-2.601-5.137-5.138-7.643-7.643
	c0.719-0.721,1.419-1.419,2.129-2.131c2.757,2.754,5.554,5.553,8.378,8.374c2.825-2.827,5.622-5.627,8.402-8.404
	c0.714,0.711,1.409,1.403,2.099,2.096c-2.514,2.515-5.057,5.06-7.604,7.604c0.015,0.034,0.025,0.07,0.033,0.104
	c0.12,0,0.242,0,0.364,0c5.01,0,10.024-0.001,15.041,0.002c0.306,0,0.61,0.016,0.919,0.043c0.261,0.025,0.424,0.179,0.434,0.447
	c0.02,0.404,0.02,0.808,0.02,1.213c0,7.313,0,14.626,0,21.939c0,0.361,0,0.722-0.024,1.083c-0.021,0.408-0.178,0.563-0.588,0.601
	c-0.187,0.017-0.373,0.014-0.56,0.014c-12.372,0.001-24.741,0.001-37.113-0.001c-0.262,0-0.532,0.001-0.773-0.078
	c-0.136-0.043-0.222-0.248-0.309-0.392c-0.032-0.057-0.005-0.15-0.005-0.227c0-7.98,0-15.961,0-23.943
	c0-0.55,0.071-0.632,0.636-0.679c0.251-0.019,0.504-0.022,0.756-0.022c4.968-0.001,9.939-0.001,14.91-0.001
	C28.261,33.964,28.401,33.964,28.62,33.964z M14.671,56.452c9.378,0,18.745,0,28.114,0c0-6.567,0-13.108,0-19.662
	c-9.383,0-18.746,0-28.114,0C14.671,43.357,14.671,49.898,14.671,56.452z"/>
</svg>
