<?xml version="1.0" encoding="utf-8"?>
<!-- Generator: Adobe Illustrator 18.0.0, SVG Export Plug-In . SVG Version: 6.00 Build 0)  -->
<!DOCTYPE svg PUBLIC "-//W3C//DTD SVG 1.1//EN" "http://www.w3.org/Graphics/SVG/1.1/DTD/svg11.dtd">
<svg version="1.1" id="Layer_1" xmlns="http://www.w3.org/2000/svg" xmlns:xlink="http://www.w3.org/1999/xlink" x="0px" y="0px"
	 viewBox="0 0 800 800" enable-background="new 0 0 800 800" xml:space="preserve">
<path fill="#FFFFFF" d="M501.4,384.5l160.7-0.1l0-8l-160.7,0.1V279h-97.6l-0.1-160.7l-8,0l0.1,160.7H298v97.6l-160.1,0.1l0,8
	l160.1-0.1v97.8h97.9l0.1,160.1l8,0l-0.1-160.1h97.5V384.5z M493.4,287v89.5l-89.6,0l0-89.6H493.4z M306,287h89.8l0,89.6l-89.8,0
	V287z M306,474.4v-89.8l89.8,0l0,89.8H306z M403.9,474.4l0-89.8l89.6,0v89.9H403.9z"/>
</svg>
