<?xml version="1.0" encoding="utf-8"?>
<!-- Generator: Adobe Illustrator 16.0.0, SVG Export Plug-In . SVG Version: 6.00 Build 0)  -->
<!DOCTYPE svg PUBLIC "-//W3C//DTD SVG 1.1//EN" "http://www.w3.org/Graphics/SVG/1.1/DTD/svg11.dtd">
<svg version="1.1" id="Layer_1" xmlns="http://www.w3.org/2000/svg" xmlns:xlink="http://www.w3.org/1999/xlink" x="0px" y="0px"
	 width="63px" height="89px" viewBox="0 0 63 89" enable-background="new 0 0 63 89" xml:space="preserve">
<path fill-rule="evenodd" clip-rule="evenodd" fill="#FDD414" fill-opacity="0.9" d="M37.362,35.936
	c-1.021-2.751-2.988-4.219-5.695-4.265c-1.25-0.021-2.4,0.268-3.436,0.887c-1.364,0.813-2.19,1.949-2.538,3.373
	c-3.375,0-6.723,0-10.192,0c0.163,0.151,0.246,0.235,0.337,0.313c0.644,0.549,1.278,1.111,1.94,1.644
	c0.749,0.6,1.241,1.333,1.457,2.19c0.163,0.655,0.3,1.329,0.313,1.996c0.051,2.53-0.443,5-1.226,7.425
	c-0.48,1.486-0.866,2.968-0.669,4.531c0.273,2.148,1.218,3.974,3.172,5.347c1.525,1.072,3.242,1.83,5.072,2.375
	c1.953,0.584,3.554,1.6,4.935,2.919c0.221,0.212,0.442,0.424,0.656,0.626c0.057-0.024,0.084-0.031,0.101-0.046
	c0.224-0.213,0.444-0.43,0.671-0.641c1.336-1.255,2.862-2.248,4.738-2.812c1.751-0.525,3.422-1.219,4.903-2.218
	c1.236-0.834,2.25-1.832,2.809-3.133c0.756-1.761,0.939-3.568,0.449-5.413c-0.41-1.537-0.888-3.06-1.233-4.607
	c-0.394-1.759-0.621-3.544-0.371-5.342c0.177-1.278,0.669-2.427,1.818-3.307c0.657-0.502,1.261-1.06,1.885-1.593
	c0.07-0.061,0.126-0.131,0.239-0.249C44.065,35.936,40.709,35.936,37.362,35.936z M41.665,44.85
	c-1.751,1.525-3.501,3.05-5.255,4.573c-0.118,0.101-0.155,0.191-0.12,0.35c0.517,2.299,1.023,4.604,1.533,6.909
	c0.01,0.038,0.013,0.078,0.025,0.138c-0.085-0.048-0.148-0.085-0.211-0.12c-1.997-1.197-3.993-2.393-5.984-3.592
	c-0.132-0.079-0.225-0.077-0.356,0c-2.001,1.184-4.009,2.363-6.014,3.542c-0.063,0.038-0.125,0.075-0.218,0.125
	c0.108-0.476,0.208-0.918,0.31-1.355c0.438-1.911,0.875-3.817,1.32-5.723c0.03-0.133-0.006-0.207-0.103-0.291
	c-1.75-1.544-3.497-3.096-5.245-4.64c-0.051-0.047-0.099-0.092-0.183-0.168c0.474-0.044,0.902-0.084,1.33-0.124
	c1.328-0.119,2.656-0.236,3.982-0.354c0.643-0.054,1.285-0.118,1.925-0.166c0.128-0.01,0.188-0.058,0.237-0.172
	c0.927-2.144,1.862-4.287,2.793-6.428c0.029-0.065,0.06-0.13,0.106-0.234c0.045,0.106,0.077,0.168,0.103,0.235
	c0.914,2.146,1.827,4.288,2.738,6.435c0.053,0.125,0.118,0.177,0.258,0.188c2.106,0.199,4.212,0.403,6.315,0.608
	c0.28,0.027,0.556,0.057,0.884,0.093C41.755,44.755,41.71,44.804,41.665,44.85z"/>
</svg>
