<?xml version="1.0" encoding="utf-8"?>
<!-- Generator: Adobe Illustrator 18.0.0, SVG Export Plug-In . SVG Version: 6.00 Build 0)  -->
<!DOCTYPE svg PUBLIC "-//W3C//DTD SVG 1.1//EN" "http://www.w3.org/Graphics/SVG/1.1/DTD/svg11.dtd">
<svg version="1.1" id="Layer_1" xmlns="http://www.w3.org/2000/svg" xmlns:xlink="http://www.w3.org/1999/xlink" x="0px" y="0px"
	 viewBox="0 0 800 800" enable-background="new 0 0 800 800" xml:space="preserve">
<g>
	<polyline fill="none" stroke="#FFFAF0" stroke-width="0.15" stroke-miterlimit="10" points="462.1,167.1 481.8,248.4 549,397.6 
		596.1,492.3 651.7,529 	"/>
	<polyline fill="none" stroke="#FFFAF0" stroke-width="0.15" stroke-miterlimit="10" points="211.8,542.5 199.8,494.5 184.3,358.1 
		144.3,436.7 109.1,517 	"/>
	<polyline fill="none" stroke="#FFFAF0" stroke-width="0.15" stroke-miterlimit="10" points="184.4,358.1 267.4,272.2 374.1,316 	
		"/>
	<polyline fill="none" stroke="#FFFAF0" stroke-width="0.15" stroke-miterlimit="10" points="481.8,248.4 430.4,400.6 679.4,380.8 
		559,317.1 481.8,248.4 326.7,173.4 	"/>
	<polyline fill="none" stroke="#FFFAF0" stroke-width="0.15" stroke-miterlimit="10" points="252.6,442.1 390.9,462.8 430.4,400.6 
		444.3,540.9 524.3,487.5 596.1,492.3 692.3,459.9 546.2,391.4 559,317.1 610.3,240 481.8,248.4 374.1,316 306.9,352.2 252.6,442.1 
		290.1,563.2 200.1,494.5 144.3,436.7 70.8,418 184.4,358.1 95.5,316 	"/>
	<line fill="none" stroke="#FFFAF0" stroke-width="0.15" stroke-miterlimit="10" x1="546.2" y1="391.4" x2="524.3" y2="487.5"/>
	<polyline fill="none" stroke="#FFFAF0" stroke-width="0.15" stroke-miterlimit="10" points="481.8,248.4 365.6,245.9 267.4,272.2 
		160.7,250.4 184.4,358.1 252.6,442.1 324.7,542.9 390.9,462.8 373.6,552.7 444.3,540.9 448.1,588 514.4,588.3 444.3,540.9 
		390.9,462.8 306.9,352.2 267.4,272.2 326.7,173.4 365.6,245.9 374.1,316 430.4,400.6 524.3,487.5 538.1,561.5 	"/>
	<polyline fill="none" stroke="#FFFAF0" stroke-width="0.15" stroke-miterlimit="10" points="448.1,588 373.6,552.7 324.7,542.9 
		290.1,563.2 212.1,542.9 109.4,517.2 70.8,418 95.5,316 160.7,250.4 326.7,173.4 462.1,167.1 610.3,240 679.4,380.8 692.3,459.9 
		651.7,529 602.3,542.9 538.1,561.5 514.4,588.3 	"/>
</g>
<g opacity="0.4">
	<polyline fill="none" stroke="#FFFAF0" stroke-width="0.15" stroke-miterlimit="10" points="464.1,168.1 483.8,249.4 551,398.6 
		598.1,493.3 653.7,530 	"/>
	<polyline fill="none" stroke="#FFFAF0" stroke-width="0.15" stroke-miterlimit="10" points="213.8,543.5 201.8,495.5 186.3,359.1 
		146.3,437.7 111.1,518 	"/>
	<polyline fill="none" stroke="#FFFAF0" stroke-width="0.15" stroke-miterlimit="10" points="186.4,359.1 269.4,273.2 376.1,317 	
		"/>
	<polyline fill="none" stroke="#FFFAF0" stroke-width="0.15" stroke-miterlimit="10" points="483.8,249.4 432.4,401.6 681.4,381.8 
		561,318.1 483.8,249.4 328.7,174.4 	"/>
	<polyline fill="none" stroke="#FFFAF0" stroke-width="0.15" stroke-miterlimit="10" points="254.6,443.1 392.9,463.8 432.4,401.6 
		446.3,541.9 526.3,488.5 598.1,493.3 694.3,460.9 548.2,392.4 561,318.1 612.3,241 483.8,249.4 376.1,317 308.9,353.2 254.6,443.1 
		292.1,564.2 202.1,495.5 146.3,437.7 72.8,419 186.4,359.1 97.5,317 	"/>
	<line fill="none" stroke="#FFFAF0" stroke-width="0.15" stroke-miterlimit="10" x1="548.2" y1="392.4" x2="526.3" y2="488.5"/>
	<polyline fill="none" stroke="#FFFAF0" stroke-width="0.15" stroke-miterlimit="10" points="483.8,249.4 367.6,246.9 269.4,273.2 
		162.7,251.4 186.4,359.1 254.6,443.1 326.7,543.9 392.9,463.8 375.6,553.7 446.3,541.9 450.1,589 516.4,589.3 446.3,541.9 
		392.9,463.8 308.9,353.2 269.4,273.2 328.7,174.4 367.6,246.9 376.1,317 432.4,401.6 526.3,488.5 540.1,562.5 	"/>
	<polyline fill="none" stroke="#FFFAF0" stroke-width="0.15" stroke-miterlimit="10" points="450.1,589 375.6,553.7 326.7,543.9 
		292.1,564.2 214.1,543.9 111.4,518.2 72.8,419 97.5,317 162.7,251.4 328.7,174.4 464.1,168.1 612.3,241 681.4,381.8 694.3,460.9 
		653.7,530 604.3,543.9 540.1,562.5 516.4,589.3 	"/>
</g>
<g opacity="0.4">
	<polyline fill="none" stroke="#FFFAF0" stroke-width="0.15" stroke-miterlimit="10" points="460.1,166.1 479.8,247.4 547,396.6 
		594.1,491.3 649.7,528 	"/>
	<polyline fill="none" stroke="#FFFAF0" stroke-width="0.15" stroke-miterlimit="10" points="209.8,541.5 197.8,493.5 182.3,357.1 
		142.3,435.7 107.1,516 	"/>
	<polyline fill="none" stroke="#FFFAF0" stroke-width="0.15" stroke-miterlimit="10" points="182.4,357.1 265.4,271.2 372.1,315 	
		"/>
	<polyline fill="none" stroke="#FFFAF0" stroke-width="0.15" stroke-miterlimit="10" points="479.8,247.4 428.4,399.6 677.4,379.8 
		557,316.1 479.8,247.4 324.7,172.4 	"/>
	<polyline fill="none" stroke="#FFFAF0" stroke-width="0.15" stroke-miterlimit="10" points="250.6,441.1 388.9,461.8 428.4,399.6 
		442.3,539.9 522.3,486.5 594.1,491.3 690.3,458.9 544.2,390.4 557,316.1 608.3,239 479.8,247.4 372.1,315 304.9,351.2 250.6,441.1 
		288.1,562.2 198.1,493.5 142.3,435.7 68.8,417 182.4,357.1 93.5,315 	"/>
	<line fill="none" stroke="#FFFAF0" stroke-width="0.15" stroke-miterlimit="10" x1="544.2" y1="390.4" x2="522.3" y2="486.5"/>
	<polyline fill="none" stroke="#FFFAF0" stroke-width="0.15" stroke-miterlimit="10" points="479.8,247.4 363.6,244.9 265.4,271.2 
		158.7,249.4 182.4,357.1 250.6,441.1 322.7,541.9 388.9,461.8 371.6,551.7 442.3,539.9 446.1,587 512.4,587.3 442.3,539.9 
		388.9,461.8 304.9,351.2 265.4,271.2 324.7,172.4 363.6,244.9 372.1,315 428.4,399.6 522.3,486.5 536.1,560.5 	"/>
	<polyline fill="none" stroke="#FFFAF0" stroke-width="0.15" stroke-miterlimit="10" points="446.1,587 371.6,551.7 322.7,541.9 
		288.1,562.2 210.1,541.9 107.4,516.2 68.8,417 93.5,315 158.7,249.4 324.7,172.4 460.1,166.1 608.3,239 677.4,379.8 690.3,458.9 
		649.7,528 600.3,541.9 536.1,560.5 512.4,587.3 	"/>
</g>
</svg>
