<?xml version="1.0" encoding="utf-8"?>
<!-- Generator: Adobe Illustrator 18.0.0, SVG Export Plug-In . SVG Version: 6.00 Build 0)  -->
<!DOCTYPE svg PUBLIC "-//W3C//DTD SVG 1.1//EN" "http://www.w3.org/Graphics/SVG/1.1/DTD/svg11.dtd">
<svg version="1.1" id="Layer_1" xmlns="http://www.w3.org/2000/svg" xmlns:xlink="http://www.w3.org/1999/xlink" x="0px" y="0px"
	 viewBox="0 0 841.9 1190.6" enable-background="new 0 0 841.9 1190.6" xml:space="preserve">
<g>
	<path fill="#FFFFFF" d="M399,854c-141.4,0-256.4-115-256.4-256.4s115-256.4,256.4-256.4s256.4,115,256.4,256.4S540.4,854,399,854z
		 M399,356.9c-132.7,0-240.6,107.9-240.6,240.6S266.3,838.2,399,838.2s240.6-107.9,240.6-240.6S531.7,356.9,399,356.9z"/>
</g>
<g>
	<path fill="#FFFFFF" d="M391.1,606.8v-196c0-4.4,3.5-7.9,7.9-7.9s7.9,3.5,7.9,7.9v177.6l160.2-24.9c4.4-0.5,8.4,2.3,9,6.6
		c0.7,4.3-2.3,8.3-6.6,9L391.1,606.8z"/>
</g>
</svg>
