<?xml version="1.0" encoding="utf-8"?>
<!-- Generator: Adobe Illustrator 18.0.0, SVG Export Plug-In . SVG Version: 6.00 Build 0)  -->
<!DOCTYPE svg PUBLIC "-//W3C//DTD SVG 1.1//EN" "http://www.w3.org/Graphics/SVG/1.1/DTD/svg11.dtd">
<svg version="1.1" id="Layer_1" xmlns="http://www.w3.org/2000/svg" xmlns:xlink="http://www.w3.org/1999/xlink" x="0px" y="0px"
	 viewBox="0 0 800 800" enable-background="new 0 0 800 800" xml:space="preserve">
<line fill="none" stroke="#FFFAF0" stroke-miterlimit="10" x1="334.2" y1="89.8" x2="334.2" y2="698.6"/>
<text transform="matrix(1 0 0 1 431.3398 110.3066)" fill="#FFFAF0" font-family="'ApercuPro-Mono'" font-size="24.5266">100</text>
<text transform="matrix(1 0 0 1 431.3398 698.6133)" fill="#FFFAF0" font-family="'ApercuPro-Mono'" font-size="24.5266">0</text>
<line fill="none" stroke="#FFFAF0" stroke-miterlimit="10" x1="378" y1="253.5" x2="406" y2="253.5"/>
<line fill="none" stroke="#FFFAF0" stroke-miterlimit="10" x1="378" y1="544.5" x2="406" y2="544.5"/>
<line fill="none" stroke="#FFFAF0" stroke-miterlimit="10" x1="378" y1="396.5" x2="406" y2="396.5"/>
<text transform="matrix(1 0 0 1 431.3398 404.46)" fill="#FFFAF0" font-family="'ApercuPro-Mono'" font-size="24.5266">50</text>
<text transform="matrix(1 0 0 1 431.3398 549.7891)" fill="#FFFAF0" font-family="'ApercuPro-Mono'" font-size="18.519">25</text>
<text transform="matrix(1 0 0 1 431.3398 255.6333)" fill="#FFFAF0" font-family="'ApercuPro-Mono'" font-size="18.519">75</text>
<line fill="none" stroke="#FFFAF0" stroke-miterlimit="10" x1="378" y1="173.5" x2="406" y2="173.5"/>
<line fill="none" stroke="#FFFAF0" stroke-miterlimit="10" x1="378" y1="321.5" x2="406" y2="321.5"/>
<line fill="none" stroke="#FFFAF0" stroke-miterlimit="10" x1="378" y1="470.5" x2="406" y2="470.5"/>
<line fill="none" stroke="#FFFAF0" stroke-miterlimit="10" x1="378" y1="618.5" x2="406" y2="618.5"/>
<line fill="none" stroke="#FFFAF0" stroke-width="0.25" stroke-miterlimit="10" x1="379.4" y1="139.1" x2="406.2" y2="139.1"/>
<line fill="none" stroke="#FFFAF0" stroke-width="0.25" stroke-miterlimit="10" x1="379.4" y1="212.6" x2="406.2" y2="212.6"/>
<line fill="none" stroke="#FFFAF0" stroke-width="0.25" stroke-miterlimit="10" x1="378.9" y1="286.1" x2="405.6" y2="286.1"/>
<line fill="none" stroke="#FFFAF0" stroke-width="0.25" stroke-miterlimit="10" x1="379.4" y1="359.6" x2="406.2" y2="359.6"/>
<line fill="none" stroke="#FFFAF0" stroke-width="0.25" stroke-miterlimit="10" x1="378.9" y1="433.1" x2="405.6" y2="433.1"/>
<line fill="none" stroke="#FFFAF0" stroke-width="0.25" stroke-miterlimit="10" x1="378.9" y1="506.6" x2="405.6" y2="506.6"/>
<line fill="none" stroke="#FFFAF0" stroke-width="0.25" stroke-miterlimit="10" x1="378.9" y1="580.1" x2="405.6" y2="580.1"/>
<line fill="none" stroke="#FFFAF0" stroke-width="0.25" stroke-miterlimit="10" x1="379.4" y1="653.6" x2="406.2" y2="653.6"/>
<polyline fill="none" stroke="#FFFAF0" stroke-width="3" stroke-miterlimit="10" points="406.2,104.7 379.4,104.7 379.4,688.8 
	406.2,688.8 "/>
</svg>
